<?xml version="1.0" encoding="UTF-8"?>
<svg xmlns="http://www.w3.org/2000/svg" version="1.1" xmlns:xlink="http://www.w3.org/1999/xlink" viewBox="0 0 1468.2 979.5">
  <!-- Generator: Adobe Illustrator 30.1.0, SVG Export Plug-In . SVG Version: 2.1.1 Build 136)  -->
  <defs>
    <style>
      .st0 {
        stroke-width: 2px;
      }

      .st0, .st1, .st2, .st3, .st4, .st5 {
        fill: none;
      }

      .st0, .st1, .st3, .st5 {
        stroke: #231f20;
        stroke-miterlimit: 10;
      }

      .st6 {
        fill: #231f20;
      }

      .st1 {
        stroke-width: 3px;
      }

      .st7 {
        opacity: .2;
      }

      .st8 {
        isolation: isolate;
      }

      .st9 {
        fill: #fff;
        font-family: ArialMT, Arial;
        font-size: 10px;
      }

      .st10 {
        display: none;
      }

      .st4 {
        stroke: #000;
      }

      .st4, .st5 {
        stroke-width: .8px;
      }

      .st11 {
        fill: #c2c1c0;
        mix-blend-mode: multiply;
      }

      .st12 {
        opacity: .4;
      }

      .st13 {
        clip-path: url(#clippath);
      }
    </style>
    <clipPath id="clippath">
      <rect class="st2" x="39" y="161" width="796.9" height="414.9"/>
    </clipPath>
  </defs>
  <g class="st8">
    <g id="Layer_1" class="st10">
      <text class="st9" transform="translate(58.1 597.2)"><tspan x="0" y="0" xml:space="preserve">I approve the above Grand Mezzanine floor plan. Signature: _________________________________   Date: _______________</tspan></text>
      <g class="st12">
        <g class="st13">
          <image width="1080" height="834" transform="translate(15.1 74.6) scale(.8)" xlink:href="FIDI Mezzanine Floor Plan Scale-1.png"/>
        </g>
      </g>
    </g>
    <g id="Layer_3">
      <polyline class="st0" points="210.3 683.9 210.3 761 192.9 761 192.9 810.6 100 810.6 100 683.9 215.5 683.9 215.5 693.3 225.8 693.3 225.8 706.2 214.8 706.2 214.8 868.7 172.2 868.7"/>
      <line class="st0" x1="100" y1="701.8" x2="210.3" y2="701.8"/>
      <line class="st0" x1="100" y1="721.5" x2="210.3" y2="721.5"/>
      <line class="st0" x1="100" y1="741.3" x2="210.3" y2="741.3"/>
      <line class="st0" x1="100" y1="761" x2="210.3" y2="761"/>
      <line class="st0" x1="100" y1="780.8" x2="192.5" y2="780.8"/>
      <line class="st0" x1="100" y1="800.5" x2="192.5" y2="800.5"/>
      <polyline class="st0" points="177.9 683.9 177.9 693.1 210.3 693.1"/>
      <polyline class="st0" points="177.9 701.8 177.9 710.9 210.3 710.9"/>
      <polyline class="st0" points="177.9 721.5 177.9 730.7 210.3 730.7"/>
      <polyline class="st0" points="177.9 741.3 177.9 750.4 210.3 750.4"/>
      <line class="st0" x1="192.9" y1="810.6" x2="214.8" y2="810.6"/>
      <path class="st0" d="M100,810.6v11.5h3.7l18.1,18.9s-3.2,5.4-9.2,7.9-12.6,1.4-12.6,1.4v41.2"/>
      <path class="st0" d="M214,868.7h25.4v22.9s-67-.2-67.2,0v-41.2s6.5,1.1,12.6-1.4,9.2-7.9,9.2-7.9l-18.1-18.9h-3.7v-11.5"/>
      <path class="st0" d="M172.2,891.6h-95V226.6l5-24.8,14-20.9,19.8-13.9,22-5h418.5l20.9,4.5,21.3,15.3,13.2,21.2,2.1,28.8v170.2h-8.7v-176.8l-3.3-20.3-11.3-16.9-14.4-10.9-14.2-4.7h-91v21.2h89.9s10.6,1,17.4,10.4,7.7,20,7.7,20v175.6l19.2-.2v21.5h-23v-21.3h8.1"/>
      <polyline class="st0" points="582.3 416.1 568.6 416.1 568.6 653.6"/>
      <line class="st0" x1="534.3" y1="653.6" x2="601.4" y2="653.6"/>
      <polyline class="st0" points="568.6 460.2 533.6 460.2 533.6 702.9 601.4 702.9 601.4 565.2 601.4 469.9 568.6 469.9"/>
      <polygon class="st0" points="453.4 193.5 238.5 193.5 238.5 172.9 453.4 172.4 453.4 193.5"/>
      <g>
        <rect class="st3" x="83.4" y="512.9" width="15.9" height="18.4"/>
        <line class="st3" x1="96.6" y1="531.3" x2="96.6" y2="512.9"/>
        <line class="st3" x1="86.1" y1="512.9" x2="86.1" y2="531.3"/>
        <line class="st3" x1="86.1" y1="522.1" x2="96.6" y2="522.1"/>
      </g>
      <g>
        <rect class="st3" x="83.4" y="691.9" width="15.9" height="18.4"/>
        <line class="st3" x1="96.6" y1="710.3" x2="96.6" y2="691.9"/>
        <line class="st3" x1="86.1" y1="691.9" x2="86.1" y2="710.3"/>
        <line class="st3" x1="86.1" y1="701.1" x2="96.6" y2="701.1"/>
      </g>
      <g>
        <rect class="st3" x="83.4" y="312.3" width="15.9" height="18.4"/>
        <line class="st3" x1="96.6" y1="330.7" x2="96.6" y2="312.3"/>
        <line class="st3" x1="86.1" y1="312.3" x2="86.1" y2="330.7"/>
        <line class="st3" x1="86.1" y1="321.5" x2="96.6" y2="321.5"/>
      </g>
      <g>
        <rect class="st3" x="222.6" y="168.3" width="15.9" height="18.4"/>
        <line class="st3" x1="235.8" y1="186.7" x2="235.8" y2="168.3"/>
        <line class="st3" x1="225.3" y1="168.3" x2="225.3" y2="186.7"/>
        <line class="st3" x1="225.3" y1="177.5" x2="235.8" y2="177.5"/>
      </g>
      <g>
        <rect class="st3" x="453.9" y="167.8" width="16.6" height="17.6" transform="translate(285.6 638.8) rotate(-90)"/>
        <line class="st3" x1="471.1" y1="171.1" x2="453.4" y2="171.1"/>
        <line class="st3" x1="453.4" y1="182.1" x2="471.1" y2="182.1"/>
        <line class="st3" x1="462.2" y1="182.1" x2="462.2" y2="171.1"/>
      </g>
      <g>
        <rect class="st3" x="222.6" y="512.9" width="15.9" height="18.4"/>
        <line class="st3" x1="235.8" y1="531.3" x2="235.8" y2="512.9"/>
        <line class="st3" x1="225.3" y1="512.9" x2="225.3" y2="531.3"/>
        <line class="st3" x1="225.3" y1="522.1" x2="235.8" y2="522.1"/>
      </g>
      <rect class="st3" x="304.9" y="327.1" width="150" height="3.6"/>
      <rect class="st3" x="304.9" y="380.2" width="150" height="3.6"/>
      <polygon class="st3" points="489.3 323.5 295.2 323.5 295.2 327.1 489.3 327.1 489.3 383.8 295.2 383.8 295.2 387.5 489.3 387.5 492.8 387.5 492.8 383.8 492.8 327.1 492.8 323.5 489.3 323.5"/>
      <line class="st3" x1="304.9" y1="327.1" x2="304.9" y2="383.8"/>
      <line class="st3" x1="313.1" y1="327.1" x2="313.1" y2="383.8"/>
      <line class="st3" x1="321.4" y1="327.1" x2="321.4" y2="383.8"/>
      <line class="st3" x1="329.6" y1="327.1" x2="329.6" y2="383.8"/>
      <line class="st3" x1="337.8" y1="327.1" x2="337.8" y2="383.8"/>
      <line class="st3" x1="346.1" y1="327.1" x2="346.1" y2="383.8"/>
      <line class="st3" x1="354.3" y1="327.1" x2="354.3" y2="383.8"/>
      <line class="st3" x1="362.5" y1="327.1" x2="362.5" y2="383.8"/>
      <line class="st3" x1="370.8" y1="327.1" x2="370.8" y2="383.8"/>
      <line class="st3" x1="379" y1="327.1" x2="379" y2="383.8"/>
      <line class="st3" x1="387.2" y1="327.1" x2="387.2" y2="383.8"/>
      <line class="st3" x1="395.4" y1="327.1" x2="395.4" y2="383.8"/>
      <line class="st3" x1="403.7" y1="327.1" x2="403.7" y2="383.8"/>
      <line class="st3" x1="411.9" y1="327.1" x2="411.9" y2="383.8"/>
      <line class="st3" x1="420.1" y1="327.1" x2="420.1" y2="383.8"/>
      <line class="st3" x1="428.4" y1="327.1" x2="428.4" y2="383.8"/>
      <line class="st3" x1="436.6" y1="327.1" x2="436.6" y2="383.8"/>
      <line class="st3" x1="444.8" y1="327.1" x2="444.8" y2="383.8"/>
      <polyline class="st3" points="83.4 891.6 83.4 227.2 87.1 204.4 99.5 185.2 117.5 173.2 139.8 168.1 222.6 168.1 553.7 168.1 575.8 173.2 593.2 185.5 605.3 204.7 609 227.6 609 402"/>
      <ellipse class="st3" cx="87.3" cy="795.4" rx="3.9" ry="4.1"/>
      <ellipse class="st3" cx="87.3" cy="604.5" rx="3.9" ry="4.1"/>
      <ellipse class="st3" cx="87.3" cy="416" rx="3.9" ry="4.1"/>
      <ellipse class="st3" cx="87.3" cy="227" rx="3.9" ry="4.1"/>
      <ellipse class="st3" cx="138.4" cy="172.4" rx="3.9" ry="4.1"/>
      <polyline class="st3" points="99.3 531.3 156.8 531.3 230.6 590.2 230.6 699.8 225.8 699.8"/>
      <rect class="st3" x="287.9" y="795.6" width="147.3" height="31"/>
      <ellipse class="st3" cx="304.8" cy="789.7" rx="5.7" ry="6"/>
      <ellipse class="st3" cx="327.7" cy="789.6" rx="5.7" ry="6"/>
      <ellipse class="st3" cx="350.6" cy="789.6" rx="5.7" ry="6"/>
      <ellipse class="st3" cx="373.6" cy="789.5" rx="5.7" ry="6"/>
      <ellipse class="st3" cx="396.5" cy="789.4" rx="5.7" ry="6"/>
      <ellipse class="st3" cx="419.4" cy="789.3" rx="5.7" ry="6"/>
      <polyline class="st3" points="87.3 710.3 87.3 786.7 94.8 786.7 94.8 803.8 87.3 803.8 87.3 891.6"/>
      <rect class="st3" x="248.2" y="868.7" width="212" height="18.1"/>
      <rect class="st3" x="460.2" y="863.1" width="19.8" height="28.5"/>
      <line class="st3" x1="284.8" y1="868.7" x2="284.8" y2="886.8"/>
      <line class="st3" x1="300.4" y1="868.7" x2="300.4" y2="886.8"/>
      <line class="st3" x1="322.8" y1="868.7" x2="322.8" y2="886.8"/>
      <line class="st3" x1="341.3" y1="868.7" x2="341.3" y2="886.8"/>
      <line class="st3" x1="387.6" y1="868.7" x2="387.6" y2="886.8"/>
      <line class="st3" x1="406.6" y1="868.7" x2="406.6" y2="886.8"/>
      <line class="st3" x1="429.2" y1="868.7" x2="429.2" y2="886.8"/>
      <line class="st3" x1="441.1" y1="868.7" x2="441.1" y2="886.8"/>
      <rect class="st3" x="367.9" y="871" width="17" height="12.3" rx=".9" ry=".9"/>
      <rect class="st6" x="375" y="878.5" width="2.5" height="8.3"/>
      <line class="st5" x1="248.2" y1="868.7" x2="261.5" y2="854.6"/>
      <line class="st5" x1="272.5" y1="855.2" x2="284.8" y2="868.7"/>
      <line class="st5" x1="446.6" y1="854.3" x2="460" y2="868.4"/>
      <line class="st5" x1="480" y1="863.1" x2="491.7" y2="873.5"/>
      <line class="st5" x1="491.7" y1="881.7" x2="480.3" y2="891.6"/>
      <g>
        <line class="st0" x1="540.1" y1="801.1" x2="540.1" y2="830.9"/>
        <path class="st3" d="M567.2,830.9s.3-11.2-7.2-20.5c-7.4-9.3-19.8-9.3-19.8-9.3"/>
      </g>
      <g>
        <line class="st0" x1="609" y1="778.4" x2="609" y2="751.3"/>
        <path class="st3" d="M630.6,751.3s.2,10.2-5.7,18.7-15.8,8.5-15.8,8.5"/>
      </g>
      <g>
        <line class="st0" x1="717.5" y1="749.6" x2="736.9" y2="749.6"/>
        <path class="st3" d="M736.9,724.8s-7.3-.2-13.3,6.6c-6,6.8-6,18.2-6,18.2"/>
      </g>
      <g>
        <line class="st0" x1="717.5" y1="719.8" x2="736.9" y2="719.8"/>
        <path class="st3" d="M736.9,698.2s-7.3-.2-13.3,5.7c-6,5.9-6,15.8-6,15.8"/>
      </g>
      <g>
        <line class="st0" x1="653.3" y1="749.6" x2="634" y2="749.6"/>
        <path class="st3" d="M634,724.8s7.3-.2,13.3,6.6c6,6.8,6,18.2,6,18.2"/>
      </g>
      <g>
        <line class="st0" x1="653.3" y1="719.8" x2="634" y2="719.8"/>
        <path class="st3" d="M634,698.2s7.3-.2,13.3,5.7c6,5.9,6,15.8,6,15.8"/>
      </g>
      <g>
        <line class="st1" x1="609.5" y1="597.4" x2="609.5" y2="568.5"/>
        <path class="st3" d="M636.7,568.5s.3,10.9-7.2,19.8c-7.5,9-20,9-20,9"/>
      </g>
      <g>
        <line class="st1" x1="867.1" y1="312.5" x2="867.1" y2="341.3"/>
        <path class="st3" d="M894.3,341.3s.3-10.9-7.2-19.8c-7.5-9-20-9-20-9"/>
      </g>
      <g>
        <line class="st1" x1="921.5" y1="312.5" x2="921.5" y2="341.3"/>
        <path class="st3" d="M894.3,341.3s-.3-10.9,7.2-19.8c7.5-9,20-9,20-9"/>
      </g>
      <g>
        <line class="st1" x1="710.5" y1="466.4" x2="681.7" y2="466.4"/>
        <path class="st3" d="M681.7,439.2s10.9-.3,19.8,7.2c9,7.5,9,20,9,20"/>
      </g>
      <g>
        <line class="st1" x1="998" y1="465.2" x2="998" y2="494.1"/>
        <path class="st3" d="M1025.2,494.1s.3-10.9-7.2-19.8c-7.5-9-20-9-20-9"/>
      </g>
      <g>
        <line class="st1" x1="934.4" y1="465.2" x2="934.4" y2="494.1"/>
        <path class="st3" d="M963.2,494.1s.3-10.9-7.7-19.8c-7.9-9-21.2-9-21.2-9"/>
      </g>
      <g>
        <line class="st1" x1="929.7" y1="465.2" x2="929.7" y2="494.1"/>
        <path class="st3" d="M901.6,494.1s-.3-10.9,7.5-19.8c7.7-9,20.6-9,20.6-9"/>
      </g>
      <g>
        <line class="st1" x1="1142" y1="538.4" x2="1114.4" y2="538.4"/>
        <path class="st3" d="M1114.4,510s10.4-.3,19,7.5c8.6,7.8,8.6,20.8,8.6,20.8"/>
      </g>
      <g>
        <line class="st1" x1="761.5" y1="597.4" x2="761.5" y2="568.5"/>
        <path class="st3" d="M734.3,568.5s-.3,10.9,7.2,19.8c7.5,9,20,9,20,9"/>
      </g>
      <g>
        <line class="st0" x1="717.5" y1="693.1" x2="736.9" y2="693.1"/>
        <path class="st3" d="M736.9,670s-7.3-.2-13.3,6.1c-6,6.4-6,17-6,17"/>
      </g>
      <g>
        <line class="st0" x1="717.3" y1="665.1" x2="736.6" y2="665.1"/>
        <path class="st3" d="M736.6,640.9s-7.3-.2-13.3,6.4c-6,6.7-6,17.8-6,17.8"/>
      </g>
      <g>
        <line class="st0" x1="810.9" y1="811.8" x2="832.3" y2="831.6"/>
        <path class="st3" d="M804,834.2s-.5-7.3,1.4-12.6c1.9-5.2,5.6-9.9,5.6-9.9"/>
      </g>
      <rect class="st3" x="636.7" y="565.3" width="97.6" height="3.3"/>
      <rect class="st3" x="766.7" y="431.7" width="68.5" height="3.2" transform="translate(367.7 1234.2) rotate(-90)"/>
      <rect class="st3" x="884.5" y="445" width="95.2" height="3.2" transform="translate(485.5 1378.7) rotate(-90)"/>
      <rect class="st3" x="946.6" y="445" width="95.2" height="3.2" transform="translate(547.6 1440.8) rotate(-90)"/>
      <rect class="st3" x="1065.2" y="445" width="95.2" height="3.2" transform="translate(666.2 1559.4) rotate(-90)"/>
      <rect class="st3" x="912.9" y="365.2" width="60.5" height="7.2" transform="translate(574.4 1311.9) rotate(-90)"/>
      <polygon class="st3" points="884.1 467.5 838.4 467.5 835.3 467.5 788.5 467.5 785.3 467.5 753.8 467.5 750.7 467.5 718.1 467.5 714.9 467.5 683.7 467.5 679.6 467.5 679.6 470.8 679.6 498.1 683.7 498.1 683.7 470.8 714.9 470.8 714.9 498.1 718.1 498.1 718.1 470.8 750.7 470.8 750.7 498.1 753.8 498.1 753.8 470.8 785.3 470.8 785.3 498.1 788.5 498.1 788.5 470.8 835.3 470.8 835.3 498.1 838.4 498.1 838.4 470.8 884.1 470.8 884.1 498.1 887.2 498.1 887.2 470.8 887.2 467.5 884.1 467.5"/>
      <rect class="st3" x="639.5" y="637.5" width="40.1" height="3.3"/>
      <rect class="st3" x="691.3" y="637.5" width="46" height="3.3"/>
      <rect class="st3" x="634" y="694.9" width="45.7" height="3.3"/>
      <rect class="st3" x="691.3" y="694.9" width="46" height="3.3"/>
      <rect class="st3" x="634" y="721.5" width="45.7" height="3.3"/>
      <polygon class="st3" points="599 736.7 576.3 736.7 576.3 702.9 573.1 702.9 573.1 736.7 536.7 736.7 536.7 733.3 533.6 733.3 533.6 736.7 533.6 740 533.6 830.9 533.6 834.2 536.7 834.2 540.1 834.2 540.1 830.9 536.7 830.9 536.7 740 573.1 740 576.3 740 599 740 599 830.9 567.2 830.9 567.2 834.2 599 834.2 602.2 834.2 602.2 830.9 602.2 740 602.2 736.7 599 736.7"/>
      <rect class="st3" x="691.3" y="721.5" width="46" height="3.3"/>
      <rect class="st3" x="660.2" y="666.7" width="19.4" height="3.3"/>
      <rect class="st3" x="691.3" y="666.7" width="46" height="3.3"/>
      <rect class="st3" x="852.6" y="616.9" width="106.4" height="3.2" transform="translate(287.3 1524.2) rotate(-90)"/>
      <polygon class="st3" points="1352 549.2 1352 545.9 949.9 545.9 949.9 545.9 946.8 545.9 946.8 545.9 946.8 549.2 946.8 831.1 946.8 834.2 946.8 834.4 1002.7 834.4 1005.8 834.4 1005.8 831.1 1005.8 820 1104.2 820 1104.2 877.5 1107.3 877.5 1107.3 820 1107.3 816.7 1104.2 816.7 1005.8 816.7 1002.7 816.7 1002.7 820 1002.7 831.1 949.9 831.1 949.9 549.2 1352 549.2"/>
      <rect class="st3" x="836.4" y="565.3" width="20.9" height="25.9" transform="translate(1693.6 1156.5) rotate(180)"/>
      <rect class="st3" x="594.1" y="654" width="182.6" height="11.7" transform="translate(25.6 1345.3) rotate(-90)"/>
      <path class="st3" d="M904.2,726.8v3.7h-68.9v20.6h-66.8v-156.6h88.8v-3.3h-88.8v-26h-6.5v3.3h3.3v22.7h0v3.3h0v156.6h-135v3.3h34.6v61.6h-57.5v-251.2h-5.2v274.8h0c0,0,65.9,0,65.9,0h4.7v-5.4h131.6v-3.3h-131.6v-76.5h162.5v34.8h-133.2v3.3h133.2v38.6h-2.9v3.3h75v-107.5h-3.2ZM668,836.4h-60.7v-17.1h60.7v17.1ZM904.2,831.1h-64v-95.4h64v95.4Z"/>
      <rect class="st3" x="644.8" y="762.4" width="20.1" height="27.9"/>
      <line class="st3" x1="702.1" y1="754.4" x2="702.1" y2="830.9"/>
      <line class="st3" x1="710.1" y1="754.4" x2="710.1" y2="789.2"/>
      <line class="st3" x1="710.1" y1="792.7" x2="710.1" y2="831.1"/>
      <line class="st3" x1="718.8" y1="754.4" x2="718.8" y2="789.2"/>
      <line class="st3" x1="718.8" y1="792.7" x2="718.8" y2="831.1"/>
      <line class="st3" x1="727.4" y1="754.4" x2="727.4" y2="789.2"/>
      <line class="st3" x1="727.4" y1="792.7" x2="727.4" y2="831.1"/>
      <line class="st3" x1="736.1" y1="754.4" x2="736.1" y2="789.2"/>
      <line class="st3" x1="736.1" y1="792.7" x2="736.1" y2="831.1"/>
      <line class="st3" x1="744.8" y1="754.4" x2="744.8" y2="789.2"/>
      <line class="st3" x1="744.8" y1="792.7" x2="744.8" y2="831.1"/>
      <line class="st3" x1="753.5" y1="754.4" x2="753.5" y2="789.2"/>
      <line class="st3" x1="753.5" y1="792.7" x2="753.5" y2="831.1"/>
      <line class="st3" x1="762.2" y1="754.4" x2="762.2" y2="789.2"/>
      <line class="st3" x1="770.6" y1="754.4" x2="770.6" y2="789.2"/>
      <line class="st3" x1="762.2" y1="792.7" x2="762.2" y2="831.1"/>
      <rect class="st3" x="856.9" y="740.3" width="27.5" height="50.1"/>
      <line class="st3" x1="856.9" y1="790.4" x2="884.4" y2="740.3"/>
      <line class="st3" x1="856.9" y1="740.3" x2="884.4" y2="790.4"/>
      <rect class="st3" x="768.4" y="565.3" width="88.8" height="25.9" transform="translate(1625.7 1156.5) rotate(180)"/>
      <rect class="st3" x="789.7" y="567.7" width="39" height="21.1" transform="translate(1618.4 1156.5) rotate(180)"/>
      <rect class="st3" x="786.3" y="571.1" width="3.4" height="14.3" transform="translate(1576 1156.5) rotate(180)"/>
      <rect class="st3" x="828.7" y="571.1" width="3.4" height="14.3" transform="translate(1660.8 1156.5) rotate(180)"/>
      <line class="st3" x1="904.2" y1="565.3" x2="857.2" y2="565.3"/>
      <line class="st3" x1="904.2" y1="577.5" x2="857.2" y2="577.5"/>
      <polyline class="st3" points="697.9 470.8 697.9 491.4 683.7 491.4"/>
      <polyline class="st3" points="714.9 491.4 702.5 491.4 697.9 491.4"/>
      <polyline class="st3" points="732.7 470.8 732.7 491.4 718.1 491.4"/>
      <line class="st3" x1="750.2" y1="491.4" x2="732.7" y2="491.4"/>
      <polyline class="st3" points="768.1 470.8 768.1 491.4 753.8 491.4"/>
      <polyline class="st3" points="785.3 491.4 772.8 491.4 768.1 491.4"/>
      <polyline class="st3" points="801.6 470.8 801.6 491.4 788.7 491.4"/>
      <line class="st3" x1="822.9" y1="491.4" x2="801.6" y2="491.4"/>
      <polyline class="st3" points="822.9 470.8 822.9 491.4 835.3 491.4"/>
      <polyline class="st3" points="851.1 470.8 851.1 491.4 838.4 491.4"/>
      <polyline class="st3" points="871.9 470.8 871.9 491.4 851.1 491.4"/>
      <polyline class="st3" points="871.9 470.8 871.9 491.4 884.1 491.4"/>
      <line class="st3" x1="838.4" y1="498.1" x2="884.1" y2="498.1"/>
      <polyline class="st5" points="850.4 505.8 861.5 494.2 872.4 505.8 883.7 494.2"/>
      <line class="st3" x1="788.7" y1="498.1" x2="835.3" y2="498.1"/>
      <line class="st3" x1="753.8" y1="498.1" x2="785.3" y2="498.1"/>
      <polyline class="st5" points="800.9 505.8 812.2 494.2 823.3 505.8 834.9 494.2"/>
      <polyline class="st5" points="762.4 494.2 773.6 505.8 785.1 494.2"/>
      <line class="st3" x1="718.7" y1="498.1" x2="750.2" y2="498.1"/>
      <polyline class="st5" points="727.4 494.2 738.5 505.8 750.1 494.2"/>
      <line class="st3" x1="683.4" y1="498.1" x2="714.9" y2="498.1"/>
      <polyline class="st5" points="692.1 494.2 703.2 505.8 714.8 494.2"/>
      <line class="st5" x1="682.1" y1="399" x2="682.1" y2="439.2"/>
      <polyline class="st0" points="614 399 939.5 399 939.5 338.5 920.5 338.5"/>
      <line class="st0" x1="830.7" y1="338.5" x2="615.1" y2="338.5"/>
      <ellipse class="st0" cx="847" cy="338.5" rx="15.8" ry="16.5"/>
      <ellipse class="st0" cx="692.1" cy="183" rx="15.8" ry="16.5"/>
      <ellipse class="st0" cx="1099.4" cy="338.5" rx="15.8" ry="16.5"/>
      <ellipse class="st0" cx="1333.3" cy="338.5" rx="15.8" ry="16.5"/>
      <polyline class="st0" points="939.5 338.5 1079.4 338.5 1079.4 358.6 1120 358.6 1120 338.5 1312.8 338.5 1312.8 358.6 1353.4 358.6 1353.4 338.5"/>
      <line class="st3" x1="901.6" y1="494.2" x2="887.2" y2="494.2"/>
      <line class="st3" x1="992.6" y1="494.2" x2="963.2" y2="494.2"/>
      <line class="st3" x1="1114.4" y1="494.2" x2="1024.6" y2="494.2"/>
      <polyline class="st0" points="946.8 399 1119.7 399 1352 399 1352 545.9"/>
      <line class="st3" x1="1114.4" y1="494.2" x2="1114.4" y2="510.6"/>
      <line class="st3" x1="1114.4" y1="545.9" x2="1114.4" y2="538.1"/>
      <rect class="st3" x="1178.3" y="530.8" width="105.9" height="15"/>
      <rect class="st3" x="691.3" y="568.5" width="18.9" height="68.9"/>
      <g>
        <rect class="st3" x="696.3" y="575" width="10.3" height="14.9" rx=".9" ry=".9"/>
        <rect class="st6" x="693.6" y="581.3" width="6.6" height="2.4"/>
      </g>
      <g>
        <rect class="st3" x="696.3" y="594.9" width="10.3" height="14.9" rx=".9" ry=".9"/>
        <rect class="st6" x="693.6" y="601.2" width="6.6" height="2.4"/>
      </g>
      <g>
        <rect class="st3" x="696.3" y="615.8" width="10.3" height="14.9" rx=".9" ry=".9"/>
        <rect class="st6" x="693.6" y="622" width="6.6" height="2.4"/>
      </g>
      <rect class="st3" x="660.7" y="568.5" width="18.9" height="68.9" transform="translate(1340.4 1206) rotate(-180)"/>
      <g>
        <rect class="st3" x="664.3" y="575" width="10.3" height="14.9" rx=".9" ry=".9" transform="translate(1338.9 1164.9) rotate(-180)"/>
        <rect class="st6" x="670.8" y="581.3" width="6.6" height="2.4" transform="translate(1348.1 1164.9) rotate(-180)"/>
      </g>
      <g>
        <rect class="st3" x="664.3" y="594.9" width="10.3" height="14.9" rx=".9" ry=".9" transform="translate(1338.9 1204.8) rotate(-180)"/>
        <rect class="st6" x="670.8" y="601.2" width="6.6" height="2.4" transform="translate(1348.1 1204.8) rotate(-180)"/>
      </g>
      <g>
        <rect class="st3" x="664.3" y="615.8" width="10.3" height="14.9" rx=".9" ry=".9" transform="translate(1338.9 1246.4) rotate(-180)"/>
        <rect class="st6" x="670.8" y="622" width="6.6" height="2.4" transform="translate(1348.1 1246.4) rotate(-180)"/>
      </g>
      <polygon class="st0" points="835.3 877.5 835.3 891.6 72.8 891.6 72.8 904.1 835.3 904.1 1107.3 904.1 1107.3 877.5 835.3 877.5"/>
      <polygon class="st3" points="600.6 714 600.6 710.2 586.2 710.2 586.2 714 592.7 714 592.7 723.2 586.2 723.2 586.2 727 600.6 727 600.6 723.2 596.4 723.2 596.4 714 600.6 714"/>
      <line class="st3" x1="907.3" y1="801.5" x2="946.8" y2="801.5"/>
      <line class="st3" x1="907.3" y1="809" x2="946.8" y2="809"/>
      <line class="st3" x1="907.3" y1="816.5" x2="946.8" y2="816.5"/>
      <line class="st3" x1="907.3" y1="824" x2="946.8" y2="824"/>
      <line class="st3" x1="907.3" y1="831.6" x2="946.8" y2="831.6"/>
      <g class="st7">
        <g>
          <line class="st4" x1="85.6" y1="282.7" x2="583.8" y2="282.7"/>
          <path d="M83.4,282.7c1.1.4,2.4,1.1,3.2,1.8l-.6-1.8.6-1.8c-.8.7-2.1,1.4-3.2,1.8Z"/>
          <path d="M586,282.7c-1.1.4-2.4,1.1-3.2,1.8l.6-1.8-.6-1.8c.8.7,2.1,1.4,3.2,1.8Z"/>
        </g>
      </g>
      <g class="st7">
        <g>
          <line class="st4" x1="796.9" y1="420.1" x2="684.4" y2="420.1"/>
          <path d="M799.2,420.1c-1.1-.4-2.4-1.1-3.2-1.8l.6,1.8-.6,1.8c.8-.7,2.1-1.4,3.2-1.8Z"/>
          <path d="M682.1,420.1c1.1-.4,2.4-1.1,3.2-1.8l-.6,1.8.6,1.8c-.8-.7-2.1-1.4-3.2-1.8Z"/>
        </g>
      </g>
      <g class="st7">
        <g>
          <line class="st4" x1="784.7" y1="401.6" x2="784.7" y2="465.5"/>
          <path d="M784.7,399.3c-.4,1.1-1.1,2.4-1.8,3.2l1.8-.6,1.8.6c-.7-.8-1.4-2.1-1.8-3.2Z"/>
          <path d="M784.7,467.8c-.4-1.1-1.1-2.4-1.8-3.2l1.8.6,1.8-.6c-.7.8-1.4,2.1-1.8,3.2Z"/>
        </g>
      </g>
      <g class="st7">
        <path class="st6" d="M320.5,277.1c-.7,0-1.4-.1-2-.3-.6-.2-1.2-.5-1.6-.9l.6-1.1c.3.3.7.6,1.3.8.5.2,1.1.3,1.7.3s1.3-.2,1.7-.5c.4-.3.6-.8.6-1.3s0-.7-.3-1c-.2-.3-.5-.5-.9-.6-.4-.2-1-.2-1.8-.2h-2.2l.5-5.3h5.5v1.3h-5l.7-.7-.4,4.2-.7-.7h1.9c1,0,1.8.1,2.4.4.6.3,1,.6,1.3,1.1.3.5.4,1,.4,1.6s-.1,1.1-.4,1.6c-.3.5-.7.9-1.2,1.1-.5.3-1.2.4-2.1.4Z"/>
        <path class="st6" d="M329.1,277.1c-.8,0-1.5-.1-2.1-.4-.6-.2-1-.6-1.3-1s-.5-1-.5-1.6.2-1.1.5-1.5c.3-.4.7-.7,1.3-1,.6-.2,1.3-.3,2.1-.3s1.5.1,2.1.3,1,.5,1.3,1c.3.4.5.9.5,1.5s-.2,1.1-.5,1.6-.8.8-1.4,1c-.6.2-1.3.4-2.1.4ZM329.1,272.1c-.7,0-1.4-.1-1.9-.3-.5-.2-.9-.5-1.2-.9s-.4-.9-.4-1.4.1-1.1.4-1.5c.3-.4.7-.7,1.2-1,.5-.2,1.1-.3,1.8-.3s1.3.1,1.9.3c.5.2.9.5,1.2,1,.3.4.4.9.4,1.5s-.1,1-.4,1.4c-.3.4-.7.7-1.2.9-.5.2-1.2.3-1.9.3ZM329.1,275.9c.8,0,1.4-.2,1.8-.5.4-.3.7-.8.7-1.4s-.2-1-.7-1.3-1.1-.5-1.8-.5-1.4.2-1.8.5-.7.8-.7,1.3.2,1,.7,1.4c.4.3,1,.5,1.8.5ZM329.1,271.1c.7,0,1.2-.1,1.6-.4s.6-.7.6-1.2-.2-.9-.6-1.2-.9-.4-1.6-.4-1.2.1-1.6.4-.6.7-.6,1.2.2.9.6,1.2c.4.3.9.4,1.6.4Z"/>
        <path class="st6" d="M334.4,270.2l.7-3,.2.8c-.3,0-.5,0-.7-.3-.2-.2-.3-.4-.3-.7s0-.5.3-.7c.2-.2.4-.3.7-.3s.5,0,.7.3c.2.2.3.4.3.7s0,.2,0,.3,0,.2,0,.3c0,.1,0,.3-.1.5l-.7,2h-.9Z"/>
        <path class="st6" d="M341.1,277v-1l4-4c.4-.3.6-.7.8-.9.2-.3.3-.5.3-.7s0-.4,0-.7c0-.5-.2-.9-.5-1.2-.4-.3-.9-.5-1.5-.5s-1,0-1.4.3-.8.5-1.1.8l-.9-.9c.4-.5.9-.9,1.5-1.1.6-.3,1.3-.4,2.1-.4s1.3.1,1.8.3c.5.2.9.6,1.2,1,.3.4.4.9.4,1.5s0,.7-.1,1c0,.3-.2.7-.5,1-.2.4-.6.8-1,1.2l-3.5,3.6-.3-.6h5.9v1.3h-7Z"/>
        <path class="st6" d="M349.3,270.2l.7-3,.2.8c-.3,0-.5,0-.7-.3-.2-.2-.3-.4-.3-.7s0-.5.3-.7c.2-.2.4-.3.7-.3s.5,0,.7.3c.2.2.3.4.3.7s0,.2,0,.3,0,.2,0,.3c0,.1,0,.3-.1.5l-.7,2h-.9ZM352,270.2l.7-3,.2.8c-.3,0-.5,0-.7-.3-.2-.2-.3-.4-.3-.7s0-.5.3-.7c.2-.2.4-.3.7-.3s.5,0,.7.3c.2.2.3.4.3.7s0,.2,0,.3,0,.2,0,.3c0,.1,0,.3-.1.5l-.7,2h-.9Z"/>
      </g>
      <g class="st7">
        <path class="st6" d="M504.5,562c0,.7-.1,1.4-.3,1.9-.2.5-.5.9-.9,1.2-.4.3-.9.4-1.4.4s-1.1-.1-1.5-.4c-.4-.3-.7-.7-1-1.2-.2-.5-.3-1.1-.3-1.8s.1-1.3.3-1.9c.2-.5.5-.9,1-1.2.4-.3.9-.4,1.5-.4s1,.1,1.4.4c.4.3.7.7.9,1.2.2.5.3,1.2.3,1.9ZM503.6,562c0-.7-.1-1.2-.4-1.6-.3-.4-.7-.6-1.2-.6s-.9.2-1.2.6-.4.9-.4,1.6.1,1.2.4,1.6.7.6,1.2.6.9-.2,1.2-.6.4-.9.4-1.6ZM509.5,562c0,.8-.1,1.5-.4,2.1-.2.6-.6,1-1,1.3s-1,.5-1.6.5-1.1-.2-1.5-.5c-.4-.3-.7-.7-1-1.3-.2-.6-.3-1.3-.3-2.1s.1-1.5.3-2.1c.2-.6.5-1,1-1.3.4-.3.9-.5,1.5-.5s1.1.2,1.6.5.8.8,1,1.4c.2.6.4,1.3.4,2.1ZM508.3,562c0-.8-.2-1.4-.5-1.8-.3-.4-.8-.7-1.4-.7s-1,.2-1.3.7c-.3.4-.5,1.1-.5,1.8s.2,1.4.5,1.8.8.7,1.3.7,1-.2,1.4-.7c.3-.4.5-1,.5-1.8Z"/>
        <path class="st6" d="M509.4,555.1h-9.6l.7-.6v2.8h-1.3v-3.6h10.2v1.4Z"/>
        <path class="st6" d="M502.6,551.5l-3-.7.8-.2c0,.3,0,.5-.3.7s-.4.3-.7.3-.5,0-.7-.3c-.2-.2-.3-.4-.3-.7s0-.5.3-.7.4-.3.7-.3.2,0,.3,0c0,0,.2,0,.3,0,.1,0,.3,0,.5.1l2,.7v.9Z"/>
      </g>
      <g class="st7">
        <g>
          <line class="st4" x1="513.2" y1="889.3" x2="513.2" y2="193.5"/>
          <path d="M513.2,891.6c.4-1.1,1.1-2.4,1.8-3.2l-1.8.6-1.8-.6c.7.8,1.4,2.1,1.8,3.2Z"/>
          <path d="M513.2,191.2c.4,1.1,1.1,2.4,1.8,3.2l-1.8-.6-1.8.6c.7-.8,1.4-2.1,1.8-3.2Z"/>
        </g>
      </g>
      <g class="st7">
        <g>
          <line class="st4" x1="110.9" y1="681.6" x2="110.9" y2="533.5"/>
          <path d="M110.9,683.9c.4-1.1,1.1-2.4,1.8-3.2l-1.8.6-1.8-.6c.7.8,1.4,2.1,1.8,3.2Z"/>
          <path d="M110.9,531.3c.4,1.1,1.1,2.4,1.8,3.2l-1.8-.6-1.8.6c.7-.8,1.4-2.1,1.8-3.2Z"/>
        </g>
      </g>
      <g class="st7">
        <path class="st6" d="M118.2,526.9c-.8,0-1.5-.1-2.1-.4-.6-.2-1-.6-1.3-1s-.5-1-.5-1.6.2-1.1.5-1.5c.3-.4.7-.7,1.3-1,.6-.2,1.3-.3,2.1-.3s1.5.1,2.1.3c.6.2,1,.5,1.3,1,.3.4.5.9.5,1.5s-.2,1.1-.5,1.6-.8.8-1.4,1c-.6.2-1.3.4-2.1.4ZM118.2,521.9c-.7,0-1.4-.1-1.9-.3-.5-.2-.9-.5-1.2-.9-.3-.4-.4-.9-.4-1.4s.1-1.1.4-1.5.7-.7,1.2-1c.5-.2,1.1-.3,1.8-.3s1.3.1,1.9.3c.5.2.9.5,1.2,1s.4.9.4,1.5-.1,1-.4,1.4c-.3.4-.7.7-1.2.9-.5.2-1.2.3-1.9.3ZM118.2,525.8c.8,0,1.4-.2,1.8-.5s.7-.8.7-1.4-.2-1-.7-1.3-1.1-.5-1.8-.5-1.4.2-1.8.5-.7.8-.7,1.3.2,1,.7,1.4,1,.5,1.8.5ZM118.2,521c.7,0,1.2-.1,1.6-.4s.6-.7.6-1.2-.2-.9-.6-1.2-.9-.4-1.6-.4-1.2.1-1.6.4-.6.7-.6,1.2.2.9.6,1.2c.4.3.9.4,1.6.4Z"/>
        <path class="st6" d="M123.4,520l.7-3,.2.8c-.3,0-.5,0-.7-.3-.2-.2-.3-.4-.3-.7s0-.5.3-.7c.2-.2.4-.3.7-.3s.5,0,.7.3c.2.2.3.4.3.7s0,.2,0,.3,0,.2,0,.3c0,.1,0,.3-.1.5l-.7,2h-.9Z"/>
        <path class="st6" d="M134.4,526.9c-.9,0-1.6-.2-2.2-.6-.6-.4-1.1-1-1.4-1.7-.3-.8-.5-1.7-.5-2.8s.2-2.1.6-2.9c.4-.8.9-1.4,1.6-1.8.7-.4,1.5-.6,2.4-.6s.9,0,1.3.1.8.2,1.1.5l-.5,1.1c-.3-.2-.5-.3-.9-.4-.3,0-.7-.1-1-.1-1,0-1.8.3-2.4,1-.6.6-.9,1.6-.9,2.9s0,.4,0,.7,0,.6.1.8l-.5-.5c.1-.4.4-.8.7-1.1.3-.3.7-.5,1.1-.7.4-.2.9-.2,1.4-.2s1.2.1,1.7.4.9.6,1.2,1.1c.3.5.4,1,.4,1.6s-.2,1.2-.5,1.7c-.3.5-.7.9-1.2,1.1s-1.1.4-1.8.4ZM134.3,525.8c.4,0,.8,0,1.1-.2.3-.2.6-.4.8-.7s.3-.6.3-1c0-.6-.2-1.1-.6-1.4-.4-.4-.9-.5-1.6-.5s-.8,0-1.2.3c-.3.2-.6.4-.8.7s-.3.6-.3,1,0,.7.3,1,.4.5.8.7.8.3,1.3.3Z"/>
        <path class="st6" d="M139,520l.7-3,.2.8c-.3,0-.5,0-.7-.3-.2-.2-.3-.4-.3-.7s0-.5.3-.7c.2-.2.4-.3.7-.3s.5,0,.7.3c.2.2.3.4.3.7s0,.2,0,.3,0,.2,0,.3c0,.1,0,.3-.1.5l-.7,2h-.9ZM141.6,520l.7-3,.2.8c-.3,0-.5,0-.7-.3-.2-.2-.3-.4-.3-.7s0-.5.3-.7c.2-.2.4-.3.7-.3s.5,0,.7.3c.2.2.3.4.3.7s0,.2,0,.3,0,.2,0,.3c0,.1,0,.3-.1.5l-.7,2h-.9Z"/>
      </g>
      <g class="st7">
        <path class="st6" d="M235.1,617h9.2l-.7.6v-2.9h1.2v3.7h-9.8v-1.4Z"/>
        <path class="st6" d="M235,623.7c0-.7.1-1.4.3-2.1.2-.7.5-1.2.9-1.7l1.1.7c-.3.3-.6.8-.8,1.3s-.3,1.1-.3,1.7.2,1.3.5,1.8c.3.4.7.6,1.3.6s.9-.2,1.2-.6c.3-.4.5-1,.5-1.9v-.8h1l3.6,3-.6.2v-5.6h1.2v6.7h-.9l-3.6-3,.4-.8v.5c0,1.2-.3,2.2-.8,2.8-.5.6-1.2.9-2,.9s-1.1-.1-1.5-.4c-.5-.3-.8-.7-1.1-1.3-.3-.6-.4-1.3-.4-2.2Z"/>
        <path class="st6" d="M241.6,629l2.8.7-.8.2c0-.3,0-.5.3-.7s.4-.3.7-.3.5,0,.7.3c.2.2.3.4.3.7s0,.5-.3.7c-.2.2-.4.3-.7.3s-.2,0-.3,0c0,0-.2,0-.3,0-.1,0-.3,0-.4-.2l-2-.7v-.9Z"/>
        <path class="st6" d="M235.1,637.9h9.2l-.7.6v-2.9h1.2v3.7h-9.8v-1.4Z"/>
        <path class="st6" d="M235,645.7c0-.8.2-1.5.6-2.1s1-1.1,1.7-1.5c.7-.4,1.6-.5,2.7-.5s2,.2,2.7.5c.7.4,1.3.9,1.7,1.5.4.6.6,1.3.6,2.1s-.2,1.5-.6,2.1c-.4.6-1,1.1-1.7,1.5-.7.4-1.6.5-2.7.5s-2-.2-2.7-.5c-.7-.4-1.3-.9-1.7-1.5s-.6-1.3-.6-2.1ZM236.2,645.7c0,.5.1,1,.4,1.4.3.4.7.7,1.3.9.6.2,1.3.3,2.1.3s1.5-.1,2.1-.3c.6-.2,1-.5,1.3-.9.3-.4.4-.9.4-1.4s-.1-1-.4-1.4c-.3-.4-.7-.7-1.3-1-.6-.2-1.3-.3-2.1-.3s-1.5.1-2.1.3c-.6.2-1,.5-1.3,1-.3.4-.4.9-.4,1.4Z"/>
        <path class="st6" d="M241.6,651.3l2.8.7-.8.2c0-.3,0-.5.3-.7s.4-.3.7-.3.5,0,.7.3c.2.2.3.4.3.7s0,.5-.3.7c-.2.2-.4.3-.7.3s-.2,0-.3,0c0,0-.2,0-.3,0-.1,0-.3,0-.4-.2l-2-.7v-.9ZM241.6,654.1l2.8.7-.8.2c0-.3,0-.5.3-.7.2-.2.4-.3.7-.3s.5,0,.7.3c.2.2.3.4.3.7s0,.5-.3.7c-.2.2-.4.3-.7.3s-.2,0-.3,0-.2,0-.3,0c-.1,0-.3,0-.4-.2l-2-.7v-.9Z"/>
      </g>
      <g class="st7">
        <path class="st6" d="M116.7,586.4h9.2l-.7.6v-2.9h1.2v3.7h-9.8v-1.4Z"/>
        <path class="st6" d="M116.7,591.9l9.2,4.3-.6.4v-6.1l.7.7h-2.4v-1.4h3v7.7h-.9l-8.8-4.1v-1.5Z"/>
        <path class="st6" d="M123.3,598.9l2.8.7-.8.2c0-.3,0-.5.3-.7s.4-.3.7-.3.5,0,.7.3c.2.2.3.4.3.7s0,.5-.3.7c-.2.2-.4.3-.7.3s-.2,0-.3,0c0,0-.2,0-.3,0-.1,0-.3,0-.4-.2l-2-.7v-.9Z"/>
        <path class="st6" d="M116.6,610c0-.8.1-1.5.3-2.1.2-.6.6-1.1,1-1.4.4-.3.9-.5,1.5-.5s1.1.2,1.5.5c.4.3.7.8.9,1.4s.3,1.3.3,2.2-.1,1.6-.3,2.2c-.2.6-.5,1.1-.9,1.4s-.9.5-1.5.5-1.1-.2-1.5-.5-.8-.8-1-1.4c-.2-.6-.3-1.3-.3-2.2ZM117.7,610c0,.8.2,1.5.5,1.9.3.5.8.7,1.3.7s1-.2,1.3-.7c.3-.5.5-1.1.5-1.9s-.2-1.4-.5-1.9c-.3-.5-.7-.7-1.3-.7s-1,.2-1.3.7c-.3.5-.5,1.1-.5,1.9ZM121.4,610c0-.8,0-1.4.3-2,.2-.5.5-1,.9-1.3s.8-.4,1.3-.4,1,.2,1.4.5.7.7.9,1.3c.2.6.3,1.2.3,1.9s-.1,1.4-.3,1.9c-.2.6-.5,1-.9,1.3s-.9.5-1.4.5-1-.1-1.3-.4-.7-.7-.9-1.3c-.2-.6-.3-1.2-.3-2ZM122.3,610c0,.7.1,1.3.4,1.7s.7.6,1.1.6.9-.2,1.2-.6c.3-.4.4-1,.4-1.6s-.1-1.2-.4-1.6-.7-.6-1.2-.6-.9.2-1.1.6c-.3.4-.4.9-.4,1.6Z"/>
        <path class="st6" d="M123.3,615.5l2.8.7-.8.2c0-.3,0-.5.3-.7s.4-.3.7-.3.5,0,.7.3c.2.2.3.4.3.7s0,.5-.3.7c-.2.2-.4.3-.7.3s-.2,0-.3,0c0,0-.2,0-.3,0-.1,0-.3,0-.4-.2l-2-.7v-.9ZM123.3,618.2l2.8.7-.8.2c0-.3,0-.5.3-.7.2-.2.4-.3.7-.3s.5,0,.7.3c.2.2.3.4.3.7s0,.5-.3.7c-.2.2-.4.3-.7.3s-.2,0-.3,0-.2,0-.3,0c-.1,0-.3,0-.4-.2l-2-.7v-.9Z"/>
      </g>
      <g class="st7">
        <path class="st6" d="M347.8,512.8v-10.2h1.4v8.9h5.3v1.3h-6.7Z"/>
        <path class="st6" d="M359,512.9c-.7,0-1.4-.2-2-.5-.6-.3-1-.8-1.4-1.4s-.5-1.3-.5-2,.2-1.4.5-2,.8-1,1.4-1.4c.6-.3,1.2-.5,2-.5s1.4.2,2,.5,1,.8,1.4,1.4c.3.6.5,1.3.5,2s-.2,1.4-.5,2c-.3.6-.8,1.1-1.4,1.4s-1.2.5-2,.5ZM359,511.6c.5,0,.9-.1,1.3-.3.4-.2.7-.5.9-1s.3-.9.3-1.4-.1-1-.3-1.4-.5-.7-.9-.9c-.4-.2-.8-.3-1.3-.3s-.9.1-1.3.3c-.4.2-.7.5-.9.9-.2.4-.3.9-.3,1.4s.1,1,.3,1.4c.2.4.5.7.9,1,.4.2.8.3,1.3.3Z"/>
        <path class="st6" d="M367.9,512.9c-.6,0-1.2-.1-1.7-.4-.5-.2-.9-.6-1.1-1.1-.3-.5-.4-1.1-.4-1.9v-4.4h1.3v4.3c0,.8.2,1.3.5,1.7.3.4.8.6,1.5.6s.9,0,1.2-.3c.3-.2.6-.5.8-.9.2-.4.3-.8.3-1.4v-4h1.3v7.7h-1.3v-2.1l.2.6c-.2.5-.6.9-1.1,1.2-.5.3-1,.4-1.6.4Z"/>
        <path class="st6" d="M378.1,505c.6,0,1.1.1,1.6.4.5.2.8.6,1.1,1.1.3.5.4,1.1.4,1.9v4.4h-1.3v-4.3c0-.7-.2-1.3-.5-1.7-.3-.4-.8-.6-1.5-.6s-.9,0-1.2.3c-.4.2-.6.5-.8.9-.2.4-.3.8-.3,1.4v4h-1.3v-7.7h1.3v2.1l-.2-.6c.2-.5.6-.9,1.1-1.2.5-.3,1.1-.4,1.8-.4Z"/>
        <path class="st6" d="M386.8,512.4c-.7,0-1.4-.2-1.9-.5s-1-.8-1.3-1.3c-.3-.6-.5-1.2-.5-2s.2-1.4.5-2c.3-.6.8-1,1.3-1.3s1.2-.5,1.9-.5,1.2.1,1.7.4c.5.3.9.7,1.2,1.2.3.6.5,1.3.5,2.1s-.2,1.5-.5,2.1c-.3.6-.7,1-1.2,1.2-.5.3-1.1.4-1.7.4ZM386.9,515.7c-.7,0-1.3,0-2-.3-.6-.2-1.2-.5-1.6-.9l.6-1.1c.3.3.8.6,1.3.7s1,.3,1.6.3c.9,0,1.5-.2,1.9-.6s.6-1.1.6-2v-3.2c.1,0,0-1.5,0-1.5v-2.1h1.3v6.7c0,1.4-.3,2.4-1,3-.7.6-1.6,1-2.9,1ZM386.9,511.2c.5,0,.9-.1,1.3-.3.4-.2.7-.5.9-.9.2-.4.3-.8.3-1.3s-.1-.9-.3-1.3c-.2-.4-.5-.7-.9-.9-.4-.2-.8-.3-1.3-.3s-.9.1-1.3.3c-.4.2-.7.5-.9.9-.2.4-.3.8-.3,1.3s.1.9.3,1.3c.2.4.5.7.9.9.4.2.8.3,1.3.3Z"/>
        <path class="st6" d="M396.6,512.9c-.8,0-1.5-.2-2.1-.5-.6-.3-1.1-.8-1.4-1.4-.3-.6-.5-1.3-.5-2s.2-1.4.5-2c.3-.6.8-1.1,1.3-1.4s1.2-.5,1.9-.5,1.3.2,1.9.5c.5.3,1,.8,1.3,1.4.3.6.5,1.3.5,2.1s0,.1,0,.2c0,0,0,.2,0,.2h-6.3v-1h5.6l-.5.3c0-.5,0-.9-.3-1.3-.2-.4-.5-.7-.8-.9-.4-.2-.8-.3-1.2-.3s-.9.1-1.2.3c-.4.2-.6.5-.9.9-.2.4-.3.8-.3,1.3v.2c0,.5.1,1,.3,1.4.2.4.5.7,1,.9.4.2.9.3,1.4.3s.8,0,1.2-.2c.4-.2.7-.4.9-.7l.7.9c-.3.4-.8.7-1.2.9-.5.2-1.1.3-1.7.3Z"/>
        <path class="st6" d="M339.6,527.7v-1l5-6.7h1.5l-5,6.7-.7-.2h7.8v1.3h-8.6ZM345,530.2v-3.8s0-2.2,0-2.2h1.3v6h-1.4Z"/>
        <path class="st6" d="M349.2,532.4l.7-2.9.2.8c-.3,0-.5,0-.7-.3-.2-.2-.3-.4-.3-.7s0-.5.3-.7c.2-.2.4-.3.7-.3s.5,0,.7.3c.2.2.3.4.3.7s0,.2,0,.3c0,0,0,.2,0,.3,0,.1,0,.3-.1.4l-.7,2h-.9Z"/>
        <path class="st6" d="M353.9,530.2l4.1-9.6.4.7h-5.8l.7-.7v2.5h-1.3v-3.1h7.4v1l-4,9.2h-1.5Z"/>
        <path class="st6" d="M362.3,530.2v-9.6l.6.7h-2.8v-1.3h3.6v10.2h-1.4Z"/>
        <path class="st6" d="M365.6,530.2v-1l4-4c.4-.3.6-.7.8-.9.2-.3.3-.5.3-.7,0-.2,0-.4,0-.7,0-.5-.2-.9-.5-1.2-.4-.3-.9-.5-1.5-.5s-1,0-1.4.3-.8.5-1.1.8l-.9-.9c.4-.5.9-.9,1.5-1.1.6-.3,1.3-.4,2.1-.4s1.3.1,1.8.3c.5.2.9.6,1.2,1,.3.4.4.9.4,1.5s0,.7-.1,1c0,.3-.2.7-.5,1-.2.4-.6.8-1,1.2l-3.5,3.6-.3-.6h5.9v1.3h-7Z"/>
        <path class="st6" d="M380.3,530.3c-.6,0-1.2,0-1.8-.3s-1-.4-1.3-.6l.6-1.1c.3.2.7.4,1.2.6s.9.2,1.4.2,1.1,0,1.3-.3c.3-.2.4-.4.4-.8s0-.4-.3-.6c-.2-.1-.4-.2-.7-.3-.3,0-.6-.1-.9-.2-.3,0-.7-.1-1-.2-.3,0-.6-.2-.9-.3s-.5-.4-.7-.6-.3-.6-.3-1.1.1-.9.4-1.2c.3-.3.6-.6,1.1-.8.5-.2,1-.3,1.6-.3s1,0,1.5.2c.5.1.9.3,1.2.5l-.6,1.1c-.3-.2-.7-.4-1-.5-.4,0-.7-.1-1.1-.1-.6,0-1,0-1.3.3-.3.2-.4.5-.4.8s0,.5.3.6c.2.1.4.2.7.3.3,0,.6.1.9.2.3,0,.7.1,1,.2.3,0,.6.2.9.3s.5.3.7.6c.2.3.3.6.3,1s-.1.9-.4,1.2c-.3.3-.6.6-1.1.8s-1,.3-1.7.3Z"/>
        <path class="st6" d="M388.2,530.3c-.7,0-1.4-.2-1.9-.5s-1-.8-1.3-1.4-.5-1.3-.5-2.1.2-1.5.5-2.1.8-1,1.3-1.4,1.2-.5,1.9-.5,1.2.1,1.7.4c.5.3.9.7,1.2,1.3s.4,1.3.4,2.2-.2,1.6-.5,2.2-.7,1-1.2,1.3c-.5.3-1.1.4-1.7.4ZM388.3,529.1c.5,0,.9-.1,1.3-.3.4-.2.7-.5.9-1,.2-.4.3-.9.3-1.4s-.1-1-.3-1.4c-.2-.4-.5-.7-.9-.9-.4-.2-.8-.3-1.3-.3s-.9.1-1.3.3c-.4.2-.7.5-.9.9-.2.4-.3.9-.3,1.4s.1,1,.3,1.4c.2.4.5.7.9,1,.4.2.8.3,1.3.3ZM390.8,533.1v-6.7c.1,0,0-1.8,0-1.8v-2.1h1.3v10.5h-1.3Z"/>
        <path class="st6" d="M397.3,523.7v-1.1h4.7v1.1h-4.7ZM398.6,530.2v-8.4c0-.8.2-1.4.6-1.8.4-.5,1-.7,1.8-.7s.6,0,.8.1c.3,0,.5.2.7.3l-.4,1.1c-.1-.1-.3-.2-.5-.3-.2,0-.4,0-.6,0-.4,0-.7.1-.9.3-.2.2-.3.6-.3,1v1.7s0,6.7,0,6.7h-1.3Z"/>
        <path class="st6" d="M402.3,523.7v-1.1h4.7v1.1h-4.7ZM405.9,530.3c-.7,0-1.3-.2-1.7-.6-.4-.4-.6-1-.6-1.8v-7.1h1.3v7c0,.4,0,.7.3,1,.2.2.5.3.9.3s.8-.1,1-.4l.4,1c-.2.2-.4.3-.7.4-.3,0-.6.1-.9.1Z"/>
      </g>
      <g class="st7">
        <path class="st6" d="M702.2,436.5c-.7,0-1.4-.1-2.1-.4-.6-.3-1.2-.6-1.6-1.1s-.8-1-1.1-1.7-.4-1.3-.4-2.1.1-1.5.4-2.1.6-1.2,1.1-1.7c.5-.5,1-.8,1.6-1.1s1.3-.4,2.1-.4,1.4.1,2.1.4,1.2.7,1.6,1.2l-.9.9c-.4-.4-.8-.7-1.3-.9-.5-.2-1-.3-1.5-.3s-1.1,0-1.5.3c-.5.2-.9.5-1.2.8-.3.3-.6.8-.8,1.2-.2.5-.3,1-.3,1.6s0,1.1.3,1.6c.2.5.5.9.8,1.2.3.3.8.6,1.2.8s1,.3,1.5.3,1,0,1.5-.3c.5-.2.9-.5,1.3-.9l.9.9c-.4.5-1,.9-1.6,1.2s-1.3.4-2.1.4Z"/>
        <path class="st6" d="M710.6,436.5c-.7,0-1.4-.2-2-.5-.6-.3-1-.8-1.4-1.4s-.5-1.3-.5-2,.2-1.4.5-2,.8-1,1.4-1.4c.6-.3,1.2-.5,2-.5s1.4.2,2,.5,1,.8,1.4,1.4c.3.6.5,1.3.5,2s-.2,1.4-.5,2-.8,1.1-1.4,1.4-1.2.5-2,.5ZM710.6,435.3c.5,0,.9-.1,1.3-.3.4-.2.7-.5.9-1s.3-.9.3-1.4-.1-1-.3-1.4-.5-.7-.9-.9c-.4-.2-.8-.3-1.3-.3s-.9.1-1.3.3c-.4.2-.7.5-.9.9s-.3.9-.3,1.4.1,1,.3,1.4.5.7.9,1c.4.2.8.3,1.3.3Z"/>
        <path class="st6" d="M718.2,436.5c-.5,0-1,0-1.4-.3-.4-.2-.7-.5-1-.8-.2-.3-.3-.7-.3-1.2s0-.8.3-1.1c.2-.3.5-.6.9-.8.4-.2,1-.3,1.8-.3h2.3v1h-2.3c-.7,0-1.1.1-1.4.3-.2.2-.3.5-.3.8s.1.7.4.9c.3.2.7.3,1.2.3s.9-.1,1.3-.3.6-.6.8-1l.3,1c-.2.5-.5.8-.9,1.1-.4.3-1,.4-1.7.4ZM720.6,436.4v-1.9c0,0,0-2.8,0-2.8,0-.6-.2-1.1-.5-1.4-.3-.3-.8-.5-1.5-.5s-.9,0-1.3.2-.8.4-1.1.6l-.6-1c.4-.3.8-.6,1.4-.7s1.1-.3,1.7-.3c1,0,1.8.3,2.3.8s.8,1.3.8,2.4v4.7h-1.3Z"/>
        <path class="st6" d="M723,429.8v-1.1h4.7v1.1h-4.7ZM726.6,436.5c-.7,0-1.3-.2-1.7-.6-.4-.4-.6-1-.6-1.8v-7.1h1.3v7c0,.4,0,.7.3,1,.2.2.5.3.9.3s.8-.1,1-.4l.4,1c-.2.2-.4.3-.7.4-.3,0-.6.1-.9.1Z"/>
        <path class="st6" d="M737.7,436.5c-.7,0-1.4-.1-2.1-.4-.6-.3-1.2-.6-1.6-1.1s-.8-1-1.1-1.7-.4-1.3-.4-2.1.1-1.5.4-2.1.6-1.2,1.1-1.7c.5-.5,1-.8,1.6-1.1s1.3-.4,2.1-.4,1.4.1,2.1.4,1.2.7,1.6,1.2l-.9.9c-.4-.4-.8-.7-1.3-.9-.5-.2-1-.3-1.5-.3s-1.1,0-1.5.3c-.5.2-.9.5-1.2.8-.3.3-.6.8-.8,1.2-.2.5-.3,1-.3,1.6s0,1.1.3,1.6c.2.5.5.9.8,1.2.3.3.8.6,1.2.8s1,.3,1.5.3,1,0,1.5-.3c.5-.2.9-.5,1.3-.9l.9.9c-.4.5-1,.9-1.6,1.2s-1.3.4-2.1.4Z"/>
        <path class="st6" d="M746.9,428.6c.6,0,1.1.1,1.6.4.5.2.8.6,1.1,1.1.3.5.4,1.1.4,1.9v4.4h-1.3v-4.3c0-.7-.2-1.3-.5-1.7-.3-.4-.8-.6-1.5-.6s-.9,0-1.2.3-.6.5-.8.9-.3.8-.3,1.4v4h-1.3v-10.8h1.3v5.2l-.3-.6c.2-.5.6-.9,1.1-1.2.5-.3,1.1-.4,1.8-.4Z"/>
        <path class="st6" d="M755.5,436.5c-.8,0-1.5-.2-2.1-.5-.6-.3-1.1-.8-1.4-1.4-.3-.6-.5-1.3-.5-2s.2-1.4.5-2c.3-.6.8-1.1,1.3-1.4.6-.3,1.2-.5,1.9-.5s1.3.2,1.9.5c.5.3,1,.8,1.3,1.4.3.6.5,1.3.5,2.1s0,.1,0,.2c0,0,0,.2,0,.2h-6.3v-1h5.6l-.5.3c0-.5,0-.9-.3-1.3-.2-.4-.5-.7-.8-.9-.4-.2-.8-.3-1.2-.3s-.9.1-1.2.3c-.4.2-.6.5-.9.9-.2.4-.3.8-.3,1.3v.2c0,.5.1,1,.3,1.4.2.4.5.7,1,.9.4.2.9.3,1.4.3s.8,0,1.2-.2.7-.4.9-.7l.7.9c-.3.4-.8.7-1.2.9-.5.2-1.1.3-1.7.3Z"/>
        <path class="st6" d="M763.7,436.5c-.8,0-1.4-.2-2-.5s-1.1-.8-1.4-1.4-.5-1.3-.5-2,.2-1.4.5-2c.3-.6.8-1.1,1.4-1.4s1.3-.5,2-.5,1.3.1,1.8.4c.5.3.9.7,1.2,1.2l-1,.7c-.2-.4-.5-.7-.9-.8s-.7-.3-1.1-.3-.9.1-1.3.3c-.4.2-.7.5-.9.9s-.3.9-.3,1.4.1,1,.3,1.4.5.7.9.9c.4.2.8.3,1.3.3s.8,0,1.1-.3.6-.5.9-.8l1,.7c-.3.5-.7.9-1.2,1.2-.5.3-1.1.4-1.8.4Z"/>
        <path class="st6" d="M768.2,436.4v-10.8h1.3v10.8h-1.3ZM769.2,434.5v-1.8s4.3-4.1,4.3-4.1h1.6l-3.3,3.3-.7.6-1.9,1.9ZM773.8,436.4l-2.9-3.8.9-1.1,3.7,4.9h-1.6Z"/>
        <path class="st6" d="M716.4,451.2v-10.2h3.8c.9,0,1.6.1,2.2.4.6.3,1.1.7,1.4,1.2.3.5.5,1.2.5,1.9s-.2,1.4-.5,1.9c-.3.5-.8.9-1.4,1.2-.6.3-1.3.4-2.2.4h-3l.6-.7v3.8h-1.4ZM717.8,447.6l-.6-.7h3c.9,0,1.6-.2,2-.6.5-.4.7-1,.7-1.7s-.2-1.3-.7-1.7c-.5-.4-1.1-.6-2-.6h-3l.6-.7v6ZM723,451.2l-2.5-3.7h1.5l2.5,3.7h-1.5Z"/>
        <path class="st6" d="M729.3,451.3c-.7,0-1.4-.2-2-.5-.6-.3-1-.8-1.4-1.4s-.5-1.3-.5-2,.2-1.4.5-2,.8-1,1.4-1.4c.6-.3,1.2-.5,2-.5s1.4.2,2,.5,1,.8,1.4,1.4c.3.6.5,1.3.5,2s-.2,1.4-.5,2-.8,1.1-1.4,1.4-1.2.5-2,.5ZM729.3,450.1c.5,0,.9-.1,1.3-.3.4-.2.7-.5.9-1s.3-.9.3-1.4-.1-1-.3-1.4-.5-.7-.9-.9c-.4-.2-.8-.3-1.3-.3s-.9.1-1.3.3c-.4.2-.7.5-.9.9s-.3.9-.3,1.4.1,1,.3,1.4.5.7.9,1c.4.2.8.3,1.3.3Z"/>
        <path class="st6" d="M737.9,451.3c-.7,0-1.4-.2-2-.5-.6-.3-1-.8-1.4-1.4s-.5-1.3-.5-2,.2-1.4.5-2,.8-1,1.4-1.4c.6-.3,1.2-.5,2-.5s1.4.2,2,.5,1,.8,1.4,1.4c.3.6.5,1.3.5,2s-.2,1.4-.5,2-.8,1.1-1.4,1.4-1.2.5-2,.5ZM737.9,450.1c.5,0,.9-.1,1.3-.3.4-.2.7-.5.9-1s.3-.9.3-1.4-.1-1-.3-1.4-.5-.7-.9-.9c-.4-.2-.8-.3-1.3-.3s-.9.1-1.3.3c-.4.2-.7.5-.9.9s-.3.9-.3,1.4.1,1,.3,1.4.5.7.9,1c.4.2.8.3,1.3.3Z"/>
        <path class="st6" d="M752.6,443.4c.6,0,1.1.1,1.6.4.5.2.8.6,1.1,1.1.3.5.4,1.1.4,1.9v4.4h-1.3v-4.3c0-.7-.2-1.3-.5-1.7-.3-.4-.8-.6-1.4-.6s-.8,0-1.2.3-.6.5-.8.9-.3.8-.3,1.4v4h-1.3v-4.3c0-.7-.2-1.3-.5-1.7-.3-.4-.8-.6-1.4-.6s-.8,0-1.2.3-.6.5-.8.9c-.2.4-.3.8-.3,1.4v4h-1.3v-7.7h1.3v2.1l-.2-.5c.2-.5.6-.9,1.1-1.2.5-.3,1-.4,1.7-.4s1.3.2,1.8.5c.5.4.8.9,1,1.7l-.5-.2c.2-.6.6-1.1,1.2-1.4.6-.4,1.2-.5,2-.5Z"/>
      </g>
      <g class="st7">
        <path class="st6" d="M1039.3,439c-.7,0-1.4-.1-2.1-.4-.6-.3-1.2-.6-1.6-1.1s-.8-1-1.1-1.7-.4-1.3-.4-2.1.1-1.5.4-2.1.6-1.2,1.1-1.7c.5-.5,1-.8,1.6-1.1s1.3-.4,2.1-.4,1.4.1,2.1.4,1.2.7,1.6,1.2l-.9.9c-.4-.4-.8-.7-1.3-.9-.5-.2-1-.3-1.5-.3s-1.1,0-1.5.3c-.5.2-.9.5-1.2.8-.3.3-.6.8-.8,1.2-.2.5-.3,1-.3,1.6s0,1.1.3,1.6c.2.5.5.9.8,1.2.3.3.8.6,1.2.8s1,.3,1.5.3,1,0,1.5-.3c.5-.2.9-.5,1.3-.9l.9.9c-.4.5-1,.9-1.6,1.2s-1.3.4-2.1.4Z"/>
        <path class="st6" d="M1048,439c-.7,0-1.4-.2-2-.5-.6-.3-1-.8-1.4-1.4s-.5-1.3-.5-2,.2-1.4.5-2,.8-1,1.4-1.4c.6-.3,1.2-.5,2-.5s1.4.2,2,.5,1,.8,1.4,1.4c.3.6.5,1.3.5,2s-.2,1.4-.5,2-.8,1.1-1.4,1.4-1.2.5-2,.5ZM1048,437.8c.5,0,.9-.1,1.3-.3.4-.2.7-.5.9-1s.3-.9.3-1.4-.1-1-.3-1.4-.5-.7-.9-.9c-.4-.2-.8-.3-1.3-.3s-.9.1-1.3.3c-.4.2-.7.5-.9.9s-.3.9-.3,1.4.1,1,.3,1.4.5.7.9,1c.4.2.8.3,1.3.3Z"/>
        <path class="st6" d="M1057.6,431.1c.6,0,1.1.1,1.6.4.5.2.8.6,1.1,1.1.3.5.4,1.1.4,1.9v4.4h-1.3v-4.3c0-.7-.2-1.3-.5-1.7-.3-.4-.8-.6-1.5-.6s-.9,0-1.2.3-.6.5-.8.9-.3.8-.3,1.4v4h-1.3v-7.7h1.3v2.1l-.2-.6c.2-.5.6-.9,1.1-1.2.5-.3,1.1-.4,1.8-.4Z"/>
        <path class="st6" d="M1062.1,432.4v-1.1h4.7v1.1h-4.7ZM1063.4,438.9v-8.4c0-.8.2-1.4.6-1.8.4-.5,1-.7,1.8-.7s.6,0,.8.1c.3,0,.5.2.7.3l-.4,1.1c-.1-.1-.3-.2-.5-.3-.2,0-.4,0-.6,0-.4,0-.7.1-.9.3-.2.2-.3.6-.3,1v1.7s0,6.7,0,6.7h-1.3Z"/>
        <path class="st6" d="M1068.4,439c-.3,0-.5,0-.7-.3-.2-.2-.3-.4-.3-.7s0-.5.3-.7c.2-.2.4-.3.7-.3s.5,0,.6.3.3.4.3.7,0,.5-.3.7-.4.3-.6.3Z"/>
        <path class="st6" d="M1025.3,453.7v-10.2h3.8c.9,0,1.6.1,2.2.4.6.3,1.1.7,1.4,1.2.3.5.5,1.2.5,1.9s-.2,1.4-.5,1.9c-.3.5-.8.9-1.4,1.2-.6.3-1.3.4-2.2.4h-3l.6-.7v3.8h-1.4ZM1026.7,450.1l-.6-.7h3c.9,0,1.6-.2,2-.6.5-.4.7-1,.7-1.7s-.2-1.3-.7-1.7c-.5-.4-1.1-.6-2-.6h-3l.6-.7v6ZM1031.9,453.7l-2.5-3.7h1.5l2.5,3.7h-1.5Z"/>
        <path class="st6" d="M1038.5,453.8c-.7,0-1.4-.2-2-.5-.6-.3-1-.8-1.4-1.4s-.5-1.3-.5-2,.2-1.4.5-2,.8-1,1.4-1.4c.6-.3,1.2-.5,2-.5s1.4.2,2,.5,1,.8,1.4,1.4c.3.6.5,1.3.5,2s-.2,1.4-.5,2-.8,1.1-1.4,1.4-1.2.5-2,.5ZM1038.5,452.6c.5,0,.9-.1,1.3-.3.4-.2.7-.5.9-1s.3-.9.3-1.4-.1-1-.3-1.4-.5-.7-.9-.9c-.4-.2-.8-.3-1.3-.3s-.9.1-1.3.3c-.4.2-.7.5-.9.9s-.3.9-.3,1.4.1,1,.3,1.4.5.7.9,1c.4.2.8.3,1.3.3Z"/>
        <path class="st6" d="M1047.3,453.8c-.7,0-1.4-.2-2-.5-.6-.3-1-.8-1.4-1.4s-.5-1.3-.5-2,.2-1.4.5-2,.8-1,1.4-1.4c.6-.3,1.2-.5,2-.5s1.4.2,2,.5,1,.8,1.4,1.4c.3.6.5,1.3.5,2s-.2,1.4-.5,2-.8,1.1-1.4,1.4-1.2.5-2,.5ZM1047.3,452.6c.5,0,.9-.1,1.3-.3.4-.2.7-.5.9-1s.3-.9.3-1.4-.1-1-.3-1.4-.5-.7-.9-.9c-.4-.2-.8-.3-1.3-.3s-.9.1-1.3.3c-.4.2-.7.5-.9.9s-.3.9-.3,1.4.1,1,.3,1.4.5.7.9,1c.4.2.8.3,1.3.3Z"/>
        <path class="st6" d="M1062.3,446c.6,0,1.1.1,1.6.4.5.2.8.6,1.1,1.1.3.5.4,1.1.4,1.9v4.4h-1.3v-4.3c0-.7-.2-1.3-.5-1.7-.3-.4-.8-.6-1.4-.6s-.8,0-1.2.3-.6.5-.8.9-.3.8-.3,1.4v4h-1.3v-4.3c0-.7-.2-1.3-.5-1.7-.3-.4-.8-.6-1.4-.6s-.8,0-1.2.3-.6.5-.8.9c-.2.4-.3.8-.3,1.4v4h-1.3v-7.7h1.3v2.1l-.2-.5c.2-.5.6-.9,1.1-1.2.5-.3,1-.4,1.7-.4s1.3.2,1.8.5c.5.4.8.9,1,1.7l-.5-.2c.2-.6.6-1.1,1.2-1.4.6-.4,1.2-.5,2-.5Z"/>
        <path class="st6" d="M1070.8,451.2v-1l5-6.7h1.5l-5,6.7-.7-.2h7.8v1.3h-8.6ZM1076.2,453.7v-3.8s0-2.2,0-2.2h1.3v6h-1.4Z"/>
        <path class="st6" d="M1027.7,468.6v-9.6l.6.7h-2.8v-1.3h3.6v10.2h-1.4Z"/>
        <path class="st6" d="M1035.3,468.7c-.9,0-1.6-.2-2.2-.6-.6-.4-1.1-1-1.4-1.7s-.5-1.7-.5-2.8.2-2.1.6-2.9c.4-.8.9-1.4,1.6-1.8s1.5-.6,2.4-.6.9,0,1.3.1c.4,0,.8.2,1.1.5l-.5,1.1c-.3-.2-.5-.3-.9-.4-.3,0-.7-.1-1-.1-1,0-1.8.3-2.4,1-.6.6-.9,1.6-.9,2.9s0,.4,0,.7,0,.6.1.8l-.5-.5c.1-.4.4-.8.7-1.1s.7-.5,1.1-.7c.4-.2.9-.2,1.4-.2s1.2.1,1.7.4c.5.3.9.6,1.2,1.1.3.5.4,1,.4,1.6s-.2,1.2-.5,1.7c-.3.5-.7.9-1.2,1.1-.5.3-1.1.4-1.8.4ZM1035.2,467.5c.4,0,.8,0,1.1-.2s.6-.4.8-.7.3-.6.3-1c0-.6-.2-1.1-.6-1.4-.4-.4-.9-.5-1.6-.5s-.8,0-1.2.3-.6.4-.8.7c-.2.3-.3.6-.3,1s0,.7.3,1,.4.5.8.7c.3.2.8.3,1.3.3Z"/>
        <path class="st6" d="M1043,468.7c-.7,0-1.4-.1-2-.3-.6-.2-1.2-.5-1.6-.9l.6-1.1c.3.3.7.6,1.3.8s1.1.3,1.7.3,1.3-.2,1.7-.5c.4-.3.6-.8.6-1.3s0-.7-.3-1-.5-.5-.9-.6c-.4-.1-1-.2-1.8-.2h-2.2l.5-5.3h5.5v1.3h-5l.7-.7-.4,4.2-.7-.7h1.9c1,0,1.8.1,2.4.4.6.3,1,.6,1.3,1.1.3.5.4,1,.4,1.6s-.1,1.1-.4,1.6c-.3.5-.7.9-1.2,1.2-.5.3-1.2.4-2.1.4Z"/>
        <path class="st6" d="M1054.3,468.6c-.6,0-1.2,0-1.8-.3-.6-.2-1-.4-1.3-.6l.6-1.1c.3.2.7.4,1.2.6.5.2.9.2,1.4.2s1.1,0,1.3-.3c.3-.2.4-.4.4-.8s0-.4-.3-.6c-.2-.1-.4-.2-.7-.3-.3,0-.6-.1-.9-.2-.3,0-.7-.1-1-.2-.3,0-.6-.2-.9-.3-.3-.2-.5-.4-.7-.6-.2-.3-.3-.6-.3-1.1s.1-.9.4-1.2c.3-.3.6-.6,1.1-.8.5-.2,1-.3,1.6-.3s1,0,1.5.2c.5.1.9.3,1.2.5l-.6,1.1c-.3-.2-.7-.4-1-.5-.4,0-.7-.1-1.1-.1-.6,0-1,0-1.3.3-.3.2-.4.5-.4.8s0,.5.3.6c.2.1.4.2.7.3.3,0,.6.1.9.2s.7.1,1,.2c.3,0,.6.2.9.3s.5.3.7.6c.2.3.3.6.3,1s-.1.9-.4,1.2c-.3.3-.6.6-1.1.8s-1,.3-1.7.3Z"/>
        <path class="st6" d="M1062.2,468.6c-.7,0-1.4-.2-1.9-.5-.6-.3-1-.8-1.3-1.4-.3-.6-.5-1.3-.5-2.1s.2-1.5.5-2.1c.3-.6.8-1,1.3-1.4.6-.3,1.2-.5,1.9-.5s1.2.1,1.7.4c.5.3.9.7,1.2,1.3.3.6.4,1.3.4,2.2s-.2,1.6-.5,2.2-.7,1-1.2,1.3c-.5.3-1.1.4-1.7.4ZM1062.3,467.4c.5,0,.9-.1,1.3-.3.4-.2.7-.5.9-1s.3-.9.3-1.4-.1-1-.3-1.4-.5-.7-.9-.9c-.4-.2-.8-.3-1.3-.3s-.9.1-1.3.3c-.4.2-.7.5-.9.9s-.3.9-.3,1.4.1,1,.3,1.4.5.7.9,1c.4.2.8.3,1.3.3ZM1064.8,471.4v-6.7c.1,0,0-1.8,0-1.8v-2.1h1.3v10.5h-1.3Z"/>
        <path class="st6" d="M1067.6,462v-1.1h4.7v1.1h-4.7ZM1068.9,468.6v-8.4c0-.8.2-1.4.6-1.8.4-.5,1-.7,1.8-.7s.6,0,.8.1c.3,0,.5.2.7.3l-.4,1.1c-.1-.1-.3-.2-.5-.3-.2,0-.4,0-.6,0-.4,0-.7.1-.9.3-.2.2-.3.6-.3,1v1.7s0,6.7,0,6.7h-1.3Z"/>
        <path class="st6" d="M1072.5,462v-1.1h4.7v1.1h-4.7ZM1076.1,468.6c-.7,0-1.3-.2-1.7-.6-.4-.4-.6-1-.6-1.8v-7.1h1.3v7c0,.4,0,.7.3,1,.2.2.5.3.9.3s.8-.1,1-.4l.4,1c-.2.2-.4.3-.7.4-.3,0-.6.1-.9.1Z"/>
      </g>
      <g class="st7">
        <path class="st6" d="M801.5,530c-.7,0-1.4-.1-2.1-.4-.6-.3-1.2-.6-1.6-1.1s-.8-1-1.1-1.7-.4-1.3-.4-2.1.1-1.5.4-2.1.6-1.2,1.1-1.7c.5-.5,1-.8,1.6-1.1s1.3-.4,2.1-.4,1.4.1,2.1.4,1.2.7,1.6,1.2l-.9.9c-.4-.4-.8-.7-1.3-.9-.5-.2-1-.3-1.5-.3s-1.1,0-1.5.3c-.5.2-.9.5-1.2.8-.3.3-.6.8-.8,1.2-.2.5-.3,1-.3,1.6s0,1.1.3,1.6c.2.5.5.9.8,1.2.3.3.8.6,1.2.8s1,.3,1.5.3,1,0,1.5-.3c.5-.2.9-.5,1.3-.9l.9.9c-.4.5-1,.9-1.6,1.2s-1.3.4-2.1.4Z"/>
        <path class="st6" d="M810.2,530c-.7,0-1.4-.2-2-.5-.6-.3-1-.8-1.4-1.4s-.5-1.3-.5-2,.2-1.4.5-2,.8-1,1.4-1.4c.6-.3,1.2-.5,2-.5s1.4.2,2,.5,1,.8,1.4,1.4c.3.6.5,1.3.5,2s-.2,1.4-.5,2-.8,1.1-1.4,1.4-1.2.5-2,.5ZM810.2,528.7c.5,0,.9-.1,1.3-.3.4-.2.7-.5.9-1s.3-.9.3-1.4-.1-1-.3-1.4-.5-.7-.9-.9c-.4-.2-.8-.3-1.3-.3s-.9.1-1.3.3c-.4.2-.7.5-.9.9s-.3.9-.3,1.4.1,1,.3,1.4.5.7.9,1c.4.2.8.3,1.3.3Z"/>
        <path class="st6" d="M815.9,529.9v-7.7h1.3v2.1-.5c0-.5.4-.9.9-1.2.5-.3,1.1-.4,1.8-.4v1.4c0,0-.1,0-.2,0h-.1c-.7,0-1.3.2-1.7.7s-.6,1.1-.6,1.9v3.8h-1.3Z"/>
        <path class="st6" d="M821.6,529.9v-7.7h1.3v2.1-.5c0-.5.4-.9.9-1.2.5-.3,1.1-.4,1.8-.4v1.4c0,0-.1,0-.2,0h-.1c-.7,0-1.3.2-1.7.7s-.6,1.1-.6,1.9v3.8h-1.3Z"/>
        <path class="st6" d="M828,520.7c-.3,0-.5,0-.6-.3s-.3-.4-.3-.6,0-.5.3-.7.4-.3.6-.3.5,0,.6.3c.2.2.3.4.3.6s0,.5-.3.7c-.2.2-.4.3-.7.3ZM827.3,529.9v-7.7h1.3v7.7h-1.3Z"/>
        <path class="st6" d="M834.3,530c-.7,0-1.4-.2-1.9-.5-.6-.3-1-.8-1.3-1.4-.3-.6-.5-1.3-.5-2.1s.2-1.5.5-2.1c.3-.6.8-1,1.3-1.4.6-.3,1.2-.5,1.9-.5s1.2.1,1.7.4c.5.3.9.7,1.2,1.3s.5,1.3.5,2.2-.1,1.6-.4,2.2c-.3.6-.7,1-1.2,1.3-.5.3-1.1.4-1.7.4ZM834.4,528.7c.5,0,.9-.1,1.3-.3.4-.2.7-.5.9-1s.3-.9.3-1.4-.1-1-.3-1.4-.5-.7-.9-.9c-.4-.2-.8-.3-1.3-.3s-.9.1-1.3.3c-.4.2-.7.5-.9.9s-.3.9-.3,1.4.1,1,.3,1.4.5.7.9,1c.4.2.8.3,1.3.3ZM836.9,529.9v-3.9c0,0,0-1.8,0-1.8v-5.1h1.3v10.8h-1.3Z"/>
        <path class="st6" d="M843.9,530c-.7,0-1.4-.2-2-.5-.6-.3-1-.8-1.4-1.4s-.5-1.3-.5-2,.2-1.4.5-2,.8-1,1.4-1.4c.6-.3,1.2-.5,2-.5s1.4.2,2,.5,1,.8,1.4,1.4c.3.6.5,1.3.5,2s-.2,1.4-.5,2-.8,1.1-1.4,1.4-1.2.5-2,.5ZM843.9,528.7c.5,0,.9-.1,1.3-.3.4-.2.7-.5.9-1s.3-.9.3-1.4-.1-1-.3-1.4-.5-.7-.9-.9c-.4-.2-.8-.3-1.3-.3s-.9.1-1.3.3c-.4.2-.7.5-.9.9s-.3.9-.3,1.4.1,1,.3,1.4.5.7.9,1c.4.2.8.3,1.3.3Z"/>
        <path class="st6" d="M849.6,529.9v-7.7h1.3v2.1-.5c0-.5.4-.9.9-1.2.5-.3,1.1-.4,1.8-.4v1.4c0,0-.1,0-.2,0h-.1c-.7,0-1.3.2-1.7.7s-.6,1.1-.6,1.9v3.8h-1.3Z"/>
        <path class="st6" d="M861.5,530c-.7,0-1.4-.1-2-.3-.6-.2-1.2-.5-1.6-.9l.6-1.1c.3.3.7.6,1.3.8.5.2,1.1.3,1.7.3s1.3-.2,1.7-.5c.4-.3.6-.8.6-1.3s-.2-1-.6-1.3c-.4-.3-1-.5-1.8-.5h-.8v-1l2.9-3.7.2.6h-5.3v-1.3h6.4v1l-2.9,3.7-.7-.5h.5c1.2,0,2.1.3,2.7.8s.9,1.3.9,2.1-.1,1.1-.4,1.6c-.3.5-.7.9-1.2,1.1-.5.3-1.2.4-2.1.4Z"/>
        <path class="st6" d="M806.4,544.8c-.7,0-1.4-.1-2-.3-.6-.2-1.2-.5-1.6-.9l.6-1.1c.3.3.7.6,1.3.8s1.1.3,1.7.3,1.3-.2,1.7-.5c.4-.3.6-.8.6-1.3s0-.7-.3-1-.5-.5-.9-.6c-.4-.1-1-.2-1.8-.2h-2.2l.5-5.3h5.5v1.3h-5l.7-.7-.4,4.2-.7-.7h1.9c1,0,1.8.1,2.4.4.6.3,1,.6,1.3,1.1.3.5.4,1,.4,1.6s-.1,1.1-.4,1.6c-.3.5-.7.9-1.2,1.2-.5.3-1.2.4-2.1.4Z"/>
        <path class="st6" d="M811.1,544.7v-1l4-4c.4-.3.6-.7.8-.9.2-.3.3-.5.3-.7,0-.2,0-.4,0-.7,0-.5-.2-.9-.5-1.2s-.9-.5-1.5-.5-1,0-1.4.3-.8.5-1.1.8l-.9-.9c.4-.5.9-.9,1.5-1.1.6-.3,1.3-.4,2.1-.4s1.3.1,1.8.3c.5.2.9.6,1.2,1s.4.9.4,1.5,0,.7-.1,1c0,.3-.2.7-.5,1-.2.4-.6.8-1,1.2l-3.5,3.6-.3-.6h5.9v1.3h-7Z"/>
        <path class="st6" d="M823.3,544.8c-.8,0-1.4-.2-2-.6-.6-.4-1.1-1-1.4-1.8s-.5-1.7-.5-2.8.2-2,.5-2.8.8-1.4,1.4-1.8,1.3-.6,2-.6,1.4.2,2,.6,1.1,1,1.4,1.8.5,1.7.5,2.8-.2,2-.5,2.8-.8,1.4-1.4,1.8c-.6.4-1.3.6-2,.6ZM823.3,543.5c.5,0,1-.1,1.3-.4.4-.3.7-.7.9-1.3.2-.6.3-1.3.3-2.2s-.1-1.6-.3-2.2c-.2-.6-.5-1-.9-1.3-.4-.3-.8-.4-1.3-.4s-1,.1-1.4.4c-.4.3-.7.7-.9,1.3-.2.6-.3,1.3-.3,2.2s.1,1.6.3,2.2c.2.6.5,1,.9,1.3.4.3.8.4,1.4.4Z"/>
        <path class="st6" d="M835.1,544.8c-.6,0-1.2,0-1.8-.3-.6-.2-1-.4-1.3-.6l.6-1.1c.3.2.7.4,1.2.6.5.2.9.2,1.4.2s1.1,0,1.3-.3c.3-.2.4-.4.4-.8s0-.4-.3-.6c-.2-.1-.4-.2-.7-.3-.3,0-.6-.1-.9-.2-.3,0-.7-.1-1-.2-.3,0-.6-.2-.9-.3-.3-.2-.5-.4-.7-.6-.2-.3-.3-.6-.3-1.1s.1-.9.4-1.2c.3-.3.6-.6,1.1-.8.5-.2,1-.3,1.6-.3s1,0,1.5.2c.5.1.9.3,1.2.5l-.6,1.1c-.3-.2-.7-.4-1-.5-.4,0-.7-.1-1.1-.1-.6,0-1,0-1.3.3-.3.2-.4.5-.4.8s0,.5.3.6c.2.1.4.2.7.3.3,0,.6.1.9.2s.7.1,1,.2c.3,0,.6.2.9.3s.5.3.7.6c.2.3.3.6.3,1s-.1.9-.4,1.2c-.3.3-.6.6-1.1.8s-1,.3-1.7.3Z"/>
        <path class="st6" d="M843,544.8c-.7,0-1.4-.2-1.9-.5-.6-.3-1-.8-1.3-1.4-.3-.6-.5-1.3-.5-2.1s.2-1.5.5-2.1c.3-.6.8-1,1.3-1.4.6-.3,1.2-.5,1.9-.5s1.2.1,1.7.4c.5.3.9.7,1.2,1.3.3.6.4,1.3.4,2.2s-.2,1.6-.5,2.2-.7,1-1.2,1.3c-.5.3-1.1.4-1.7.4ZM843.1,543.6c.5,0,.9-.1,1.3-.3.4-.2.7-.5.9-1s.3-.9.3-1.4-.1-1-.3-1.4-.5-.7-.9-.9c-.4-.2-.8-.3-1.3-.3s-.9.1-1.3.3c-.4.2-.7.5-.9.9s-.3.9-.3,1.4.1,1,.3,1.4.5.7.9,1c.4.2.8.3,1.3.3ZM845.6,547.5v-6.7c.1,0,0-1.8,0-1.8v-2.1h1.3v10.5h-1.3Z"/>
        <path class="st6" d="M848.4,538.1v-1.1h4.7v1.1h-4.7ZM849.7,544.7v-8.4c0-.8.2-1.4.6-1.8.4-.5,1-.7,1.8-.7s.6,0,.8.1c.3,0,.5.2.7.3l-.4,1.1c-.1-.1-.3-.2-.5-.3-.2,0-.4,0-.6,0-.4,0-.7.1-.9.3-.2.2-.3.6-.3,1v1.7s0,6.7,0,6.7h-1.3Z"/>
        <path class="st6" d="M853.3,538.1v-1.1h4.7v1.1h-4.7ZM856.9,544.8c-.7,0-1.3-.2-1.7-.6-.4-.4-.6-1-.6-1.8v-7.1h1.3v7c0,.4,0,.7.3,1,.2.2.5.3.9.3s.8-.1,1-.4l.4,1c-.2.2-.4.3-.7.4-.3,0-.6.1-.9.1Z"/>
      </g>
      <g class="st7">
        <path class="st6" d="M687.1,863.2c-.7,0-1.4-.1-2.1-.4-.6-.3-1.2-.6-1.6-1.1s-.8-1-1.1-1.7-.4-1.3-.4-2.1.1-1.5.4-2.1.6-1.2,1.1-1.7c.5-.5,1-.8,1.6-1.1s1.3-.4,2.1-.4,1.4.1,2.1.4,1.2.7,1.6,1.2l-.9.9c-.4-.4-.8-.7-1.3-.9-.5-.2-1-.3-1.5-.3s-1.1,0-1.5.3c-.5.2-.9.5-1.2.8-.3.3-.6.8-.8,1.2-.2.5-.3,1-.3,1.6s0,1.1.3,1.6c.2.5.5.9.8,1.2.3.3.8.6,1.2.8s1,.3,1.5.3,1,0,1.5-.3c.5-.2.9-.5,1.3-.9l.9.9c-.4.5-1,.9-1.6,1.2s-1.3.4-2.1.4Z"/>
        <path class="st6" d="M695.8,863.2c-.7,0-1.4-.2-2-.5-.6-.3-1-.8-1.4-1.4s-.5-1.3-.5-2,.2-1.4.5-2,.8-1,1.4-1.4c.6-.3,1.2-.5,2-.5s1.4.2,2,.5,1,.8,1.4,1.4c.3.6.5,1.3.5,2s-.2,1.4-.5,2-.8,1.1-1.4,1.4-1.2.5-2,.5ZM695.8,861.9c.5,0,.9-.1,1.3-.3.4-.2.7-.5.9-1s.3-.9.3-1.4-.1-1-.3-1.4-.5-.7-.9-.9c-.4-.2-.8-.3-1.3-.3s-.9.1-1.3.3c-.4.2-.7.5-.9.9s-.3.9-.3,1.4.1,1,.3,1.4.5.7.9,1c.4.2.8.3,1.3.3Z"/>
        <path class="st6" d="M701.5,863.1v-7.7h1.3v2.1-.5c0-.5.4-.9.9-1.2.5-.3,1.1-.4,1.8-.4v1.4c0,0-.1,0-.2,0h-.1c-.7,0-1.3.2-1.7.7s-.6,1.1-.6,1.9v3.8h-1.3Z"/>
        <path class="st6" d="M707.2,863.1v-7.7h1.3v2.1-.5c0-.5.4-.9.9-1.2.5-.3,1.1-.4,1.8-.4v1.4c0,0-.1,0-.2,0h-.1c-.7,0-1.3.2-1.7.7s-.6,1.1-.6,1.9v3.8h-1.3Z"/>
        <path class="st6" d="M713.6,853.9c-.3,0-.5,0-.6-.3s-.3-.4-.3-.6,0-.5.3-.7.4-.3.6-.3.5,0,.6.3c.2.2.3.4.3.6s0,.5-.3.7c-.2.2-.4.3-.7.3ZM712.9,863.1v-7.7h1.3v7.7h-1.3Z"/>
        <path class="st6" d="M719.9,863.2c-.7,0-1.4-.2-1.9-.5-.6-.3-1-.8-1.3-1.4-.3-.6-.5-1.3-.5-2.1s.2-1.5.5-2.1c.3-.6.8-1,1.3-1.4.6-.3,1.2-.5,1.9-.5s1.2.1,1.7.4c.5.3.9.7,1.2,1.3s.5,1.3.5,2.2-.1,1.6-.4,2.2c-.3.6-.7,1-1.2,1.3-.5.3-1.1.4-1.7.4ZM720,861.9c.5,0,.9-.1,1.3-.3.4-.2.7-.5.9-1s.3-.9.3-1.4-.1-1-.3-1.4-.5-.7-.9-.9c-.4-.2-.8-.3-1.3-.3s-.9.1-1.3.3c-.4.2-.7.5-.9.9s-.3.9-.3,1.4.1,1,.3,1.4.5.7.9,1c.4.2.8.3,1.3.3ZM722.5,863.1v-3.9c0,0,0-1.8,0-1.8v-5.1h1.3v10.8h-1.3Z"/>
        <path class="st6" d="M729.5,863.2c-.7,0-1.4-.2-2-.5-.6-.3-1-.8-1.4-1.4s-.5-1.3-.5-2,.2-1.4.5-2,.8-1,1.4-1.4c.6-.3,1.2-.5,2-.5s1.4.2,2,.5,1,.8,1.4,1.4c.3.6.5,1.3.5,2s-.2,1.4-.5,2-.8,1.1-1.4,1.4-1.2.5-2,.5ZM729.5,861.9c.5,0,.9-.1,1.3-.3.4-.2.7-.5.9-1s.3-.9.3-1.4-.1-1-.3-1.4-.5-.7-.9-.9c-.4-.2-.8-.3-1.3-.3s-.9.1-1.3.3c-.4.2-.7.5-.9.9s-.3.9-.3,1.4.1,1,.3,1.4.5.7.9,1c.4.2.8.3,1.3.3Z"/>
        <path class="st6" d="M735.2,863.1v-7.7h1.3v2.1-.5c0-.5.4-.9.9-1.2.5-.3,1.1-.4,1.8-.4v1.4c0,0-.1,0-.2,0h-.1c-.7,0-1.3.2-1.7.7s-.6,1.1-.6,1.9v3.8h-1.3Z"/>
        <path class="st6" d="M745.7,863.1v-9.6l.6.7h-2.8v-1.3h3.6v10.2h-1.4Z"/>
        <path class="st6" d="M690.6,878c-.7,0-1.4-.1-2-.3-.6-.2-1.2-.5-1.6-.9l.6-1.1c.3.3.7.6,1.3.8.5.2,1.1.3,1.7.3s1.3-.2,1.7-.5c.4-.3.6-.8.6-1.3s-.2-1-.6-1.3c-.4-.3-1-.5-1.8-.5h-.8v-1l2.9-3.7.2.6h-5.3v-1.3h6.4v1l-2.9,3.7-.7-.5h.5c1.2,0,2.1.3,2.7.8s.9,1.3.9,2.1-.1,1.1-.4,1.6c-.3.5-.7.9-1.2,1.1-.5.3-1.2.4-2.1.4Z"/>
        <path class="st6" d="M698.8,878c-.7,0-1.4-.1-2-.3-.6-.2-1.2-.5-1.6-.9l.6-1.1c.3.3.7.6,1.3.8s1.1.3,1.7.3,1.3-.2,1.7-.5c.4-.3.6-.8.6-1.3s0-.7-.3-1-.5-.5-.9-.6c-.4-.1-1-.2-1.8-.2h-2.2l.5-5.3h5.5v1.3h-5l.7-.7-.4,4.2-.7-.7h1.9c1,0,1.8.1,2.4.4.6.3,1,.6,1.3,1.1.3.5.4,1,.4,1.6s-.1,1.1-.4,1.6c-.3.5-.7.9-1.2,1.2-.5.3-1.2.4-2.1.4Z"/>
        <path class="st6" d="M707.4,878c-.8,0-1.5-.1-2.1-.4-.6-.2-1-.6-1.3-1s-.5-1-.5-1.6.2-1.1.5-1.5c.3-.4.7-.7,1.3-1,.6-.2,1.3-.3,2.1-.3s1.5.1,2.1.3c.6.2,1,.5,1.3,1,.3.4.5.9.5,1.5s-.2,1.1-.5,1.6-.8.8-1.4,1c-.6.2-1.3.4-2.1.4ZM707.4,873c-.7,0-1.4-.1-1.9-.3-.5-.2-.9-.5-1.2-.9-.3-.4-.4-.9-.4-1.4s.1-1.1.4-1.5c.3-.4.7-.7,1.2-1,.5-.2,1.1-.3,1.8-.3s1.3.1,1.9.3c.5.2.9.5,1.2,1s.4.9.4,1.5-.1,1-.4,1.4c-.3.4-.7.7-1.2.9-.5.2-1.2.3-1.9.3ZM707.4,876.8c.8,0,1.4-.2,1.8-.5s.7-.8.7-1.4-.2-1-.7-1.3-1.1-.5-1.8-.5-1.4.2-1.8.5-.7.8-.7,1.3.2,1,.7,1.4,1,.5,1.8.5ZM707.4,872c.7,0,1.2-.1,1.6-.4s.6-.7.6-1.2-.2-.9-.6-1.2c-.4-.3-.9-.4-1.6-.4s-1.2.1-1.6.4c-.4.3-.6.7-.6,1.2s.2.9.6,1.2.9.4,1.6.4Z"/>
        <path class="st6" d="M719.1,878c-.6,0-1.2,0-1.8-.3-.6-.2-1-.4-1.3-.6l.6-1.1c.3.2.7.4,1.2.6.5.2.9.2,1.4.2s1.1,0,1.3-.3c.3-.2.4-.4.4-.8s0-.4-.3-.6c-.2-.1-.4-.2-.7-.3-.3,0-.6-.1-.9-.2-.3,0-.7-.1-1-.2-.3,0-.6-.2-.9-.3-.3-.2-.5-.4-.7-.6-.2-.3-.3-.6-.3-1.1s.1-.9.4-1.2c.3-.3.6-.6,1.1-.8.5-.2,1-.3,1.6-.3s1,0,1.5.2c.5.1.9.3,1.2.5l-.6,1.1c-.3-.2-.7-.4-1-.5-.4,0-.7-.1-1.1-.1-.6,0-1,0-1.3.3-.3.2-.4.5-.4.8s0,.5.3.6c.2.1.4.2.7.3.3,0,.6.1.9.2s.7.1,1,.2c.3,0,.6.2.9.3s.5.3.7.6c.2.3.3.6.3,1s-.1.9-.4,1.2c-.3.3-.6.6-1.1.8s-1,.3-1.7.3Z"/>
        <path class="st6" d="M727,878c-.7,0-1.4-.2-1.9-.5-.6-.3-1-.8-1.3-1.4-.3-.6-.5-1.3-.5-2.1s.2-1.5.5-2.1c.3-.6.8-1,1.3-1.4.6-.3,1.2-.5,1.9-.5s1.2.1,1.7.4c.5.3.9.7,1.2,1.3.3.6.4,1.3.4,2.2s-.2,1.6-.5,2.2-.7,1-1.2,1.3c-.5.3-1.1.4-1.7.4ZM727.1,876.8c.5,0,.9-.1,1.3-.3.4-.2.7-.5.9-1s.3-.9.3-1.4-.1-1-.3-1.4-.5-.7-.9-.9c-.4-.2-.8-.3-1.3-.3s-.9.1-1.3.3c-.4.2-.7.5-.9.9s-.3.9-.3,1.4.1,1,.3,1.4.5.7.9,1c.4.2.8.3,1.3.3ZM729.6,880.7v-6.7c.1,0,0-1.8,0-1.8v-2.1h1.3v10.5h-1.3Z"/>
        <path class="st6" d="M732.4,871.3v-1.1h4.7v1.1h-4.7ZM733.7,877.9v-8.4c0-.8.2-1.4.6-1.8.4-.5,1-.7,1.8-.7s.6,0,.8.1c.3,0,.5.2.7.3l-.4,1.1c-.1-.1-.3-.2-.5-.3-.2,0-.4,0-.6,0-.4,0-.7.1-.9.3-.2.2-.3.6-.3,1v1.7s0,6.7,0,6.7h-1.3Z"/>
        <path class="st6" d="M737.3,871.3v-1.1h4.7v1.1h-4.7ZM740.9,878c-.7,0-1.3-.2-1.7-.6-.4-.4-.6-1-.6-1.8v-7.1h1.3v7c0,.4,0,.7.3,1,.2.2.5.3.9.3s.8-.1,1-.4l.4,1c-.2.2-.4.3-.7.4-.3,0-.6.1-.9.1Z"/>
      </g>
      <g class="st7">
        <path class="st6" d="M922.9,692.2c0,.8-.1,1.5-.4,2.1-.2.7-.6,1.2-1,1.7-.5.5-1,.9-1.6,1.1-.6.3-1.3.4-2,.4s-1.4-.1-2-.4c-.6-.3-1.1-.6-1.6-1.1s-.8-1.1-1-1.7c-.2-.7-.4-1.4-.4-2.1s.1-1.5.4-2.2c.3-.7.6-1.2,1.1-1.7l.9.9c-.4.4-.7.8-.9,1.3-.2.5-.3,1-.3,1.6s0,1.1.3,1.6.4.9.8,1.3c.3.4.7.6,1.2.8.5.2,1,.3,1.5.3s1,0,1.5-.3c.5-.2.9-.5,1.2-.8.3-.4.6-.8.8-1.3.2-.5.3-1,.3-1.6s0-1.1-.3-1.6c-.2-.5-.5-.9-.9-1.3l.9-.9c.5.5.9,1,1.1,1.7.3.7.4,1.4.4,2.2Z"/>
        <path class="st6" d="M922.8,683.1c0,.8-.2,1.5-.5,2.1-.3.6-.8,1.1-1.3,1.4-.6.3-1.2.5-1.9.5s-1.4-.2-1.9-.5c-.6-.3-1-.8-1.3-1.4-.3-.6-.5-1.3-.5-2.1s.2-1.5.5-2.1.8-1.1,1.3-1.4,1.2-.5,2-.5,1.4.2,2,.5c.6.3,1,.8,1.3,1.4.3.6.5,1.3.5,2.1ZM921.7,683.1c0-.5-.1-.9-.3-1.3-.2-.4-.5-.7-.9-.9-.4-.2-.9-.3-1.4-.3s-1,.1-1.4.3c-.4.2-.7.5-.9.9-.2.4-.3.8-.3,1.3s.1.9.3,1.3c.2.4.5.7.9.9.4.2.8.3,1.4.3s1-.1,1.4-.3c.4-.2.7-.5.9-.9.2-.4.3-.8.3-1.3Z"/>
        <path class="st6" d="M922.7,677.2h-7.4v-1.3h2-.5c-.5,0-.9-.4-1.2-.9-.3-.5-.4-1.1-.4-1.9h1.3c0,0,0,.1,0,.2v.2c0,.7.2,1.3.6,1.8.4.4,1,.7,1.9.7h3.7v1.4Z"/>
        <path class="st6" d="M922.7,671.2h-7.4v-1.3h2-.5c-.5,0-.9-.4-1.2-.9-.3-.5-.4-1.1-.4-1.9h1.3c0,0,0,.1,0,.2v.2c0,.7.2,1.3.6,1.8.4.4,1,.7,1.9.7h3.7v1.4Z"/>
        <path class="st6" d="M913.9,664.5c0,.3,0,.5-.3.7-.2.2-.4.3-.6.3s-.5,0-.6-.3c-.2-.2-.3-.4-.3-.7s0-.5.2-.7c.2-.2.4-.3.6-.3s.5,0,.6.3.3.4.3.7ZM922.7,665.2h-7.4v-1.4h7.4v1.4Z"/>
        <path class="st6" d="M922.7,655.2h-3.7c0,0-1.7,0-1.7,0h-4.9v-1.4h10.4v1.3ZM922.8,658c0,.7-.2,1.4-.5,2-.3.6-.8,1.1-1.3,1.4-.6.3-1.2.5-2,.5s-1.4-.2-2-.5c-.6-.3-1-.8-1.3-1.4-.3-.6-.5-1.3-.5-2s.1-1.2.4-1.8c.3-.5.7-.9,1.3-1.3s1.3-.5,2.1-.5,1.5.2,2.1.5,1,.7,1.3,1.2c.3.5.4,1.1.4,1.8ZM921.7,657.9c0-.5-.1-.9-.3-1.3-.2-.4-.5-.7-.9-.9-.4-.2-.9-.3-1.4-.3s-1,.1-1.4.3c-.4.2-.7.5-.9.9-.2.4-.3.8-.3,1.3s.1.9.3,1.3c.2.4.5.7.9.9.4.2.8.3,1.4.3s1-.1,1.4-.3c.4-.2.7-.5.9-.9.2-.4.3-.8.3-1.3Z"/>
        <path class="st6" d="M922.8,647.9c0,.8-.2,1.5-.5,2.1-.3.6-.8,1.1-1.3,1.4-.6.3-1.2.5-1.9.5s-1.4-.2-1.9-.5c-.6-.3-1-.8-1.3-1.4-.3-.6-.5-1.3-.5-2.1s.2-1.5.5-2.1.8-1.1,1.3-1.4,1.2-.5,2-.5,1.4.2,2,.5c.6.3,1,.8,1.3,1.4.3.6.5,1.3.5,2.1ZM921.7,647.9c0-.5-.1-.9-.3-1.3-.2-.4-.5-.7-.9-.9-.4-.2-.9-.3-1.4-.3s-1,.1-1.4.3c-.4.2-.7.5-.9.9-.2.4-.3.8-.3,1.3s.1.9.3,1.3c.2.4.5.7.9.9.4.2.8.3,1.4.3s1-.1,1.4-.3c.4-.2.7-.5.9-.9.2-.4.3-.8.3-1.3Z"/>
        <path class="st6" d="M922.7,642h-7.4v-1.3h2-.5c-.5,0-.9-.4-1.2-.9-.3-.5-.4-1.1-.4-1.9h1.3c0,0,0,.1,0,.2v.2c0,.7.2,1.3.6,1.8.4.4,1,.7,1.9.7h3.7v1.4Z"/>
        <path class="st6" d="M922.7,632.9h-.9l-3.8-4.1c-.3-.4-.6-.6-.9-.8-.3-.2-.5-.3-.7-.4-.2,0-.4,0-.6,0-.5,0-.9.2-1.2.6-.3.4-.4.9-.4,1.6s0,1,.3,1.5c.2.4.4.8.8,1.1l-.8,1c-.5-.4-.8-.9-1.1-1.6-.3-.7-.4-1.4-.4-2.2s.1-1.3.3-1.8c.2-.5.5-.9.9-1.2.4-.3.9-.4,1.5-.4s.6,0,.9.1c.3,0,.6.3,1,.5.3.2.7.6,1.2,1l3.4,3.7-.5.3v-6.2h1.2v7.3Z"/>
        <path class="st6" d="M937,686.4h-9.2l.7-.6v2.9h-1.2v-3.7h9.8v1.4Z"/>
        <path class="st6" d="M937,682.9h-.9l-3.8-4.1c-.3-.4-.6-.6-.9-.8-.3-.2-.5-.3-.7-.4-.2,0-.4,0-.6,0-.5,0-.9.2-1.2.6-.3.4-.4.9-.4,1.6s0,1,.3,1.5c.2.4.4.8.8,1.1l-.8,1c-.5-.4-.8-.9-1.1-1.6-.3-.7-.4-1.4-.4-2.2s.1-1.3.3-1.8c.2-.5.5-.9.9-1.2.4-.3.9-.4,1.5-.4s.6,0,.9.1c.3,0,.6.3,1,.5.3.2.7.6,1.2,1l3.4,3.7-.5.3v-6.2h1.2v7.3Z"/>
        <path class="st6" d="M937,674.6h-.9l-3.8-4.1c-.3-.4-.6-.6-.9-.8-.3-.2-.5-.3-.7-.4-.2,0-.4,0-.6,0-.5,0-.9.2-1.2.6-.3.4-.4.9-.4,1.6s0,1,.3,1.5c.2.4.4.8.8,1.1l-.8,1c-.5-.4-.8-.9-1.1-1.6-.3-.7-.4-1.4-.4-2.2s.1-1.3.3-1.8c.2-.5.5-.9.9-1.2.4-.3.9-.4,1.5-.4s.6,0,.9.1c.3,0,.6.3,1,.5.3.2.7.6,1.2,1l3.4,3.7-.5.3v-6.2h1.2v7.3Z"/>
        <path class="st6" d="M937,659.3c0,.6,0,1.2-.3,1.8-.2.6-.4,1-.6,1.4l-1.1-.6c.2-.3.4-.7.5-1.2.1-.5.2-1,.2-1.5s0-1.1-.3-1.4-.4-.4-.7-.4-.4,0-.5.3c-.1.2-.2.4-.3.7,0,.3-.1.6-.2,1s-.1.7-.2,1c0,.3-.2.7-.3,1s-.3.5-.6.7-.6.3-1,.3-.8-.1-1.2-.4c-.3-.3-.6-.6-.8-1.1-.2-.5-.3-1.1-.3-1.7s0-1,.2-1.5c.1-.5.3-.9.5-1.3l1.1.6c-.2.3-.4.7-.5,1.1,0,.4-.1.8-.1,1.1,0,.6,0,1.1.3,1.4s.4.5.7.5.4,0,.6-.3c.1-.2.2-.4.3-.7s.1-.6.2-1c0-.3.1-.7.2-1s.2-.7.3-1,.3-.5.6-.7c.3-.2.6-.3,1-.3s.8.1,1.2.4c.3.3.6.7.8,1.2.2.5.3,1.1.3,1.8Z"/>
        <path class="st6" d="M937,651c0,.7-.2,1.4-.5,2-.3.6-.8,1.1-1.3,1.4-.6.3-1.2.5-2,.5s-1.4-.2-2-.5c-.6-.3-1-.8-1.3-1.4-.3-.6-.5-1.3-.5-2s.1-1.3.4-1.8c.3-.5.7-.9,1.3-1.2s1.3-.5,2.1-.5,1.5.2,2.1.5,1,.7,1.3,1.3c.3.5.4,1.1.4,1.8ZM939.7,648.4h-6.4c0-.1-1.7,0-1.7,0h-2v-1.3h10.1v1.4ZM935.9,650.9c0-.5-.1-.9-.3-1.3-.2-.4-.5-.7-.9-.9-.4-.2-.9-.3-1.4-.3s-1,.1-1.4.3c-.4.2-.7.5-.9.9-.2.4-.3.8-.3,1.3s.1.9.3,1.3c.2.4.5.7.9.9.4.2.8.3,1.4.3s1-.1,1.4-.3c.4-.2.7-.5.9-.9.2-.4.3-.8.3-1.3Z"/>
        <path class="st6" d="M937,644.1h-8.1c-.7,0-1.3-.2-1.7-.7s-.6-1.1-.6-1.9,0-.6.1-.9c0-.3.2-.5.3-.7l1,.4c-.1.1-.2.3-.3.5,0,.2,0,.4,0,.6,0,.4.1.7.3.9.2.2.5.3,1,.3h1.6s6.4,0,6.4,0v1.4ZM930.7,645.4h-1.1v-4.9h1.1v4.9Z"/>
        <path class="st6" d="M937,636.5c0,.8-.2,1.4-.6,1.8-.4.4-1,.6-1.7.6h-6.8v-1.4h6.7c.4,0,.7-.1.9-.3.2-.2.3-.5.3-.9s-.1-.8-.3-1.1l1-.4c.2.2.3.5.4.8s.1.6.1.9ZM930.7,640.3h-1.1v-4.9h1.1v4.9Z"/>
      </g>
      <g class="st7">
        <path class="st6" d="M1223.6,467.6c-.7,0-1.4-.1-2.1-.4-.6-.3-1.2-.6-1.6-1.1s-.8-1-1.1-1.7-.4-1.3-.4-2.1.1-1.5.4-2.1.6-1.2,1.1-1.7c.5-.5,1-.8,1.6-1.1s1.3-.4,2.1-.4,1.4.1,2.1.4,1.2.7,1.6,1.2l-.9.9c-.4-.4-.8-.7-1.3-.9-.5-.2-1-.3-1.5-.3s-1.1,0-1.5.3c-.5.2-.9.5-1.2.8-.3.3-.6.8-.8,1.2-.2.5-.3,1-.3,1.6s0,1.1.3,1.6c.2.5.5.9.8,1.2.3.3.8.6,1.2.8s1,.3,1.5.3,1,0,1.5-.3c.5-.2.9-.5,1.3-.9l.9.9c-.4.5-1,.9-1.6,1.2s-1.3.4-2.1.4Z"/>
        <path class="st6" d="M1232.3,467.6c-.7,0-1.4-.2-2-.5-.6-.3-1-.8-1.4-1.4s-.5-1.3-.5-2,.2-1.4.5-2,.8-1,1.4-1.4c.6-.3,1.2-.5,2-.5s1.4.2,2,.5,1,.8,1.4,1.4c.3.6.5,1.3.5,2s-.2,1.4-.5,2-.8,1.1-1.4,1.4-1.2.5-2,.5ZM1232.3,466.3c.5,0,.9-.1,1.3-.3.4-.2.7-.5.9-1s.3-.9.3-1.4-.1-1-.3-1.4-.5-.7-.9-.9c-.4-.2-.8-.3-1.3-.3s-.9.1-1.3.3c-.4.2-.7.5-.9.9s-.3.9-.3,1.4.1,1,.3,1.4.5.7.9,1c.4.2.8.3,1.3.3Z"/>
        <path class="st6" d="M1242,459.7c.6,0,1.1.1,1.6.4.5.2.8.6,1.1,1.1.3.5.4,1.1.4,1.9v4.4h-1.3v-4.3c0-.7-.2-1.3-.5-1.7-.3-.4-.8-.6-1.5-.6s-.9,0-1.2.3-.6.5-.8.9-.3.8-.3,1.4v4h-1.3v-7.7h1.3v2.1l-.2-.6c.2-.5.6-.9,1.1-1.2.5-.3,1.1-.4,1.8-.4Z"/>
        <path class="st6" d="M1246.4,460.9v-1.1h4.7v1.1h-4.7ZM1247.7,467.5v-8.4c0-.8.2-1.4.6-1.8.4-.5,1-.7,1.8-.7s.6,0,.8.1c.3,0,.5.2.7.3l-.4,1.1c-.1-.1-.3-.2-.5-.3-.2,0-.4,0-.6,0-.4,0-.7.1-.9.3-.2.2-.3.6-.3,1v1.7s0,6.7,0,6.7h-1.3Z"/>
        <path class="st6" d="M1252.8,467.6c-.3,0-.5,0-.7-.3-.2-.2-.3-.4-.3-.7s0-.5.3-.7c.2-.2.4-.3.7-.3s.5,0,.6.3.3.4.3.7,0,.5-.3.7-.4.3-.6.3Z"/>
        <path class="st6" d="M1209.7,482.3v-10.2h3.8c.9,0,1.6.1,2.2.4.6.3,1.1.7,1.4,1.2.3.5.5,1.2.5,1.9s-.2,1.4-.5,1.9c-.3.5-.8.9-1.4,1.2-.6.3-1.3.4-2.2.4h-3l.6-.7v3.8h-1.4ZM1211.1,478.7l-.6-.7h3c.9,0,1.6-.2,2-.6.5-.4.7-1,.7-1.7s-.2-1.3-.7-1.7c-.5-.4-1.1-.6-2-.6h-3l.6-.7v6ZM1216.2,482.3l-2.5-3.7h1.5l2.5,3.7h-1.5Z"/>
        <path class="st6" d="M1222.8,482.4c-.7,0-1.4-.2-2-.5-.6-.3-1-.8-1.4-1.4s-.5-1.3-.5-2,.2-1.4.5-2,.8-1,1.4-1.4c.6-.3,1.2-.5,2-.5s1.4.2,2,.5,1,.8,1.4,1.4c.3.6.5,1.3.5,2s-.2,1.4-.5,2-.8,1.1-1.4,1.4-1.2.5-2,.5ZM1222.8,481.2c.5,0,.9-.1,1.3-.3.4-.2.7-.5.9-1s.3-.9.3-1.4-.1-1-.3-1.4-.5-.7-.9-.9c-.4-.2-.8-.3-1.3-.3s-.9.1-1.3.3c-.4.2-.7.5-.9.9s-.3.9-.3,1.4.1,1,.3,1.4.5.7.9,1c.4.2.8.3,1.3.3Z"/>
        <path class="st6" d="M1231.6,482.4c-.7,0-1.4-.2-2-.5-.6-.3-1-.8-1.4-1.4s-.5-1.3-.5-2,.2-1.4.5-2,.8-1,1.4-1.4c.6-.3,1.2-.5,2-.5s1.4.2,2,.5,1,.8,1.4,1.4c.3.6.5,1.3.5,2s-.2,1.4-.5,2-.8,1.1-1.4,1.4-1.2.5-2,.5ZM1231.6,481.2c.5,0,.9-.1,1.3-.3.4-.2.7-.5.9-1s.3-.9.3-1.4-.1-1-.3-1.4-.5-.7-.9-.9c-.4-.2-.8-.3-1.3-.3s-.9.1-1.3.3c-.4.2-.7.5-.9.9s-.3.9-.3,1.4.1,1,.3,1.4.5.7.9,1c.4.2.8.3,1.3.3Z"/>
        <path class="st6" d="M1246.6,474.5c.6,0,1.1.1,1.6.4.5.2.8.6,1.1,1.1.3.5.4,1.1.4,1.9v4.4h-1.3v-4.3c0-.7-.2-1.3-.5-1.7-.3-.4-.8-.6-1.4-.6s-.8,0-1.2.3-.6.5-.8.9-.3.8-.3,1.4v4h-1.3v-4.3c0-.7-.2-1.3-.5-1.7-.3-.4-.8-.6-1.4-.6s-.8,0-1.2.3-.6.5-.8.9c-.2.4-.3.8-.3,1.4v4h-1.3v-7.7h1.3v2.1l-.2-.5c.2-.5.6-.9,1.1-1.2.5-.3,1-.4,1.7-.4s1.3.2,1.8.5c.5.4.8.9,1,1.7l-.5-.2c.2-.6.6-1.1,1.2-1.4.6-.4,1.2-.5,2-.5Z"/>
        <path class="st6" d="M1255.1,479.8v-1l5-6.7h1.5l-5,6.7-.7-.2h7.8v1.3h-8.6ZM1260.5,482.3v-3.8s0-2.2,0-2.2h1.3v6h-1.4Z"/>
        <path class="st6" d="M1207.3,494.6v-1l5-6.7h1.5l-5,6.7-.7-.2h7.8v1.3h-8.6ZM1212.7,497.1v-3.8s0-2.2,0-2.2h1.3v6h-1.4Z"/>
        <path class="st6" d="M1220.6,497.2c-.8,0-1.5-.1-2.1-.4-.6-.2-1-.6-1.3-1s-.5-1-.5-1.6.2-1.1.5-1.5c.3-.4.7-.7,1.3-1,.6-.2,1.3-.3,2.1-.3s1.5.1,2.1.3c.6.2,1,.5,1.3,1,.3.4.5.9.5,1.5s-.2,1.1-.5,1.6-.8.8-1.4,1c-.6.2-1.3.4-2.1.4ZM1220.6,492.2c-.7,0-1.4-.1-1.9-.3-.5-.2-.9-.5-1.2-.9-.3-.4-.4-.9-.4-1.4s.1-1.1.4-1.5c.3-.4.7-.7,1.2-1,.5-.2,1.1-.3,1.8-.3s1.3.1,1.9.3c.5.2.9.5,1.2,1s.4.9.4,1.5-.1,1-.4,1.4c-.3.4-.7.7-1.2.9-.5.2-1.2.3-1.9.3ZM1220.6,496.1c.8,0,1.4-.2,1.8-.5s.7-.8.7-1.4-.2-1-.7-1.3-1.1-.5-1.8-.5-1.4.2-1.8.5-.7.8-.7,1.3.2,1,.7,1.4,1,.5,1.8.5ZM1220.6,491.3c.7,0,1.2-.1,1.6-.4s.6-.7.6-1.2-.2-.9-.6-1.2c-.4-.3-.9-.4-1.6-.4s-1.2.1-1.6.4c-.4.3-.6.7-.6,1.2s.2.9.6,1.2.9.4,1.6.4Z"/>
        <path class="st6" d="M1229.7,497.2c-.8,0-1.4-.2-2-.6-.6-.4-1.1-1-1.4-1.8s-.5-1.7-.5-2.8.2-2,.5-2.8.8-1.4,1.4-1.8,1.3-.6,2-.6,1.4.2,2,.6,1.1,1,1.4,1.8.5,1.7.5,2.8-.2,2-.5,2.8-.8,1.4-1.4,1.8c-.6.4-1.3.6-2,.6ZM1229.7,495.9c.5,0,1-.1,1.3-.4.4-.3.7-.7.9-1.3.2-.6.3-1.3.3-2.2s-.1-1.6-.3-2.2c-.2-.6-.5-1-.9-1.3-.4-.3-.8-.4-1.3-.4s-1,.1-1.4.4c-.4.3-.7.7-.9,1.3-.2.6-.3,1.3-.3,2.2s.1,1.6.3,2.2c.2.6.5,1,.9,1.3.4.3.8.4,1.4.4Z"/>
        <path class="st6" d="M1241.5,497.2c-.6,0-1.2,0-1.8-.3-.6-.2-1-.4-1.3-.6l.6-1.1c.3.2.7.4,1.2.6.5.2.9.2,1.4.2s1.1,0,1.3-.3c.3-.2.4-.4.4-.8s0-.4-.3-.6c-.2-.1-.4-.2-.7-.3-.3,0-.6-.1-.9-.2-.3,0-.7-.1-1-.2-.3,0-.6-.2-.9-.3-.3-.2-.5-.4-.7-.6-.2-.3-.3-.6-.3-1.1s.1-.9.4-1.2c.3-.3.6-.6,1.1-.8.5-.2,1-.3,1.6-.3s1,0,1.5.2c.5.1.9.3,1.2.5l-.6,1.1c-.3-.2-.7-.4-1-.5-.4,0-.7-.1-1.1-.1-.6,0-1,0-1.3.3-.3.2-.4.5-.4.8s0,.5.3.6c.2.1.4.2.7.3.3,0,.6.1.9.2s.7.1,1,.2c.3,0,.6.2.9.3s.5.3.7.6c.2.3.3.6.3,1s-.1.9-.4,1.2c-.3.3-.6.6-1.1.8s-1,.3-1.7.3Z"/>
        <path class="st6" d="M1249.5,497.2c-.7,0-1.4-.2-1.9-.5-.6-.3-1-.8-1.3-1.4-.3-.6-.5-1.3-.5-2.1s.2-1.5.5-2.1c.3-.6.8-1,1.3-1.4.6-.3,1.2-.5,1.9-.5s1.2.1,1.7.4c.5.3.9.7,1.2,1.3.3.6.4,1.3.4,2.2s-.2,1.6-.5,2.2-.7,1-1.2,1.3c-.5.3-1.1.4-1.7.4ZM1249.6,496c.5,0,.9-.1,1.3-.3.4-.2.7-.5.9-1s.3-.9.3-1.4-.1-1-.3-1.4-.5-.7-.9-.9c-.4-.2-.8-.3-1.3-.3s-.9.1-1.3.3c-.4.2-.7.5-.9.9s-.3.9-.3,1.4.1,1,.3,1.4.5.7.9,1c.4.2.8.3,1.3.3ZM1252,499.9v-6.7c.1,0,0-1.8,0-1.8v-2.1h1.3v10.5h-1.3Z"/>
        <path class="st6" d="M1254.9,490.5v-1.1h4.7v1.1h-4.7ZM1256.1,497.1v-8.4c0-.8.2-1.4.6-1.8.4-.5,1-.7,1.8-.7s.6,0,.8.1c.3,0,.5.2.7.3l-.4,1.1c-.1-.1-.3-.2-.5-.3-.2,0-.4,0-.6,0-.4,0-.7.1-.9.3-.2.2-.3.6-.3,1v1.7s0,6.7,0,6.7h-1.3Z"/>
        <path class="st6" d="M1259.8,490.5v-1.1h4.7v1.1h-4.7ZM1263.4,497.2c-.7,0-1.3-.2-1.7-.6-.4-.4-.6-1-.6-1.8v-7.1h1.3v7c0,.4,0,.7.3,1,.2.2.5.3.9.3s.8-.1,1-.4l.4,1c-.2.2-.4.3-.7.4-.3,0-.6.1-.9.1Z"/>
      </g>
      <g class="st7">
        <path class="st6" d="M685.2,373.8h5.7v1.3h-7.1v-10.2h6.9v1.3h-5.5v7.7ZM685.1,369.3h5v1.2h-5v-1.2Z"/>
        <path class="st6" d="M693.2,375.1v-10.2h1.1l6.5,8.4h-.6v-8.4h1.4v10.2h-1.1l-6.5-8.4h.6v8.4h-1.4Z"/>
        <path class="st6" d="M706.4,375.1v-8.9h-3.4v-1.3h8.1v1.3h-3.3v8.9h-1.4Z"/>
        <path class="st6" d="M712.7,375.1v-10.2h3.8c.9,0,1.6.1,2.2.4.6.3,1.1.7,1.4,1.2.3.5.5,1.2.5,1.9s-.2,1.4-.5,1.9c-.3.5-.8.9-1.4,1.2-.6.3-1.3.4-2.2.4h-3l.6-.7v3.8h-1.4ZM714.1,371.5l-.6-.7h3c.9,0,1.6-.2,2-.6.5-.4.7-1,.7-1.7s-.2-1.3-.7-1.7c-.5-.4-1.1-.6-2-.6h-3l.6-.7v6ZM719.2,375.1l-2.5-3.7h1.5l2.5,3.7h-1.5Z"/>
        <path class="st6" d="M725.2,375.1v-3.9l.3.9-4.2-7.2h1.5l3.5,6.1h-.8l3.5-6.1h1.4l-4.2,7.2.3-.9v3.9h-1.4Z"/>
        <path class="st6" d="M740,375.2c-.7,0-1.4-.1-2.1-.4s-1.2-.6-1.7-1.1c-.5-.5-.8-1-1.1-1.7-.3-.6-.4-1.3-.4-2.1s.1-1.4.4-2.1.6-1.2,1.1-1.7c.5-.5,1-.8,1.6-1.1.6-.3,1.3-.4,2.1-.4s1.4.1,2.1.4,1.2.6,1.6,1.1c.5.5.8,1,1.1,1.7.3.6.4,1.3.4,2.1s-.1,1.5-.4,2.1-.6,1.2-1.1,1.7c-.5.5-1,.8-1.6,1.1-.6.3-1.3.4-2.1.4ZM740,373.9c.5,0,1.1,0,1.5-.3.5-.2.9-.5,1.2-.8.3-.4.6-.8.8-1.2.2-.5.3-1,.3-1.6s0-1.1-.3-1.5c-.2-.5-.5-.9-.8-1.2-.3-.4-.7-.6-1.2-.8-.5-.2-1-.3-1.5-.3s-1,0-1.5.3c-.5.2-.9.5-1.2.8-.3.4-.6.8-.8,1.2-.2.5-.3,1-.3,1.5s0,1.1.3,1.6c.2.5.5.9.8,1.2.3.4.7.6,1.2.8s1,.3,1.5.3Z"/>
        <path class="st6" d="M747.4,375.1v-10.2h1.1l6.5,8.4h-.6v-8.4h1.4v10.2h-1.1l-6.5-8.4h.6v8.4h-1.4Z"/>
        <path class="st6" d="M762.5,375.1v-10.2h1.4v8.9h5.3v1.3h-6.7Z"/>
        <path class="st6" d="M775.2,375.2c-.7,0-1.4-.1-2.1-.4s-1.2-.6-1.7-1.1c-.5-.5-.8-1-1.1-1.7-.3-.6-.4-1.3-.4-2.1s.1-1.4.4-2.1.6-1.2,1.1-1.7c.5-.5,1-.8,1.6-1.1.6-.3,1.3-.4,2.1-.4s1.4.1,2.1.4,1.2.6,1.6,1.1c.5.5.8,1,1.1,1.7.3.6.4,1.3.4,2.1s-.1,1.5-.4,2.1-.6,1.2-1.1,1.7c-.5.5-1,.8-1.6,1.1-.6.3-1.3.4-2.1.4ZM775.1,373.9c.5,0,1.1,0,1.5-.3.5-.2.9-.5,1.2-.8.3-.4.6-.8.8-1.2.2-.5.3-1,.3-1.6s0-1.1-.3-1.5c-.2-.5-.5-.9-.8-1.2-.3-.4-.7-.6-1.2-.8-.5-.2-1-.3-1.5-.3s-1,0-1.5.3c-.5.2-.9.5-1.2.8-.3.4-.6.8-.8,1.2-.2.5-.3,1-.3,1.5s0,1.1.3,1.6c.2.5.5.9.8,1.2.3.4.7.6,1.2.8s1,.3,1.5.3Z"/>
        <path class="st6" d="M784.7,375.1l-3.3-10.2h1.4l3,9.4h-.7l3.1-9.4h1.3l3,9.4h-.7l3-9.4h1.3l-3.3,10.2h-1.5l-2.8-8.7h.4l-2.9,8.7h-1.5Z"/>
        <path class="st6" d="M799.6,373.8h5.7v1.3h-7.1v-10.2h6.9v1.3h-5.5v7.7ZM799.5,369.3h5v1.2h-5v-1.2Z"/>
        <path class="st6" d="M807.5,375.1v-10.2h3.8c.9,0,1.6.1,2.2.4.6.3,1.1.7,1.4,1.2.3.5.5,1.2.5,1.9s-.2,1.4-.5,1.9c-.3.5-.8.9-1.4,1.2-.6.3-1.3.4-2.2.4h-3l.6-.7v3.8h-1.4ZM808.9,371.5l-.6-.7h3c.9,0,1.6-.2,2-.6.5-.4.7-1,.7-1.7s-.2-1.3-.7-1.7c-.5-.4-1.1-.6-2-.6h-3l.6-.7v6ZM814.1,375.1l-2.5-3.7h1.5l2.5,3.7h-1.5Z"/>
        <path class="st6" d="M821.4,375.1v-10.2h1.4v8.9h5.3v1.3h-6.7Z"/>
        <path class="st6" d="M831.1,373.8h5.7v1.3h-7.1v-10.2h6.9v1.3h-5.5v7.7ZM831,369.3h5v1.2h-5v-1.2Z"/>
        <path class="st6" d="M841.9,375.1l-4.3-10.2h1.5l4,9.4h-.9l4-9.4h1.4l-4.3,10.2h-1.4Z"/>
        <path class="st6" d="M850.4,373.8h5.7v1.3h-7.1v-10.2h6.9v1.3h-5.5v7.7ZM850.3,369.3h5v1.2h-5v-1.2Z"/>
        <path class="st6" d="M858.4,375.1v-10.2h1.4v8.9h5.3v1.3h-6.7Z"/>
      </g>
      <g class="st7">
        <path class="st6" d="M725.7,416.1v-9.6l.6.7h-2.8v-1.3h3.6v10.2h-1.4Z"/>
        <path class="st6" d="M732.2,416.3c-.7,0-1.4-.1-2-.3-.6-.2-1.2-.5-1.6-.9l.6-1.1c.3.3.7.6,1.3.8.5.2,1.1.3,1.7.3s1.3-.2,1.7-.5c.4-.3.6-.8.6-1.3s-.2-1-.6-1.3c-.4-.3-1-.5-1.8-.5h-.8v-1l2.9-3.7.2.6h-5.3v-1.3h6.4v1l-2.9,3.7-.7-.5h.5c1.2,0,2.1.3,2.7.8s.9,1.3.9,2.1-.1,1.1-.4,1.6c-.3.5-.7.9-1.2,1.1-.5.3-1.2.4-2.1.4Z"/>
        <path class="st6" d="M737.2,409.3l.7-3,.2.8c-.3,0-.5,0-.7-.3-.2-.2-.3-.4-.3-.7s0-.5.3-.7c.2-.2.4-.3.7-.3s.5,0,.7.3c.2.2.3.4.3.7s0,.2,0,.3c0,0,0,.2,0,.3,0,.1,0,.3-.1.5l-.7,2h-.9Z"/>
        <path class="st6" d="M747.3,416.3c-.7,0-1.4-.1-2-.3-.6-.2-1.2-.5-1.6-.9l.6-1.1c.3.3.7.6,1.3.8s1.1.3,1.7.3,1.3-.2,1.7-.5c.4-.3.6-.8.6-1.3s0-.7-.3-1-.5-.5-.9-.6c-.4-.1-1-.2-1.8-.2h-2.2l.5-5.3h5.5v1.3h-5l.7-.7-.4,4.2-.7-.7h1.9c1,0,1.8.1,2.4.4.6.3,1,.6,1.3,1.1.3.5.4,1,.4,1.6s-.1,1.1-.4,1.6c-.3.5-.7.9-1.2,1.2-.5.3-1.2.4-2.1.4Z"/>
        <path class="st6" d="M752.2,409.3l.7-3,.2.8c-.3,0-.5,0-.7-.3-.2-.2-.3-.4-.3-.7s0-.5.3-.7c.2-.2.4-.3.7-.3s.5,0,.7.3c.2.2.3.4.3.7s0,.2,0,.3c0,0,0,.2,0,.3,0,.1,0,.3-.1.5l-.7,2h-.9ZM754.8,409.3l.7-3,.2.8c-.3,0-.5,0-.7-.3-.2-.2-.3-.4-.3-.7s0-.5.3-.7c.2-.2.4-.3.7-.3s.5,0,.7.3c.2.2.3.4.3.7s0,.2,0,.3c0,0,0,.2,0,.3,0,.1,0,.3-.1.5l-.7,2h-.9Z"/>
      </g>
      <g class="st7">
        <path class="st6" d="M791.9,436.4c0,.8-.1,1.4-.3,2-.2.5-.5,1-.9,1.3s-.8.4-1.3.4-1-.2-1.4-.5-.7-.7-.9-1.3c-.2-.6-.3-1.2-.3-1.9s.1-1.4.3-1.9c.2-.6.5-1,.9-1.3s.9-.5,1.4-.5,1,.1,1.3.4.7.7.9,1.3c.2.6.3,1.2.3,2ZM791,436.4c0-.7-.1-1.3-.4-1.7s-.7-.6-1.1-.6-.9.2-1.2.6c-.3.4-.4,1-.4,1.6s.1,1.2.4,1.6c.3.4.7.6,1.2.6s.9-.2,1.1-.6c.3-.4.4-.9.4-1.6ZM796.7,436.4c0,.8-.1,1.5-.3,2.1s-.6,1.1-1,1.4c-.4.3-.9.5-1.5.5s-1.1-.2-1.5-.5c-.4-.3-.7-.8-.9-1.4-.2-.6-.3-1.3-.3-2.2s.1-1.6.3-2.2c.2-.6.5-1.1.9-1.4s.9-.5,1.5-.5,1.1.2,1.5.5.8.8,1,1.4.3,1.3.3,2.2ZM795.6,436.4c0-.8-.2-1.5-.5-1.9-.3-.5-.8-.7-1.3-.7s-1,.2-1.3.7-.5,1.1-.5,1.9.2,1.4.5,1.9.7.7,1.3.7,1-.2,1.3-.7c.3-.5.5-1.1.5-1.9Z"/>
        <path class="st6" d="M790.1,430.9l-2.8-.7.8-.2c0,.3,0,.5-.3.7-.2.2-.4.3-.7.3s-.5,0-.7-.3c-.2-.2-.3-.4-.3-.7s0-.5.3-.7.4-.3.7-.3.2,0,.3,0c0,0,.2,0,.3,0,.1,0,.3,0,.4.2l2,.7v.9Z"/>
      </g>
      <g class="st7">
        <g>
          <line class="st4" x1="1109" y1="417.7" x2="998" y2="417.7"/>
          <path d="M1111.2,417.7c-1.1-.4-2.4-1.1-3.2-1.8l.6,1.8-.6,1.8c.8-.7,2.1-1.4,3.2-1.8Z"/>
          <path d="M995.8,417.7c1.1-.4,2.4-1.1,3.2-1.8l-.6,1.8.6,1.8c-.8-.7-2.1-1.4-3.2-1.8Z"/>
        </g>
      </g>
      <g class="st7">
        <g>
          <line class="st4" x1="1088.7" y1="401.3" x2="1088.7" y2="491.9"/>
          <path d="M1088.7,399c-.4,1.1-1.1,2.4-1.8,3.2l1.8-.6,1.8.6c-.7-.8-1.4-2.1-1.8-3.2Z"/>
          <path d="M1088.7,494.2c-.4-1.1-1.1-2.4-1.8-3.2l1.8.6,1.8-.6c-.7.8-1.4,2.1-1.8,3.2Z"/>
        </g>
      </g>
      <g class="st7">
        <path class="st6" d="M1035.5,413.8v-9.6l.6.7h-2.8v-1.3h3.6v10.2h-1.4Z"/>
        <path class="st6" d="M1042,413.9c-.7,0-1.4-.1-2-.3-.6-.2-1.2-.5-1.6-.9l.6-1.1c.3.3.7.6,1.3.8.5.2,1.1.3,1.7.3s1.3-.2,1.7-.5c.4-.3.6-.8.6-1.3s-.2-1-.6-1.3c-.4-.3-1-.5-1.8-.5h-.8v-1l2.9-3.7.2.6h-5.3v-1.3h6.4v1l-2.9,3.7-.7-.5h.5c1.2,0,2.1.3,2.7.8s.9,1.3.9,2.1-.1,1.1-.4,1.6c-.3.5-.7.9-1.2,1.1-.5.3-1.2.4-2.1.4Z"/>
        <path class="st6" d="M1047,406.9l.7-3,.2.8c-.3,0-.5,0-.7-.3-.2-.2-.3-.4-.3-.7s0-.5.3-.7c.2-.2.4-.3.7-.3s.5,0,.7.3c.2.2.3.4.3.7s0,.2,0,.3c0,0,0,.2,0,.3,0,.1,0,.3-.1.5l-.7,2h-.9Z"/>
        <path class="st6" d="M1053.8,411.3v-1l5-6.7h1.5l-5,6.7-.7-.2h7.8v1.3h-8.6ZM1059.2,413.8v-3.8s0-2.2,0-2.2h1.3v6h-1.4Z"/>
        <path class="st6" d="M1063.3,406.9l.7-3,.2.8c-.3,0-.5,0-.7-.3-.2-.2-.3-.4-.3-.7s0-.5.3-.7c.2-.2.4-.3.7-.3s.5,0,.7.3c.2.2.3.4.3.7s0,.2,0,.3c0,0,0,.2,0,.3,0,.1,0,.3-.1.5l-.7,2h-.9ZM1065.9,406.9l.7-3,.2.8c-.3,0-.5,0-.7-.3-.2-.2-.3-.4-.3-.7s0-.5.3-.7c.2-.2.4-.3.7-.3s.5,0,.7.3c.2.2.3.4.3.7s0,.2,0,.3c0,0,0,.2,0,.3,0,.1,0,.3-.1.5l-.7,2h-.9Z"/>
      </g>
      <g class="st7">
        <path class="st6" d="M1102.7,463.2h-9.2l.7-.6v2.9h-1.2v-3.7h9.8v1.4Z"/>
        <path class="st6" d="M1102.7,457.8h-9.2l.7-.6v2.9h-1.2v-3.7h9.8v1.4Z"/>
        <path class="st6" d="M1096.2,454.1l-2.8-.7.8-.2c0,.3,0,.5-.3.7-.2.2-.4.3-.7.3s-.5,0-.7-.3c-.2-.2-.3-.4-.3-.7s0-.5.3-.7.4-.3.7-.3.2,0,.3,0c0,0,.2,0,.3,0,.1,0,.3,0,.4.2l2,.7v.9Z"/>
      </g>
      <g class="st7">
        <g>
          <line class="st4" x1="1349.7" y1="417.7" x2="1116.7" y2="417.7"/>
          <path d="M1352,417.7c-1.1-.4-2.4-1.1-3.2-1.8l.6,1.8-.6,1.8c.8-.7,2.1-1.4,3.2-1.8Z"/>
          <path d="M1114.4,417.7c1.1-.4,2.4-1.1,3.2-1.8l-.6,1.8.6,1.8c-.8-.7-2.1-1.4-3.2-1.8Z"/>
        </g>
      </g>
      <g class="st7">
        <g>
          <line class="st4" x1="1328.7" y1="399.6" x2="1328.7" y2="543.6"/>
          <path d="M1328.7,397.3c-.4,1.1-1.1,2.4-1.8,3.2l1.8-.6,1.8.6c-.7-.8-1.4-2.1-1.8-3.2Z"/>
          <path d="M1328.7,545.9c-.4-1.1-1.1-2.4-1.8-3.2l1.8.6,1.8-.6c-.7.8-1.4,2.1-1.8,3.2Z"/>
        </g>
      </g>
      <g class="st7">
        <path class="st6" d="M1230.5,413.8v-1l4-4c.4-.3.6-.7.8-.9.2-.3.3-.5.3-.7,0-.2,0-.4,0-.7,0-.5-.2-.9-.5-1.2s-.9-.5-1.5-.5-1,0-1.4.3-.8.5-1.1.8l-.9-.9c.4-.5.9-.9,1.5-1.1.6-.3,1.3-.4,2.1-.4s1.3.1,1.8.3c.5.2.9.6,1.2,1s.4.9.4,1.5,0,.7-.1,1c0,.3-.2.7-.5,1-.2.4-.6.8-1,1.2l-3.5,3.6-.3-.6h5.9v1.3h-7Z"/>
        <path class="st6" d="M1240.3,413.8l4.1-9.6.4.7h-5.8l.7-.7v2.5h-1.3v-3.1h7.4v1l-4,9.2h-1.5Z"/>
        <path class="st6" d="M1247,406.9l.7-3,.2.8c-.3,0-.5,0-.7-.3-.2-.2-.3-.4-.3-.7s0-.5.3-.7c.2-.2.4-.3.7-.3s.5,0,.7.3c.2.2.3.4.3.7s0,.2,0,.3c0,0,0,.2,0,.3,0,.1,0,.3-.1.5l-.7,2h-.9Z"/>
        <path class="st6" d="M1258,413.9c-.9,0-1.6-.2-2.2-.6-.6-.4-1.1-1-1.4-1.7s-.5-1.7-.5-2.8.2-2.1.6-2.9c.4-.8.9-1.4,1.6-1.8s1.5-.6,2.4-.6.9,0,1.3.1c.4,0,.8.2,1.1.5l-.5,1.1c-.3-.2-.5-.3-.9-.4-.3,0-.7-.1-1-.1-1,0-1.8.3-2.4,1-.6.6-.9,1.6-.9,2.9s0,.4,0,.7,0,.6.1.8l-.5-.5c.1-.4.4-.8.7-1.1s.7-.5,1.1-.7c.4-.2.9-.2,1.4-.2s1.2.1,1.7.4c.5.3.9.6,1.2,1.1.3.5.4,1,.4,1.6s-.2,1.2-.5,1.7c-.3.5-.7.9-1.2,1.1-.5.3-1.1.4-1.8.4ZM1257.9,412.7c.4,0,.8,0,1.1-.2s.6-.4.8-.7.3-.6.3-1c0-.6-.2-1.1-.6-1.4-.4-.4-.9-.5-1.6-.5s-.8,0-1.2.3-.6.4-.8.7c-.2.3-.3.6-.3,1s0,.7.3,1,.4.5.8.7c.3.2.8.3,1.3.3Z"/>
        <path class="st6" d="M1262.6,406.9l.7-3,.2.8c-.3,0-.5,0-.7-.3-.2-.2-.3-.4-.3-.7s0-.5.3-.7c.2-.2.4-.3.7-.3s.5,0,.7.3c.2.2.3.4.3.7s0,.2,0,.3c0,0,0,.2,0,.3,0,.1,0,.3-.1.5l-.7,2h-.9ZM1265.2,406.9l.7-3,.2.8c-.3,0-.5,0-.7-.3-.2-.2-.3-.4-.3-.7s0-.5.3-.7c.2-.2.4-.3.7-.3s.5,0,.7.3c.2.2.3.4.3.7s0,.2,0,.3c0,0,0,.2,0,.3,0,.1,0,.3-.1.5l-.7,2h-.9Z"/>
      </g>
      <g class="st7">
        <path class="st6" d="M1342.7,485.9h-9.2l.7-.6v2.9h-1.2v-3.7h9.8v1.4Z"/>
        <path class="st6" d="M1342.7,480.5l-9.2-4.3.6-.4v6.1l-.7-.7h2.4v1.4h-3v-7.7h.9l8.8,4.1v1.5Z"/>
        <path class="st6" d="M1336.1,473.5l-2.8-.7.8-.2c0,.3,0,.5-.3.7-.2.2-.4.3-.7.3s-.5,0-.7-.3c-.2-.2-.3-.4-.3-.7s0-.5.3-.7.4-.3.7-.3.2,0,.3,0c0,0,.2,0,.3,0,.1,0,.3,0,.4.2l2,.7v.9Z"/>
      </g>
      <g class="st7">
        <path class="st6" d="M566,686l4.1-9.6.4.7h-5.8l.7-.7v2.5h-1.3v-3.1h7.4v1l-4,9.2h-1.5Z"/>
        <path class="st6" d="M572.8,679.2l.7-3,.2.8c-.3,0-.5,0-.7-.3-.2-.2-.3-.4-.3-.7s0-.5.3-.7c.2-.2.4-.3.7-.3s.5,0,.7.3c.2.2.3.4.3.7s0,.2,0,.3c0,0,0,.2,0,.3,0,.1,0,.3-.1.5l-.7,2h-.9Z"/>
      </g>
      <g class="st7">
        <path class="st6" d="M342.2,773.4v-10.2h4.4c1.1,0,2,.2,2.6.7.6.5.9,1.1.9,1.9s-.1,1-.4,1.4c-.2.4-.6.7-1,.9-.4.2-.8.3-1.3.3l.3-.4c.6,0,1.1.1,1.5.3.4.2.8.5,1,.9.3.4.4.9.4,1.5,0,.9-.3,1.6-.9,2-.6.5-1.6.7-2.8.7h-4.7ZM343.5,772.2h3.2c.8,0,1.4-.1,1.8-.4.4-.3.6-.7.6-1.3s-.2-1-.6-1.3c-.4-.3-1-.4-1.8-.4h-3.3v-1.2h3c.7,0,1.3-.1,1.6-.4.4-.3.6-.7.6-1.2s-.2-1-.6-1.2c-.4-.3-.9-.4-1.6-.4h-2.9v7.8Z"/>
        <path class="st6" d="M354.7,773.5c-.5,0-1,0-1.4-.3-.4-.2-.7-.5-1-.8-.2-.3-.3-.7-.3-1.2s0-.8.3-1.1c.2-.3.5-.6.9-.8.4-.2,1-.3,1.8-.3h2.3v1h-2.3c-.7,0-1.1.1-1.4.3-.2.2-.3.5-.3.8s.1.7.4.9c.3.2.7.3,1.2.3s.9-.1,1.3-.3.6-.6.8-1l.3,1c-.2.5-.5.8-.9,1.1-.4.3-1,.4-1.7.4ZM357.1,773.4v-1.9c0,0,0-2.8,0-2.8,0-.6-.2-1.1-.5-1.4-.3-.3-.8-.5-1.5-.5s-.9,0-1.3.2c-.4.2-.8.4-1.1.6l-.6-1c.4-.3.8-.6,1.4-.7s1.1-.3,1.7-.3c1,0,1.8.3,2.3.8.5.5.8,1.3.8,2.4v4.7h-1.3Z"/>
        <path class="st6" d="M360.9,773.4v-7.7h1.3v2.1-.5c0-.5.4-.9.9-1.2.5-.3,1.1-.4,1.8-.4v1.4c0,0-.1,0-.2,0h-.1c-.7,0-1.3.2-1.7.7-.4.4-.6,1.1-.6,1.9v3.8h-1.3Z"/>
        <path class="st6" d="M371.4,773.4v-9.6l.6.7h-2.8v-1.3h3.6v10.2h-1.4Z"/>
        <path class="st6" d="M376.6,773.4l4.1-9.6.4.7h-5.8l.7-.7v2.5h-1.3v-3.1h7.4v1l-4,9.2h-1.5Z"/>
        <path class="st6" d="M383.3,766.6l.7-3,.2.8c-.3,0-.5,0-.7-.3-.2-.2-.3-.4-.3-.7s0-.5.3-.7c.2-.2.4-.3.7-.3s.5,0,.7.3c.2.2.3.4.3.7s0,.2,0,.3,0,.2,0,.3c0,.1,0,.3-.1.5l-.7,2h-.9Z"/>
      </g>
      <rect class="st11" x="536.7" y="702.9" width="65.4" height="33.8"/>
      <rect class="st11" x="100" y="811.1" width="72.3" height="80.5"/>
      <polygon class="st11" points="836.4 565.3 836.4 594.5 768.4 594.5 768.4 751.6 608.2 751.6 608.2 817 672.8 817 672.8 830.7 768.4 830.7 904.2 830.7 904.2 599.9 904.2 594.5 904.2 565.3 836.4 565.3"/>
      <polygon class="st11" points="1352 792.5 1352 549 1002.7 549 989.8 549 949.9 549 949.9 830.7 1002.7 830.7 1002.7 816.7 1107.3 816.7 1107.3 903.2 1352 903.2 1352 792.5 1352 792.5"/>
      <polygon class="st11" points="901 399 886.8 399 802.7 399 802.7 467.5 886.8 467.5 886.8 494.1 992.6 494.1 992.6 399 901 399"/>
      <polygon class="st11" points="835.3 877.8 835.3 891.6 72.8 891.6 72.8 904.1 835.3 904.1 839.6 904.1 1107.3 904.1 1107.3 877.8 835.3 877.8"/>
      <circle class="st3" cx="317.4" cy="452" r="21.6"/>
    </g>
  </g>
</svg>