<?xml version="1.0" encoding="UTF-8"?>
<svg xmlns="http://www.w3.org/2000/svg" version="1.1" viewBox="0 0 792 612">
  <!-- Generator: Adobe Illustrator 30.1.0, SVG Export Plug-In . SVG Version: 2.1.1 Build 136)  -->
  <defs>
    <style>
      .st0 {
        opacity: .5;
      }

      .st0, .st1, .st2, .st3, .st4, .st5 {
        fill: none;
      }

      .st0, .st1, .st2, .st3, .st5 {
        stroke: #231f20;
        stroke-miterlimit: 10;
      }

      .st0, .st2 {
        stroke-width: .5px;
      }

      .st1 {
        stroke-width: 2px;
      }

      .st6 {
        fill: #231f20;
      }

      .st7 {
        opacity: .2;
      }

      .st8 {
        isolation: isolate;
      }

      .st4 {
        stroke: #000;
      }

      .st4, .st5 {
        stroke-width: .8px;
      }

      .st9 {
        fill: #c2c1c0;
        mix-blend-mode: multiply;
      }
    </style>
  </defs>
  <g class="st8">
    <g id="Layer_1">
      <g>
        <polyline class="st3" points="135.4 379.5 135.4 417 126.6 417 126.6 441.2 79.4 441.2 79.4 379.5 138 379.5 138 384 143.3 384 143.3 390.3 137.7 390.3 137.7 469.5 116.1 469.5"/>
        <line class="st3" x1="79.4" y1="388.2" x2="135.4" y2="388.2"/>
        <line class="st3" x1="79.4" y1="397.8" x2="135.4" y2="397.8"/>
        <line class="st3" x1="79.4" y1="407.4" x2="135.4" y2="407.4"/>
        <line class="st3" x1="79.4" y1="417" x2="135.4" y2="417"/>
        <line class="st3" x1="79.4" y1="426.6" x2="126.4" y2="426.6"/>
        <line class="st3" x1="79.4" y1="436.3" x2="126.4" y2="436.3"/>
        <polyline class="st3" points="119 379.5 119 383.9 135.4 383.9"/>
        <polyline class="st3" points="119 388.2 119 392.6 135.4 392.6"/>
        <polyline class="st3" points="119 397.8 119 402.2 135.4 402.2"/>
        <polyline class="st3" points="119 407.4 119 411.9 135.4 411.9"/>
        <line class="st3" x1="126.6" y1="441.2" x2="137.7" y2="441.2"/>
        <path class="st3" d="M79.4,441.2v5.6h1.9l9.2,9.2s-1.6,2.6-4.7,3.9-6.4.7-6.4.7v20.1"/>
        <path class="st3" d="M137.3,469.5h12.9v11.1s-34-.1-34.1,0v-20.1s3.3.5,6.4-.7,4.7-3.9,4.7-3.9l-9.2-9.2h-1.9v-5.6"/>
        <path class="st3" d="M116.1,480.6h-48.3V156.7l2.5-12.1,7.1-10.2,10.1-6.8,11.1-2.4h212.5l10.6,2.2,10.8,7.4,6.7,10.3,1.1,14v82.9h-4.4v-86.1l-1.7-9.9-5.7-8.2-7.3-5.3-7.2-2.3h-46.2v10.3h45.7s5.4.5,8.9,5.1,3.9,9.7,3.9,9.7v85.5h9.8c0,0,0,10.4,0,10.4h-11.7v-10.4h4.1"/>
        <polyline class="st3" points="324.3 249 317.4 249 317.4 364.7"/>
        <line class="st3" x1="299.9" y1="364.7" x2="334" y2="364.7"/>
        <polyline class="st3" points="317.4 270.5 299.6 270.5 299.6 388.7 334 388.7 334 321.7 334 275.2 317.4 275.2"/>
        <polygon class="st3" points="258.9 140.6 149.7 140.6 149.7 130.6 258.9 130.3 258.9 140.6"/>
        <g>
          <rect class="st2" x="71" y="289.8" width="8.1" height="9"/>
          <line class="st2" x1="77.7" y1="298.8" x2="77.7" y2="289.8"/>
          <line class="st2" x1="72.3" y1="289.8" x2="72.3" y2="298.8"/>
          <line class="st2" x1="72.3" y1="294.3" x2="77.7" y2="294.3"/>
        </g>
        <g>
          <rect class="st2" x="71" y="383.3" width="8.1" height="9"/>
          <line class="st2" x1="77.7" y1="392.3" x2="77.7" y2="383.3"/>
          <line class="st2" x1="72.3" y1="383.3" x2="72.3" y2="392.3"/>
          <line class="st2" x1="72.3" y1="387.8" x2="77.7" y2="387.8"/>
        </g>
        <g>
          <rect class="st2" x="71" y="198.5" width="8.1" height="9"/>
          <line class="st2" x1="77.7" y1="207.4" x2="77.7" y2="198.5"/>
          <line class="st2" x1="72.3" y1="198.5" x2="72.3" y2="207.4"/>
          <line class="st2" x1="72.3" y1="202.9" x2="77.7" y2="202.9"/>
        </g>
        <g>
          <rect class="st2" x="141.7" y="128.3" width="8.1" height="9"/>
          <line class="st2" x1="148.4" y1="137.3" x2="148.4" y2="128.3"/>
          <line class="st2" x1="143" y1="128.3" x2="143" y2="137.3"/>
          <line class="st2" x1="143" y1="132.8" x2="148.4" y2="132.8"/>
        </g>
        <g>
          <rect class="st2" x="259.3" y="127.9" width="8.1" height="9" transform="translate(131 395.7) rotate(-90)"/>
          <line class="st2" x1="267.8" y1="129.7" x2="258.9" y2="129.7"/>
          <line class="st2" x1="258.9" y1="135" x2="267.8" y2="135"/>
          <line class="st2" x1="263.4" y1="135" x2="263.4" y2="129.7"/>
        </g>
        <g>
          <rect class="st2" x="141.7" y="290.9" width="8.1" height="9"/>
          <line class="st2" x1="148.4" y1="299.9" x2="148.4" y2="290.9"/>
          <line class="st2" x1="143.1" y1="290.9" x2="143.1" y2="299.9"/>
          <line class="st2" x1="143.1" y1="295.4" x2="148.4" y2="295.4"/>
        </g>
        <rect class="st2" x="183.5" y="205.7" width="76.2" height="1.8"/>
        <rect class="st2" x="183.5" y="231.6" width="76.2" height="1.8"/>
        <polygon class="st2" points="277.1 203.9 178.5 203.9 178.5 205.7 277.1 205.7 277.1 233.3 178.5 233.3 178.5 235.1 277.1 235.1 278.9 235.1 278.9 233.3 278.9 205.7 278.9 203.9 277.1 203.9"/>
        <line class="st2" x1="183.5" y1="205.7" x2="183.5" y2="233.3"/>
        <line class="st2" x1="187.6" y1="205.7" x2="187.6" y2="233.3"/>
        <line class="st2" x1="191.8" y1="205.7" x2="191.8" y2="233.3"/>
        <line class="st2" x1="196" y1="205.7" x2="196" y2="233.3"/>
        <line class="st2" x1="200.2" y1="205.7" x2="200.2" y2="233.3"/>
        <line class="st2" x1="204.4" y1="205.7" x2="204.4" y2="233.3"/>
        <line class="st2" x1="208.5" y1="205.7" x2="208.5" y2="233.3"/>
        <line class="st2" x1="212.7" y1="205.7" x2="212.7" y2="233.3"/>
        <line class="st2" x1="216.9" y1="205.7" x2="216.9" y2="233.3"/>
        <line class="st2" x1="221.1" y1="205.7" x2="221.1" y2="233.3"/>
        <line class="st2" x1="225.3" y1="205.7" x2="225.3" y2="233.3"/>
        <line class="st2" x1="229.4" y1="205.7" x2="229.4" y2="233.3"/>
        <line class="st2" x1="233.6" y1="205.7" x2="233.6" y2="233.3"/>
        <line class="st2" x1="237.8" y1="205.7" x2="237.8" y2="233.3"/>
        <line class="st2" x1="242" y1="205.7" x2="242" y2="233.3"/>
        <line class="st2" x1="246.2" y1="205.7" x2="246.2" y2="233.3"/>
        <line class="st2" x1="250.3" y1="205.7" x2="250.3" y2="233.3"/>
        <line class="st2" x1="254.5" y1="205.7" x2="254.5" y2="233.3"/>
        <polyline class="st2" points="71 480.6 71 157 72.9 145.9 79.1 136.6 88.3 130.7 99.6 128.3 141.7 128.3 309.8 128.3 321 130.7 329.9 136.7 336 146 337.9 157.2 337.9 242.2"/>
        <circle class="st2" cx="73" cy="433.7" r="2"/>
        <circle class="st2" cx="73" cy="340.8" r="2"/>
        <circle class="st2" cx="73" cy="249" r="2"/>
        <circle class="st2" cx="73" cy="156.9" r="2"/>
        <circle class="st2" cx="98.9" cy="130.3" r="2"/>
        <polyline class="st2" points="79 298.8 118.4 298.8 145.7 321 145.7 387.2 143.3 387.2"/>
        <rect class="st2" x="158.4" y="423.2" width="105.3" height="2.5"/>
        <rect class="st2" x="174.8" y="433.9" width="74.8" height="15.1"/>
        <circle class="st2" cx="183.4" cy="431" r="2.9"/>
        <circle class="st2" cx="195" cy="431" r="2.9"/>
        <circle class="st2" cx="206.7" cy="430.9" r="2.9"/>
        <circle class="st2" cx="218.3" cy="430.9" r="2.9"/>
        <circle class="st2" cx="230" cy="430.8" r="2.9"/>
        <circle class="st2" cx="241.6" cy="430.8" r="2.9"/>
        <polyline class="st2" points="73 392.3 73 429.5 76.8 429.5 76.8 437.9 73 437.9 73 480.6"/>
        <rect class="st2" x="154.7" y="469.5" width="107.7" height="8.8"/>
        <rect class="st2" x="262.3" y="466.7" width="10.1" height="13.9"/>
        <line class="st2" x1="173.3" y1="469.5" x2="173.3" y2="478.3"/>
        <line class="st2" x1="181.2" y1="469.5" x2="181.2" y2="478.3"/>
        <line class="st2" x1="192.6" y1="469.5" x2="192.6" y2="478.3"/>
        <line class="st2" x1="202" y1="469.5" x2="202" y2="478.3"/>
        <line class="st2" x1="225.4" y1="469.5" x2="225.4" y2="478.3"/>
        <line class="st2" x1="235.1" y1="469.5" x2="235.1" y2="478.3"/>
        <line class="st2" x1="246.6" y1="469.5" x2="246.6" y2="478.3"/>
        <line class="st2" x1="252.6" y1="469.5" x2="252.6" y2="478.3"/>
        <rect class="st2" x="215.4" y="470.6" width="8.6" height="6" rx=".9" ry=".9"/>
        <rect class="st6" x="219.1" y="474.2" width="1.3" height="4.1"/>
        <line class="st5" x1="154.7" y1="469.5" x2="161.4" y2="462.6"/>
        <line class="st5" x1="167" y1="462.9" x2="173.3" y2="469.5"/>
        <line class="st5" x1="255.4" y1="462.4" x2="262.2" y2="469.3"/>
        <line class="st5" x1="272.4" y1="466.7" x2="278.3" y2="471.8"/>
        <line class="st5" x1="278.3" y1="475.8" x2="272.5" y2="480.6"/>
        <g>
          <line class="st3" x1="302.9" y1="436.5" x2="302.9" y2="451.1"/>
          <path class="st2" d="M316.6,451.1s.1-5.5-3.6-10-10.1-4.5-10.1-4.5"/>
        </g>
        <g>
          <line class="st3" x1="337.9" y1="425.5" x2="337.9" y2="412.3"/>
          <path class="st2" d="M348.8,412.3s.1,5-2.9,9.1-8,4.1-8,4.1"/>
        </g>
        <g>
          <line class="st3" x1="393" y1="411.5" x2="402.8" y2="411.5"/>
          <path class="st2" d="M402.8,399.4s-3.7-.1-6.8,3.2c-3.1,3.3-3.1,8.9-3.1,8.9"/>
        </g>
        <g>
          <line class="st3" x1="393" y1="396.9" x2="402.8" y2="396.9"/>
          <path class="st2" d="M402.8,386.4s-3.7-.1-6.8,2.8c-3.1,2.9-3.1,7.7-3.1,7.7"/>
        </g>
        <g>
          <line class="st3" x1="360.4" y1="411.5" x2="350.6" y2="411.5"/>
          <path class="st2" d="M350.6,399.4s3.7-.1,6.8,3.2c3.1,3.3,3.1,8.9,3.1,8.9"/>
        </g>
        <g>
          <line class="st3" x1="360.4" y1="396.9" x2="350.6" y2="396.9"/>
          <path class="st2" d="M350.6,386.4s3.7-.1,6.8,2.8c3.1,2.9,3.1,7.7,3.1,7.7"/>
        </g>
        <g>
          <line class="st1" x1="338.1" y1="337.3" x2="338.1" y2="323.3"/>
          <path class="st2" d="M351.9,323.3s.1,5.3-3.7,9.7c-3.8,4.4-10.1,4.4-10.1,4.4"/>
        </g>
        <g>
          <line class="st1" x1="389.1" y1="278.8" x2="375" y2="278.8"/>
          <path class="st2" d="M375,265s5.3-.1,9.7,3.7c4.4,3.8,4.4,10.1,4.4,10.1"/>
        </g>
        <g>
          <line class="st1" x1="468.9" y1="191.6" x2="468.9" y2="205.6"/>
          <path class="st2" d="M482.7,205.6s.1-5.3-3.7-9.7c-3.8-4.4-10.1-4.4-10.1-4.4"/>
        </g>
        <g>
          <line class="st1" x1="496.6" y1="191.6" x2="496.6" y2="205.6"/>
          <path class="st2" d="M482.7,205.6s-.1-5.3,3.7-9.7c3.8-4.4,10.1-4.4,10.1-4.4"/>
        </g>
        <g>
          <line class="st1" x1="500" y1="282.8" x2="500" y2="296.8"/>
          <path class="st2" d="M486.1,296.8s-.1-5.3,3.7-9.7c3.8-4.4,10.1-4.4,10.1-4.4"/>
        </g>
        <g>
          <line class="st1" x1="503.9" y1="282.8" x2="503.9" y2="296.8"/>
          <path class="st2" d="M517.7,296.8s.1-5.3-3.7-9.7c-3.8-4.4-10.1-4.4-10.1-4.4"/>
        </g>
        <g>
          <line class="st1" x1="535.4" y1="282.8" x2="535.4" y2="296.8"/>
          <path class="st2" d="M549.2,296.8s.1-5.3-3.7-9.7c-3.8-4.4-10.1-4.4-10.1-4.4"/>
        </g>
        <g>
          <line class="st1" x1="611" y1="318.9" x2="596.9" y2="318.9"/>
          <path class="st2" d="M596.9,305s5.3-.1,9.7,3.7c4.4,3.8,4.4,10.1,4.4,10.1"/>
        </g>
        <g>
          <line class="st1" x1="415.3" y1="337.3" x2="415.3" y2="323.3"/>
          <path class="st2" d="M401.5,323.3s-.1,5.3,3.7,9.7c3.8,4.4,10.1,4.4,10.1,4.4"/>
        </g>
        <g>
          <line class="st3" x1="393" y1="383.9" x2="402.8" y2="383.9"/>
          <path class="st2" d="M402.8,372.7s-3.7-.1-6.8,3c-3.1,3.1-3.1,8.3-3.1,8.3"/>
        </g>
        <g>
          <line class="st3" x1="392.9" y1="370.3" x2="402.7" y2="370.3"/>
          <path class="st2" d="M402.7,358.5s-3.7-.1-6.8,3.1-3.1,8.7-3.1,8.7"/>
        </g>
        <g>
          <line class="st3" x1="440.4" y1="441.7" x2="451.3" y2="451.4"/>
          <path class="st2" d="M436.9,452.7s-.3-3.6.7-6.1,2.8-4.8,2.8-4.8"/>
        </g>
        <rect class="st2" x="351.9" y="321.7" width="49.6" height="1.6"/>
        <rect class="st2" x="417.8" y="260.7" width="41.5" height="1.6" transform="translate(177.1 700) rotate(-90)"/>
        <rect class="st2" x="473.9" y="267.9" width="56.1" height="1.6" transform="translate(233.2 770.7) rotate(-90)"/>
        <rect class="st2" x="505.4" y="267.9" width="56.1" height="1.6" transform="translate(264.7 802.2) rotate(-90)"/>
        <rect class="st2" x="568.9" y="267.9" width="56.1" height="1.6" transform="translate(328.2 865.7) rotate(-90)"/>
        <rect class="st2" x="491.2" y="222.5" width="32.7" height="3.7" transform="translate(283.2 731.9) rotate(-90)"/>
        <polygon class="st2" points="477.6 280.6 454.4 280.6 452.8 280.6 429 280.6 427.4 280.6 411.4 280.6 409.8 280.6 393.3 280.6 391.7 280.6 375.8 280.6 373.7 280.6 373.7 282.2 373.7 298.7 375.8 298.7 375.8 282.2 391.7 282.2 391.7 298.7 393.3 298.7 393.3 282.2 409.8 282.2 409.8 298.7 411.4 298.7 411.4 282.2 427.4 282.2 427.4 298.7 429 298.7 429 282.2 452.8 282.2 452.8 298.7 454.4 298.7 454.4 282.2 477.6 282.2 477.6 298.7 479.2 298.7 479.2 282.2 479.2 280.6 477.6 280.6"/>
        <rect class="st2" x="353.4" y="356.8" width="20.4" height="1.6"/>
        <rect class="st2" x="379.7" y="356.8" width="23.3" height="1.6"/>
        <rect class="st2" x="350.6" y="384.8" width="23.2" height="1.6"/>
        <rect class="st2" x="379.7" y="384.8" width="23.3" height="1.6"/>
        <rect class="st2" x="350.6" y="397.8" width="23.2" height="1.6"/>
        <polygon class="st2" points="332.8 405.2 321.3 405.2 321.3 388.7 319.6 388.7 319.6 405.2 301.2 405.2 301.2 403.5 299.6 403.5 299.6 405.2 299.6 406.8 299.6 451.1 299.6 452.7 301.2 452.7 302.9 452.7 302.9 451.1 301.2 451.1 301.2 406.8 319.6 406.8 321.3 406.8 332.8 406.8 332.8 451.1 316.6 451.1 316.6 452.7 332.8 452.7 334.4 452.7 334.4 451.1 334.4 406.8 334.4 405.2 332.8 405.2"/>
        <rect class="st2" x="379.7" y="397.8" width="23.3" height="1.6"/>
        <rect class="st2" x="363.9" y="371.1" width="9.8" height="1.6"/>
        <rect class="st2" x="379.7" y="371.1" width="23.3" height="1.6"/>
        <rect class="st2" x="462.7" y="346.8" width="51.8" height="1.6" transform="translate(141 836.2) rotate(-90)"/>
        <polygon class="st2" points="725.4 323.3 725.4 321.7 511 321.7 511 321.7 509.4 321.7 509.4 321.7 509.4 323.3 509.4 451.1 509.4 452.7 509.4 452.7 537.8 452.7 539.4 452.7 539.4 451.1 539.4 445.7 589.3 445.7 589.3 473.7 590.9 473.7 590.9 445.7 590.9 444.1 589.3 444.1 539.4 444.1 537.8 444.1 537.8 445.7 537.8 451.1 511 451.1 511 323.3 725.4 323.3"/>
        <rect class="st2" x="453.3" y="321.7" width="10.6" height="12.6" transform="translate(917.3 656) rotate(180)"/>
        <rect class="st2" x="332.2" y="364.8" width="89" height="5.9" transform="translate(9 744.4) rotate(-90)"/>
        <path class="st2" d="M487.8,400.4v1.8h-35v10h-33.9v-76.3h45.1v-1.6h-45.1v-12.7h-3.3v1.6h1.7v11.1h0v1.6h0v76.3h-68.6v1.6h17.6v30h-29.2v-122.4h-2.6v133.9h0s33.4,0,33.4,0h2.4v-2.7h66.8v-1.6h-66.8v-37.3h82.5v17h-67.6v1.6h67.6v18.8h-1.5v1.6h38.1v-52.4h-1.6ZM367.8,453.7h-30.8v-8.3h30.8v8.3ZM487.8,451.1h-32.5v-46.5h32.5v46.5Z"/>
        <rect class="st2" x="356" y="417.7" width="10.2" height="13.6"/>
        <line class="st2" x1="385.1" y1="413.8" x2="385.1" y2="451.1"/>
        <line class="st2" x1="389.2" y1="413.8" x2="389.2" y2="430.8"/>
        <line class="st2" x1="389.2" y1="432.4" x2="389.2" y2="451.1"/>
        <line class="st2" x1="393.6" y1="413.8" x2="393.6" y2="430.8"/>
        <line class="st2" x1="393.6" y1="432.4" x2="393.6" y2="451.1"/>
        <line class="st2" x1="398" y1="413.8" x2="398" y2="430.8"/>
        <line class="st2" x1="398" y1="432.4" x2="398" y2="451.1"/>
        <line class="st2" x1="402.4" y1="413.8" x2="402.4" y2="430.8"/>
        <line class="st2" x1="402.4" y1="432.4" x2="402.4" y2="451.1"/>
        <line class="st2" x1="406.8" y1="413.8" x2="406.8" y2="430.8"/>
        <line class="st2" x1="406.8" y1="432.4" x2="406.8" y2="451.1"/>
        <line class="st2" x1="411.3" y1="413.8" x2="411.3" y2="430.8"/>
        <line class="st2" x1="411.3" y1="432.4" x2="411.3" y2="451.1"/>
        <line class="st2" x1="415.7" y1="413.8" x2="415.7" y2="430.8"/>
        <line class="st2" x1="420" y1="413.8" x2="420" y2="430.8"/>
        <line class="st2" x1="415.7" y1="432.4" x2="415.7" y2="451.1"/>
        <rect class="st2" x="463.8" y="406.9" width="14" height="24.4"/>
        <line class="st2" x1="463.8" y1="431.3" x2="477.7" y2="406.9"/>
        <line class="st2" x1="463.8" y1="406.9" x2="477.7" y2="431.3"/>
        <rect class="st2" x="418.8" y="321.7" width="45.1" height="12.6" transform="translate(882.8 656) rotate(180)"/>
        <rect class="st2" x="429.6" y="322.9" width="19.8" height="10.3" transform="translate(879.1 656) rotate(180)"/>
        <rect class="st2" x="427.9" y="324.5" width="1.7" height="7" transform="translate(857.5 656) rotate(180)"/>
        <rect class="st2" x="449.4" y="324.5" width="1.7" height="7" transform="translate(900.6 656) rotate(180)"/>
        <line class="st2" x1="487.8" y1="321.7" x2="463.9" y2="321.7"/>
        <line class="st2" x1="487.8" y1="327.6" x2="463.9" y2="327.6"/>
        <polyline class="st2" points="383 282.2 383 295.4 375.8 295.4"/>
        <polyline class="st2" points="391.7 295.4 385.4 295.4 383 292.6"/>
        <polyline class="st2" points="400.7 282.2 400.7 295.4 393.3 295.4"/>
        <polyline class="st2" points="409.6 295.4 403.1 295.4 400.7 292.6"/>
        <polyline class="st2" points="418.7 282.2 418.7 295.4 411.4 295.4"/>
        <polyline class="st2" points="427.4 295.4 421 295.4 418.7 292.6"/>
        <polyline class="st2" points="435.7 282.2 435.7 295.4 429.1 295.4"/>
        <polyline class="st2" points="446.5 282.2 446.5 293 435.7 293"/>
        <polyline class="st2" points="446.5 282.2 446.5 295.4 452.8 295.4"/>
        <polyline class="st2" points="460.8 282.2 460.8 295.4 454.4 295.4"/>
        <polyline class="st2" points="471.4 282.2 471.4 293 460.8 293"/>
        <polyline class="st2" points="471.4 282.2 471.4 295.4 477.6 295.4"/>
        <line class="st2" x1="454.4" y1="298.7" x2="477.6" y2="298.7"/>
        <polyline class="st5" points="460.4 302.4 466.1 296.8 471.6 302.4 477.4 296.8"/>
        <line class="st2" x1="429.1" y1="298.7" x2="452.8" y2="298.7"/>
        <line class="st2" x1="411.4" y1="298.7" x2="427.4" y2="298.7"/>
        <polyline class="st5" points="435.3 302.4 441.1 296.8 446.7 302.4 452.6 296.8"/>
        <polyline class="st5" points="415.8 296.8 421.4 302.4 427.3 296.8"/>
        <line class="st2" x1="393.6" y1="298.7" x2="409.6" y2="298.7"/>
        <polyline class="st5" points="398 296.8 403.6 302.4 409.5 296.8"/>
        <line class="st2" x1="375.7" y1="298.7" x2="391.7" y2="298.7"/>
        <polyline class="st5" points="380.1 296.8 385.7 302.4 391.6 296.8"/>
        <line class="st5" x1="375" y1="240.7" x2="375" y2="264.3"/>
        <polyline class="st3" points="340.4 240.7 505.7 240.7 505.7 204.2 496.1 204.2"/>
        <line class="st3" x1="450.5" y1="204.2" x2="341" y2="204.2"/>
        <circle class="st3" cx="458.7" cy="204.2" r="8"/>
        <circle class="st3" cx="380.1" cy="135.5" r="8"/>
        <circle class="st3" cx="586.9" cy="204.2" r="8"/>
        <circle class="st3" cx="716.2" cy="204.2" r="8"/>
        <polyline class="st3" points="505.7 204.2 576.7 204.2 576.7 214 597.3 214 597.3 204.2 705.8 204.2 705.8 214 726.4 214 726.4 204.2"/>
        <line class="st2" x1="486.4" y1="296.8" x2="479.2" y2="296.8"/>
        <line class="st2" x1="532.7" y1="296.8" x2="517.7" y2="296.8"/>
        <line class="st2" x1="596.1" y1="296.8" x2="548.9" y2="296.8"/>
        <polyline class="st3" points="509.4 240.7 597.2 240.7 724.8 240.7 724.8 321.7"/>
        <line class="st2" x1="596.9" y1="296.8" x2="596.9" y2="304.9"/>
        <line class="st2" x1="596.9" y1="321.5" x2="596.9" y2="317.7"/>
        <rect class="st2" x="634" y="314.2" width="53.8" height="7.3"/>
        <rect class="st2" x="379.7" y="323.3" width="9.6" height="33.6"/>
        <g>
          <rect class="st2" x="382.2" y="326.4" width="5.2" height="7.2" rx=".9" ry=".9"/>
          <rect class="st6" x="380.8" y="329.5" width="3.3" height="1.2"/>
        </g>
        <g>
          <rect class="st2" x="382.2" y="336.1" width="5.2" height="7.2" rx=".9" ry=".9"/>
          <rect class="st6" x="380.8" y="339.2" width="3.3" height="1.2"/>
        </g>
        <g>
          <rect class="st2" x="382.2" y="346.3" width="5.2" height="7.2" rx=".9" ry=".9"/>
          <rect class="st6" x="380.8" y="349.3" width="3.3" height="1.2"/>
        </g>
        <rect class="st2" x="364.1" y="323.3" width="9.6" height="33.6" transform="translate(737.9 680.1) rotate(-180)"/>
        <g>
          <rect class="st2" x="365.9" y="326.4" width="5.2" height="7.2" rx=".9" ry=".9" transform="translate(737.1 660.1) rotate(-180)"/>
          <rect class="st6" x="369.2" y="329.5" width="3.3" height="1.2" transform="translate(741.8 660.1) rotate(-180)"/>
        </g>
        <g>
          <rect class="st2" x="365.9" y="336.1" width="5.2" height="7.2" rx=".9" ry=".9" transform="translate(737.1 679.5) rotate(-180)"/>
          <rect class="st6" x="369.2" y="339.2" width="3.3" height="1.2" transform="translate(741.8 679.5) rotate(-180)"/>
        </g>
        <g>
          <rect class="st2" x="365.9" y="346.3" width="5.2" height="7.2" rx=".9" ry=".9" transform="translate(737.1 699.8) rotate(-180)"/>
          <rect class="st6" x="369.2" y="349.3" width="3.3" height="1.2" transform="translate(741.8 699.8) rotate(-180)"/>
        </g>
        <polygon class="st3" points="452.8 473.7 452.8 480.6 65.6 480.6 65.6 486.7 452.8 486.7 590.9 486.7 590.9 473.7 452.8 473.7"/>
        <polygon class="st2" points="333.6 394.1 333.6 392.2 326.3 392.2 326.3 394.1 329.6 394.1 329.6 398.6 326.3 398.6 326.3 400.4 333.6 400.4 333.6 398.6 331.5 398.6 331.5 394.1 333.6 394.1"/>
        <line class="st2" x1="489.4" y1="436.7" x2="509.4" y2="436.7"/>
        <line class="st2" x1="489.4" y1="440.4" x2="509.4" y2="440.4"/>
        <line class="st2" x1="489.4" y1="444" x2="509.4" y2="444"/>
        <line class="st2" x1="489.4" y1="447.7" x2="509.4" y2="447.7"/>
        <line class="st0" x1="489.4" y1="451.4" x2="509.4" y2="451.4"/>
        <g class="st7">
          <g>
            <line class="st4" x1="73.2" y1="184.1" x2="324" y2="184.1"/>
            <path d="M71,184.1c1.1.4,2.4,1.1,3.2,1.8l-.6-1.8.6-1.8c-.8.7-2.1,1.4-3.2,1.8Z"/>
            <path d="M326.2,184.1c-1.1.4-2.4,1.1-3.2,1.8l.6-1.8-.6-1.8c.8.7,2.1,1.4,3.2,1.8Z"/>
          </g>
        </g>
        <g class="st7">
          <g>
            <line class="st4" x1="436.4" y1="251" x2="377.3" y2="251"/>
            <path d="M438.7,251c-1.1-.4-2.4-1.1-3.2-1.8l.6,1.8-.6,1.8c.8-.7,2.1-1.4,3.2-1.8Z"/>
            <path d="M375,251c1.1-.4,2.4-1.1,3.2-1.8l-.6,1.8.6,1.8c-.8-.7-2.1-1.4-3.2-1.8Z"/>
          </g>
        </g>
        <g class="st7">
          <g>
            <line class="st4" x1="429.6" y1="243.3" x2="429.6" y2="278.7"/>
            <path d="M429.6,241c-.4,1.1-1.1,2.4-1.8,3.2l1.8-.6,1.8.6c-.7-.8-1.4-2.1-1.8-3.2Z"/>
            <path d="M429.6,280.9c-.4-1.1-1.1-2.4-1.8-3.2l1.8.6,1.8-.6c-.7.8-1.4,2.1-1.8,3.2Z"/>
          </g>
        </g>
        <g class="st7">
          <path class="st6" d="M193.7,181.3c-.4,0-.7,0-1-.2s-.5-.3-.7-.5c-.2-.2-.2-.5-.2-.8s0-.5.2-.7c.2-.2.4-.4.7-.5.3-.1.6-.2,1.1-.2s.8,0,1.1.2c.3.1.5.3.7.5.2.2.2.5.2.7s0,.6-.2.8c-.2.2-.4.4-.7.5s-.6.2-1,.2ZM193.7,178.9c-.4,0-.7,0-1-.2s-.5-.2-.6-.4c-.1-.2-.2-.4-.2-.7s0-.5.2-.7c.1-.2.4-.4.6-.5.3-.1.6-.2.9-.2s.7,0,.9.2c.3.1.5.3.6.5.2.2.2.4.2.7s0,.5-.2.7-.3.3-.6.4-.6.2-1,.2ZM193.7,180.7c.4,0,.7,0,.9-.2.2-.2.3-.4.3-.7s-.1-.5-.3-.6c-.2-.2-.5-.2-.9-.2s-.7,0-.9.2c-.2.2-.3.4-.3.6s.1.5.3.7c.2.2.5.2.9.2ZM193.7,178.4c.3,0,.6,0,.8-.2s.3-.3.3-.6-.1-.4-.3-.6c-.2-.1-.5-.2-.8-.2s-.6,0-.8.2c-.2.1-.3.3-.3.6s0,.4.3.6.5.2.8.2Z"/>
          <path class="st6" d="M196.4,177.9l.4-1.4v.4s-.2,0-.3-.1-.1-.2-.1-.3,0-.3.1-.4.2-.1.3-.1.2,0,.3.1c0,0,.1.2.1.3s0,0,0,.1c0,0,0,0,0,.2,0,0,0,.1,0,.2l-.3,1h-.4Z"/>
          <path class="st6" d="M199.8,181.3v-.5l2-1.9c.2-.2.3-.3.4-.4s.1-.3.2-.4c0-.1,0-.2,0-.3,0-.3,0-.5-.3-.6-.2-.1-.4-.2-.8-.2s-.5,0-.7.1c-.2,0-.4.2-.6.4l-.5-.4c.2-.2.4-.4.8-.6.3-.1.7-.2,1.1-.2s.6,0,.9.2c.3.1.5.3.6.5.1.2.2.5.2.7s0,.3,0,.5c0,.2-.1.3-.2.5-.1.2-.3.4-.5.6l-1.8,1.7-.2-.3h3v.6h-3.6Z"/>
          <path class="st6" d="M204,177.9l.4-1.4v.4s-.2,0-.3-.1-.1-.2-.1-.3,0-.3.1-.4.2-.1.3-.1.2,0,.3.1c0,0,.1.2.1.3s0,0,0,.1c0,0,0,0,0,.2,0,0,0,.1,0,.2l-.3,1h-.4ZM205.3,177.9l.4-1.4v.4s-.2,0-.3-.1-.1-.2-.1-.3,0-.3.1-.4.2-.1.3-.1.2,0,.3.1.1.2.1.3,0,0,0,.1c0,0,0,0,0,.2,0,0,0,.1,0,.2l-.3,1h-.4Z"/>
        </g>
        <g class="st7">
          <g>
            <line class="st4" x1="138.2" y1="467.2" x2="138.2" y2="130.6"/>
            <path d="M138.2,469.5c.4-1.1,1.1-2.4,1.8-3.2l-1.8.6-1.8-.6c.7.8,1.4,2.1,1.8,3.2Z"/>
            <path d="M138.2,128.3c.4,1.1,1.1,2.4,1.8,3.2l-1.8-.6-1.8.6c.7-.8,1.4-2.1,1.8-3.2Z"/>
          </g>
        </g>
        <g class="st7">
          <g>
            <line class="st4" x1="84.9" y1="377.2" x2="84.9" y2="301"/>
            <path d="M84.9,379.5c.4-1.1,1.1-2.4,1.8-3.2l-1.8.6-1.8-.6c.7.8,1.4,2.1,1.8,3.2Z"/>
            <path d="M84.9,298.8c.4,1.1,1.1,2.4,1.8,3.2l-1.8-.6-1.8.6c.7-.8,1.4-2.1,1.8-3.2Z"/>
          </g>
        </g>
        <g class="st7">
          <path class="st6" d="M135.4,251.2c0,.3,0,.7-.2,1-.1.3-.3.6-.4.8l-.6-.3c.2-.2.3-.4.4-.6s.1-.5.1-.8,0-.7-.2-.9c-.2-.2-.4-.3-.6-.3s-.3,0-.5.1c-.1,0-.2.2-.3.5,0,.2-.1.5-.1.9v1.1l-2.6-.3v-2.8h.6v2.5l-.3-.4,2,.2-.3.4v-1c0-.5,0-.9.2-1.2.1-.3.3-.5.5-.7.2-.1.5-.2.8-.2s.5,0,.8.2c.2.1.4.3.6.6.1.3.2.6.2,1.1Z"/>
          <path class="st6" d="M135.4,248.9h-.5l-1.9-2c-.2-.2-.3-.3-.4-.4s-.3-.1-.4-.2c-.1,0-.2,0-.3,0-.3,0-.5,0-.6.3-.1.2-.2.4-.2.8s0,.5.1.7c0,.2.2.4.4.6l-.4.5c-.2-.2-.4-.4-.6-.8-.1-.3-.2-.7-.2-1.1s0-.6.2-.9c.1-.3.3-.5.5-.6.2-.1.5-.2.7-.2s.3,0,.5,0c.2,0,.3.1.5.2.2.1.4.3.6.5l1.7,1.8-.3.2v-3h.6v3.6Z"/>
          <path class="st6" d="M132,244.7l-1.4-.4h.4s0,.2-.1.3-.2.1-.3.1-.3,0-.4-.1-.1-.2-.1-.3,0-.2.1-.3c0,0,.2-.1.3-.1s0,0,.1,0c0,0,0,0,.2,0,0,0,.1,0,.2,0l1,.3v.4Z"/>
          <path class="st6" d="M134.1,241.3h-.5l-3.2-2.5v-.8l3.2,2.5v.4c-.1,0-.1-4-.1-4h.6v4.4ZM135.4,238.5h-1.8s-1.1,0-1.1,0v-.7h2.9v.7Z"/>
          <path class="st6" d="M132,235.1l-1.4-.4h.4s0,.2-.1.3-.2.1-.3.1-.3,0-.4-.1-.1-.2-.1-.3,0-.2.1-.3.2-.1.3-.1,0,0,.1,0c0,0,0,0,.2,0,0,0,.1,0,.2,0l1,.3v.4ZM132,236.4l-1.4-.4h.4s0,.2-.1.3-.2.1-.3.1-.3,0-.4-.1-.1-.2-.1-.3,0-.2.1-.3c0,0,.2-.1.3-.1s0,0,.1,0c0,0,0,0,.2,0,0,0,.1,0,.2,0l1,.3v.4Z"/>
        </g>
        <g class="st7">
          <path class="st6" d="M94,296.1c-.4,0-.7,0-1-.2-.3-.1-.5-.3-.7-.5-.2-.2-.2-.5-.2-.8s0-.5.2-.7c.2-.2.4-.4.7-.5.3-.1.6-.2,1.1-.2s.8,0,1.1.2c.3.1.5.3.7.5.2.2.2.5.2.7s0,.6-.2.8c-.2.2-.4.4-.7.5-.3.1-.6.2-1,.2ZM94,293.6c-.4,0-.7,0-1-.2-.3-.1-.5-.2-.6-.4-.1-.2-.2-.4-.2-.7s0-.5.2-.7c.1-.2.4-.4.6-.5.3-.1.6-.2.9-.2s.7,0,.9.2c.3.1.5.3.6.5.2.2.2.4.2.7s0,.5-.2.7-.3.3-.6.4c-.3.1-.6.2-1,.2ZM94,295.5c.4,0,.7,0,.9-.2.2-.2.3-.4.3-.7s-.1-.5-.3-.6c-.2-.2-.5-.2-.9-.2s-.7,0-.9.2c-.2.2-.3.4-.3.6s.1.5.3.7c.2.2.5.2.9.2ZM94,293.2c.3,0,.6,0,.8-.2.2-.1.3-.3.3-.6s-.1-.4-.3-.6c-.2-.1-.5-.2-.8-.2s-.6,0-.8.2c-.2.1-.3.3-.3.6s0,.4.3.6c.2.1.5.2.8.2Z"/>
          <path class="st6" d="M96.7,292.7l.4-1.4v.4s-.2,0-.3-.1c0,0-.1-.2-.1-.3s0-.3.1-.3c0,0,.2-.1.3-.1s.2,0,.3.1c0,0,.1.2.1.3s0,0,0,.1,0,0,0,.2c0,0,0,.1,0,.2l-.3,1h-.4Z"/>
          <path class="st6" d="M102.2,296.1c-.4,0-.8,0-1.1-.3s-.5-.5-.7-.8c-.2-.4-.2-.8-.2-1.3s0-1,.3-1.4.5-.7.8-.9c.4-.2.8-.3,1.2-.3s.5,0,.7,0,.4.1.6.2l-.3.6c-.1,0-.3-.2-.4-.2-.2,0-.3,0-.5,0-.5,0-.9.2-1.2.5s-.4.8-.4,1.4,0,.2,0,.4c0,.1,0,.3,0,.4l-.2-.2c0-.2.2-.4.3-.5.2-.1.3-.3.6-.3.2,0,.4-.1.7-.1s.6,0,.9.2c.3.1.5.3.6.5s.2.5.2.8,0,.6-.2.8c-.2.2-.4.4-.6.5-.3.1-.6.2-.9.2ZM102.2,295.5c.2,0,.4,0,.6-.1.2,0,.3-.2.4-.3s.1-.3.1-.5c0-.3-.1-.5-.3-.7s-.5-.3-.8-.3-.4,0-.6.1c-.2,0-.3.2-.4.3s-.1.3-.1.5,0,.3.1.5c0,.1.2.3.4.3.2,0,.4.1.6.1Z"/>
          <path class="st6" d="M104.5,292.7l.4-1.4v.4s-.2,0-.3-.1c0,0-.1-.2-.1-.3s0-.3.1-.3c0,0,.2-.1.3-.1s.2,0,.3.1c0,0,.1.2.1.3s0,0,0,.1,0,0,0,.2c0,0,0,.1,0,.2l-.3,1h-.4ZM105.9,292.7l.4-1.4v.4s-.2,0-.3-.1c0,0-.1-.2-.1-.3s0-.3.1-.3c0,0,.2-.1.3-.1s.2,0,.3.1c0,0,.1.2.1.3s0,0,0,.1,0,0,0,.2,0,.1,0,.2l-.3,1h-.4Z"/>
        </g>
        <g class="st7">
          <path class="st6" d="M148,341.4h4.7l-.3.3v-1.4h.6v1.8h-5v-.7Z"/>
          <path class="st6" d="M147.9,344.7c0-.3,0-.7.2-1,.1-.3.3-.6.4-.8l.6.3c-.2.2-.3.4-.4.6,0,.3-.1.5-.1.9s0,.7.2.9.4.3.6.3.5,0,.6-.3.2-.5.2-.9v-.4h.5l1.8,1.5h-.3c0,0,0-2.6,0-2.6h.6v3.3h-.5l-1.8-1.5.2-.4v.2c0,.6-.1,1-.4,1.4-.3.3-.6.4-1,.4s-.5,0-.8-.2-.4-.3-.5-.6c-.1-.3-.2-.6-.2-1.1Z"/>
          <path class="st6" d="M151.3,347.3l1.4.4h-.4s0-.2.1-.3c0,0,.2-.1.3-.1s.3,0,.4.1c0,0,.1.2.1.3s0,.2-.1.3c0,0-.2.1-.3.1s0,0-.1,0c0,0,0,0-.2,0,0,0-.1,0-.2,0l-1-.3v-.4Z"/>
          <path class="st6" d="M148,351.6h4.7l-.3.3v-1.4h.6v1.8h-5v-.7Z"/>
          <path class="st6" d="M147.9,355.4c0-.4,0-.7.3-1,.2-.3.5-.5.9-.7s.8-.3,1.4-.3,1,0,1.4.3.7.4.9.7c.2.3.3.7.3,1s0,.7-.3,1c-.2.3-.5.5-.9.7-.4.2-.8.3-1.4.3s-1,0-1.4-.3c-.4-.2-.7-.4-.9-.7-.2-.3-.3-.7-.3-1ZM148.6,355.4c0,.3,0,.5.2.7s.4.3.6.5c.3.1.6.2,1.1.2s.8,0,1.1-.2c.3-.1.5-.3.6-.5.1-.2.2-.4.2-.7s0-.5-.2-.7c-.1-.2-.4-.4-.6-.5-.3-.1-.6-.2-1.1-.2s-.8,0-1.1.2c-.3.1-.5.3-.6.5s-.2.4-.2.7Z"/>
          <path class="st6" d="M151.3,358.1l1.4.4h-.4s0-.2.1-.3c0,0,.2-.1.3-.1s.3,0,.4.1c0,0,.1.2.1.3s0,.2-.1.3c0,0-.2.1-.3.1s0,0-.1,0c0,0,0,0-.2,0,0,0-.1,0-.2,0l-1-.3v-.4ZM151.3,359.5l1.4.4h-.4s0-.2.1-.3c0,0,.2-.1.3-.1s.3,0,.4.1c0,0,.1.2.1.3s0,.2-.1.3c0,0-.2.1-.3.1s0,0-.1,0c0,0,0,0-.2,0,0,0-.1,0-.2,0l-1-.3v-.4Z"/>
        </g>
        <g class="st7">
          <path class="st6" d="M87.9,332h4.7l-.3.3v-1.4h.6v1.8h-5v-.7Z"/>
          <path class="st6" d="M87.9,334.6l4.7,2.1-.3.2v-2.9l.3.4h-1.2v-.7h1.5v3.7h-.5l-4.5-2v-.8Z"/>
          <path class="st6" d="M91.2,338l1.4.4h-.4s0-.2.1-.3c0,0,.2-.1.3-.1s.3,0,.4.1c0,0,.1.2.1.3s0,.2-.1.3c0,0-.2.1-.3.1s0,0-.1,0c0,0,0,0-.2,0,0,0-.1,0-.2,0l-1-.3v-.4Z"/>
          <path class="st6" d="M87.8,343.5c0-.4,0-.7.2-1,.1-.3.3-.5.5-.7.2-.2.5-.2.8-.2s.5,0,.7.2.4.4.5.7c.1.3.2.6.2,1.1s0,.8-.2,1.1c-.1.3-.3.5-.5.7-.2.2-.5.2-.7.2s-.6,0-.8-.2c-.2-.2-.4-.4-.5-.7-.1-.3-.2-.6-.2-1ZM88.4,343.5c0,.4,0,.7.2.9.2.2.4.3.7.3s.5-.1.6-.3c.2-.2.2-.5.2-.9s0-.7-.2-.9c-.2-.2-.4-.3-.6-.3s-.5.1-.7.3c-.2.2-.2.5-.2.9ZM90.3,343.5c0-.4,0-.7.2-1,.1-.3.2-.5.4-.6s.4-.2.7-.2.5,0,.7.2.4.4.5.6.2.6.2.9,0,.7-.2.9c-.1.3-.3.5-.5.6-.2.2-.4.2-.7.2s-.5,0-.7-.2c-.2-.1-.3-.3-.4-.6-.1-.3-.2-.6-.2-1ZM90.8,343.5c0,.3,0,.6.2.8s.3.3.6.3.4-.1.6-.3c.1-.2.2-.5.2-.8s0-.6-.2-.8c-.1-.2-.3-.3-.6-.3s-.4,0-.6.3-.2.5-.2.8Z"/>
          <path class="st6" d="M91.2,346.1l1.4.4h-.4s0-.2.1-.3c0,0,.2-.1.3-.1s.3,0,.4.1c0,0,.1.2.1.3s0,.2-.1.3c0,0-.2.1-.3.1s0,0-.1,0c0,0,0,0-.2,0,0,0-.1,0-.2,0l-1-.3v-.4ZM91.2,347.5l1.4.4h-.4s0-.2.1-.3c0,0,.2-.1.3-.1s.3,0,.4.1c0,0,.1.2.1.3s0,.2-.1.3c0,0-.2.1-.3.1s0,0-.1,0c0,0,0,0-.2,0,0,0-.1,0-.2,0l-1-.3v-.4Z"/>
        </g>
        <g class="st7">
          <path class="st6" d="M205.2,296.1v-5h.7v4.3h2.7v.6h-3.4Z"/>
          <path class="st6" d="M211,296.1c-.4,0-.7,0-1-.2s-.5-.4-.7-.7c-.2-.3-.3-.6-.3-1s0-.7.3-1c.2-.3.4-.5.7-.7.3-.2.6-.2,1-.2s.7,0,1,.2.5.4.7.7c.2.3.3.6.3,1s0,.7-.3,1c-.2.3-.4.5-.7.7s-.6.2-1,.2ZM211,295.5c.2,0,.5,0,.6-.2.2-.1.3-.3.5-.5s.2-.4.2-.7,0-.5-.2-.7-.3-.3-.5-.5-.4-.2-.6-.2-.5,0-.6.2-.3.3-.5.5-.2.4-.2.7,0,.5.2.7.3.4.5.5c.2.1.4.2.6.2Z"/>
          <path class="st6" d="M215.4,296.1c-.3,0-.6,0-.8-.2-.2-.1-.4-.3-.6-.5-.1-.2-.2-.5-.2-.9v-2.2h.7v2.1c0,.4,0,.6.3.8s.4.3.7.3.4,0,.6-.1c.2,0,.3-.2.4-.4,0-.2.1-.4.1-.7v-1.9h.7v3.8h-.6v-1,.3c0,.3-.2.4-.4.6-.2.1-.5.2-.8.2Z"/>
          <path class="st6" d="M220.7,292.3c.3,0,.6,0,.8.2s.4.3.5.5c.1.2.2.5.2.9v2.2h-.7v-2.1c0-.4,0-.6-.3-.8-.2-.2-.4-.3-.7-.3s-.5,0-.6.1c-.2,0-.3.2-.4.4s-.1.4-.1.7v1.9h-.7v-3.8h.7v1-.3c0-.2.2-.4.5-.6.3-.1.6-.2.9-.2Z"/>
          <path class="st6" d="M225,295.9c-.4,0-.7,0-1-.2-.3-.2-.5-.4-.7-.6-.2-.3-.3-.6-.3-1s0-.7.3-1c.2-.3.4-.5.7-.6s.6-.2,1-.2.6,0,.9.2.5.3.6.6c.2.3.2.6.2,1s0,.7-.2,1c-.2.3-.4.5-.6.6-.3.1-.6.2-.9.2ZM225.1,297.5c-.3,0-.7,0-1-.1-.3,0-.6-.2-.8-.4l.3-.5c.2.2.4.3.6.4.3,0,.5.1.8.1.4,0,.8-.1,1-.3s.3-.5.3-1v-1.5c0,0,0-.8,0-.8v-1h.6v3.2c0,.7-.2,1.1-.5,1.5-.3.3-.8.5-1.5.5ZM225.1,295.3c.3,0,.5,0,.7-.2.2-.1.3-.2.5-.4.1-.2.2-.4.2-.6s0-.5-.2-.6-.3-.3-.5-.4c-.2-.1-.4-.2-.7-.2s-.5,0-.7.2c-.2.1-.3.2-.5.4-.1.2-.2.4-.2.6s0,.5.2.6c.1.2.3.3.5.4.2.1.4.2.7.2Z"/>
          <path class="st6" d="M230,296.1c-.4,0-.8,0-1.1-.2s-.5-.4-.7-.7c-.2-.3-.3-.6-.3-1s0-.7.2-1c.2-.3.4-.5.7-.7s.6-.2,1-.2.7,0,1,.2c.3.2.5.4.7.7.2.3.2.6.2,1s0,0,0,0c0,0,0,0,0,.1h-3.2v-.5h2.8l-.3.2c0-.2,0-.5-.1-.6s-.2-.3-.4-.4c-.2-.1-.4-.2-.6-.2s-.4,0-.6.2c-.2.1-.3.3-.4.4s-.2.4-.2.7h0c0,.4,0,.6.2.8.1.2.3.3.5.5.2.1.4.2.7.2s.4,0,.6-.1c.2,0,.3-.2.5-.3l.4.4c-.2.2-.4.3-.6.5-.3.1-.5.2-.8.2Z"/>
          <path class="st6" d="M203.5,304.7c-.3,0-.7,0-1-.2-.3-.1-.6-.3-.8-.4l.3-.6c.2.2.4.3.6.4.3,0,.5.1.9.1s.7,0,.9-.2c.2-.2.3-.4.3-.6s0-.5-.3-.6c-.2-.2-.5-.2-.9-.2h-.4v-.5l1.5-1.8v.3c0,0-2.6,0-2.6,0v-.6h3.3v.5l-1.5,1.8-.4-.2h.2c.6,0,1,.1,1.3.4.3.3.5.6.5,1s0,.5-.2.8c-.1.2-.3.4-.6.5-.3.1-.6.2-1.1.2Z"/>
          <path class="st6" d="M207.6,299.6c.4,0,.8,0,1.1.3s.5.5.7.8c.2.4.2.8.2,1.3s0,1-.3,1.4-.5.7-.8.9c-.3.2-.8.3-1.2.3s-.5,0-.7,0-.4-.1-.6-.2l.3-.6c.1,0,.3.1.4.2.2,0,.3,0,.5,0,.5,0,.9-.2,1.2-.5.3-.3.4-.8.4-1.4s0-.2,0-.4c0-.1,0-.3,0-.4l.2.2c0,.2-.2.4-.3.5-.2.1-.3.3-.6.3s-.4.1-.7.1-.6,0-.9-.2c-.3-.1-.5-.3-.6-.5-.1-.2-.2-.5-.2-.8s0-.6.2-.8c.2-.2.4-.4.6-.5.3-.1.6-.2.9-.2ZM207.7,300.2c-.2,0-.4,0-.6.1-.2,0-.3.2-.4.3s-.1.3-.1.5c0,.3.1.5.3.7s.5.3.8.3.4,0,.6-.1c.2,0,.3-.2.4-.3s.1-.3.1-.5,0-.3-.1-.5c0-.1-.2-.3-.4-.3-.2,0-.4-.1-.7-.1Z"/>
          <path class="st6" d="M212,299.6c.4,0,.8,0,1.1.3s.5.5.7.8c.2.4.2.8.2,1.3s0,1-.3,1.4-.5.7-.8.9c-.3.2-.8.3-1.2.3s-.5,0-.7,0-.4-.1-.6-.2l.3-.6c.1,0,.3.1.4.2.2,0,.3,0,.5,0,.5,0,.9-.2,1.2-.5.3-.3.4-.8.4-1.4s0-.2,0-.4c0-.1,0-.3,0-.4l.2.2c0,.2-.2.4-.3.5-.2.1-.3.3-.6.3s-.4.1-.7.1-.6,0-.9-.2c-.3-.1-.5-.3-.6-.5-.1-.2-.2-.5-.2-.8s0-.6.2-.8c.2-.2.4-.4.6-.5.3-.1.6-.2.9-.2ZM212,300.2c-.2,0-.4,0-.6.1-.2,0-.3.2-.4.3s-.1.3-.1.5c0,.3.1.5.3.7s.5.3.8.3.4,0,.6-.1c.2,0,.3-.2.4-.3s.1-.3.1-.5,0-.3-.1-.5c0-.1-.2-.3-.4-.3-.2,0-.4-.1-.7-.1Z"/>
          <path class="st6" d="M216.8,304.7c-.4,0-.7,0-1-.3-.3-.2-.5-.5-.7-.9s-.3-.8-.3-1.4,0-1,.3-1.4.4-.7.7-.9c.3-.2.7-.3,1-.3s.7,0,1,.3.5.5.7.9c.2.4.3.8.3,1.4s0,1-.3,1.4c-.2.4-.4.7-.7.9s-.7.3-1,.3ZM216.8,304c.3,0,.5,0,.7-.2.2-.1.3-.4.5-.6s.2-.6.2-1.1,0-.8-.2-1.1c-.1-.3-.3-.5-.5-.6s-.4-.2-.7-.2-.5,0-.7.2-.4.4-.5.6c-.1.3-.2.6-.2,1.1s0,.8.2,1.1.3.5.5.6c.2.1.4.2.7.2Z"/>
          <path class="st6" d="M222.8,304.6c-.3,0-.6,0-.9-.1-.3,0-.5-.2-.7-.3l.3-.5c.2.1.4.2.6.3.2,0,.5.1.7.1s.5,0,.7-.1c.1,0,.2-.2.2-.4s0-.2-.1-.3c0,0-.2-.1-.3-.1-.1,0-.3,0-.5,0-.2,0-.3,0-.5,0-.2,0-.3,0-.5-.2-.1,0-.3-.2-.3-.3,0-.1-.1-.3-.1-.5s0-.4.2-.6.3-.3.5-.4c.2,0,.5-.1.8-.1s.5,0,.7,0c.3,0,.5.1.6.3l-.3.5c-.2-.1-.3-.2-.5-.2-.2,0-.4,0-.6,0-.3,0-.5,0-.7.1-.1,0-.2.2-.2.4s0,.2.1.3c0,0,.2.1.3.2.1,0,.3,0,.5,0,.2,0,.3,0,.5,0,.2,0,.3,0,.5.2.1,0,.3.2.3.3,0,.1.1.3.1.5s0,.4-.2.6c-.1.2-.3.3-.6.4-.2,0-.5.1-.9.1Z"/>
          <path class="st6" d="M226.8,304.6c-.4,0-.7,0-1-.2s-.5-.4-.7-.7c-.2-.3-.2-.6-.2-1s0-.7.2-1c.2-.3.4-.5.7-.7.3-.2.6-.2,1-.2s.6,0,.9.2.5.4.6.6c.1.3.2.6.2,1.1s0,.8-.2,1.1c-.2.3-.4.5-.6.6-.3.1-.5.2-.9.2ZM226.9,304.1c.2,0,.4,0,.6-.2.2-.1.3-.3.5-.5s.2-.4.2-.7,0-.5-.2-.7-.3-.3-.5-.5-.4-.2-.6-.2-.5,0-.6.2-.3.3-.5.5-.2.4-.2.7,0,.5.2.7.3.4.5.5c.2.1.4.2.6.2ZM228.1,306v-3.2c0,0,0-.9,0-.9v-1h.7v5.1h-.7Z"/>
          <path class="st6" d="M229.6,301.4v-.6h2.4v.6h-2.4ZM230.2,304.6v-4.1c0-.4.1-.7.3-.9.2-.2.5-.3.9-.3s.3,0,.4,0c.1,0,.2,0,.3.2l-.2.5c0,0-.2,0-.2-.1,0,0-.2,0-.3,0-.2,0-.3,0-.5.2-.1.1-.2.3-.2.5v.8s0,3.3,0,3.3h-.7Z"/>
          <path class="st6" d="M232.1,301.4v-.6h2.4v.6h-2.4ZM233.9,304.6c-.4,0-.7-.1-.9-.3-.2-.2-.3-.5-.3-.9v-3.4h.7v3.4c0,.2,0,.4.2.5.1.1.2.2.4.2s.4,0,.5-.2l.2.5c-.1,0-.2.2-.4.2-.1,0-.3,0-.4,0Z"/>
        </g>
        <g class="st7">
          <path class="st6" d="M387.4,263.2c-.4,0-.7,0-1-.2-.3-.1-.6-.3-.8-.5-.2-.2-.4-.5-.5-.8-.1-.3-.2-.6-.2-1s0-.7.2-1c.1-.3.3-.6.6-.8s.5-.4.8-.5c.3-.1.7-.2,1-.2s.7,0,1.1.2c.3.1.6.3.8.6l-.5.4c-.2-.2-.4-.3-.6-.4-.2,0-.5-.1-.8-.1s-.5,0-.8.1c-.2,0-.4.2-.6.4s-.3.4-.4.6c0,.2-.1.5-.1.8s0,.5.1.8.2.4.4.6.4.3.6.4c.2,0,.5.1.8.1s.5,0,.8-.1c.2,0,.4-.2.6-.4l.5.4c-.2.3-.5.4-.8.6-.3.1-.7.2-1.1.2Z"/>
          <path class="st6" d="M391.8,263.2c-.4,0-.7,0-1-.2s-.5-.4-.7-.7c-.2-.3-.3-.6-.3-1s0-.7.3-1c.2-.3.4-.5.7-.7s.6-.2,1-.2.7,0,1,.2.5.4.7.7c.2.3.3.6.3,1s0,.7-.3,1c-.2.3-.4.5-.7.7s-.6.2-1,.2ZM391.8,262.6c.2,0,.5,0,.6-.2.2-.1.3-.3.5-.5s.2-.4.2-.7,0-.5-.2-.7-.3-.3-.5-.5c-.2-.1-.4-.2-.6-.2s-.5,0-.6.2c-.2.1-.3.3-.5.5s-.2.4-.2.7,0,.5.2.7.3.4.5.5c.2.1.4.2.6.2Z"/>
          <path class="st6" d="M395.8,263.2c-.3,0-.5,0-.7-.1-.2,0-.4-.2-.5-.4s-.2-.4-.2-.6,0-.4.1-.6c0-.2.3-.3.5-.4.2,0,.5-.1.9-.1h1.2v.5h-1.2c-.3,0-.6,0-.7.2-.1.1-.2.3-.2.4s0,.3.2.4c.1.1.3.2.6.2s.5,0,.7-.2c.2-.1.3-.3.4-.5v.5c0,.2-.1.4-.3.5-.2.1-.5.2-.9.2ZM397,263.1v-.8h0v-1.5c0-.3,0-.5-.3-.7s-.4-.2-.8-.2-.4,0-.7.1c-.2,0-.4.2-.5.3l-.3-.5c.2-.2.4-.3.7-.4.3,0,.6-.1.9-.1.5,0,.9.1,1.2.4.3.3.4.6.4,1.1v2.3h-.6Z"/>
          <path class="st6" d="M398.4,259.9v-.6h2.4v.6h-2.4ZM400.2,263.2c-.4,0-.7-.1-.9-.3-.2-.2-.3-.5-.3-.9v-3.4h.7v3.4c0,.2,0,.4.2.5.1.1.2.2.4.2s.4,0,.5-.2l.2.5c-.1,0-.2.2-.4.2-.1,0-.3,0-.4,0Z"/>
          <path class="st6" d="M406.1,263.2c-.4,0-.7,0-1-.2-.3-.1-.6-.3-.8-.5-.2-.2-.4-.5-.5-.8-.1-.3-.2-.6-.2-1s0-.7.2-1c.1-.3.3-.6.6-.8s.5-.4.8-.5c.3-.1.7-.2,1-.2s.7,0,1.1.2c.3.1.6.3.8.6l-.5.4c-.2-.2-.4-.3-.6-.4-.2,0-.5-.1-.8-.1s-.5,0-.8.1c-.2,0-.4.2-.6.4s-.3.4-.4.6c0,.2-.1.5-.1.8s0,.5.1.8.2.4.4.6.4.3.6.4c.2,0,.5.1.8.1s.5,0,.8-.1c.2,0,.4-.2.6-.4l.5.4c-.2.3-.5.4-.8.6-.3.1-.7.2-1.1.2Z"/>
          <path class="st6" d="M410.9,259.3c.3,0,.6,0,.8.2.2.1.4.3.5.5.1.2.2.5.2.9v2.2h-.7v-2.1c0-.4,0-.6-.3-.8s-.4-.3-.7-.3-.5,0-.6.1c-.2,0-.3.2-.4.4,0,.2-.1.4-.1.7v1.9h-.7v-5.3h.7v2.5-.3c0-.2.2-.4.4-.6.3-.1.6-.2.9-.2Z"/>
          <path class="st6" d="M415.4,263.2c-.4,0-.8,0-1.1-.2s-.5-.4-.7-.7c-.2-.3-.3-.6-.3-1s0-.7.2-1c.2-.3.4-.5.7-.7s.6-.2,1-.2.7,0,1,.2.5.4.7.7c.2.3.2.6.2,1s0,0,0,0,0,0,0,.1h-3.2v-.5h2.8l-.3.2c0-.2,0-.5-.1-.6s-.2-.3-.4-.4c-.2-.1-.4-.2-.6-.2s-.4,0-.6.2c-.2.1-.3.3-.4.4s-.2.4-.2.7h0c0,.4,0,.6.2.8.1.2.3.3.5.5.2.1.4.2.7.2s.4,0,.6-.1c.2,0,.3-.2.5-.3l.4.4c-.2.2-.4.3-.6.5-.3.1-.5.2-.8.2Z"/>
          <path class="st6" d="M419.7,263.2c-.4,0-.7,0-1-.2s-.5-.4-.7-.7c-.2-.3-.3-.6-.3-1s0-.7.3-1c.2-.3.4-.5.7-.7s.6-.2,1-.2.6,0,.9.2c.3.1.5.3.6.6l-.5.3c-.1-.2-.3-.3-.4-.4-.2,0-.4-.1-.6-.1s-.5,0-.7.2c-.2.1-.3.3-.5.5s-.2.4-.2.7,0,.5.2.7.3.4.5.5c.2.1.4.2.7.2s.4,0,.6-.1c.2,0,.3-.2.4-.4l.5.3c-.1.3-.4.5-.6.6-.3.1-.6.2-.9.2Z"/>
          <path class="st6" d="M422.1,263.1v-5.3h.7v5.3h-.7ZM422.7,262.2v-.9s2.2-2,2.2-2h.8l-1.7,1.6-.4.3-1,.9ZM425,263.1l-1.5-1.8.4-.5,1.9,2.4h-.8Z"/>
          <path class="st6" d="M395.1,270.4v-5h1.9c.4,0,.8,0,1.1.2.3.1.5.3.7.6.2.3.2.6.2.9s0,.7-.2.9c-.2.3-.4.5-.7.6s-.7.2-1.1.2h-1.5l.3-.3v1.8h-.7ZM395.8,268.6l-.3-.3h1.5c.5,0,.8,0,1-.3.2-.2.4-.5.4-.8s-.1-.6-.4-.8c-.2-.2-.6-.3-1-.3h-1.5l.3-.4v2.9ZM398.4,270.4l-1.3-1.8h.8l1.3,1.8h-.8Z"/>
          <path class="st6" d="M401.7,270.4c-.4,0-.7,0-1-.2s-.5-.4-.7-.7c-.2-.3-.3-.6-.3-1s0-.7.3-1c.2-.3.4-.5.7-.7s.6-.2,1-.2.7,0,1,.2.5.4.7.7c.2.3.3.6.3,1s0,.7-.3,1c-.2.3-.4.5-.7.7s-.6.2-1,.2ZM401.7,269.8c.2,0,.5,0,.6-.2.2-.1.3-.3.5-.5s.2-.4.2-.7,0-.5-.2-.7-.3-.3-.5-.5c-.2-.1-.4-.2-.6-.2s-.5,0-.6.2c-.2.1-.3.3-.5.5s-.2.4-.2.7,0,.5.2.7.3.4.5.5c.2.1.4.2.6.2Z"/>
          <path class="st6" d="M406.2,270.4c-.4,0-.7,0-1-.2s-.5-.4-.7-.7c-.2-.3-.3-.6-.3-1s0-.7.3-1c.2-.3.4-.5.7-.7s.6-.2,1-.2.7,0,1,.2.5.4.7.7c.2.3.3.6.3,1s0,.7-.3,1c-.2.3-.4.5-.7.7s-.6.2-1,.2ZM406.2,269.8c.2,0,.5,0,.6-.2.2-.1.3-.3.5-.5s.2-.4.2-.7,0-.5-.2-.7-.3-.3-.5-.5c-.2-.1-.4-.2-.6-.2s-.5,0-.6.2c-.2.1-.3.3-.5.5s-.2.4-.2.7,0,.5.2.7.3.4.5.5c.2.1.4.2.6.2Z"/>
          <path class="st6" d="M413.8,266.6c.3,0,.6,0,.8.2.2.1.4.3.5.5.1.2.2.5.2.9v2.2h-.7v-2.1c0-.4,0-.6-.3-.8s-.4-.3-.7-.3-.4,0-.6.1c-.2,0-.3.2-.4.4,0,.2-.1.4-.1.7v1.9h-.7v-2.1c0-.4,0-.6-.3-.8s-.4-.3-.7-.3-.4,0-.6.1c-.2,0-.3.2-.4.4,0,.2-.1.4-.1.7v1.9h-.7v-3.8h.7v1-.3c0-.2.2-.4.4-.6.2-.1.5-.2.9-.2s.7,0,.9.3c.3.2.4.4.5.8h-.3c.1-.4.3-.6.6-.8s.6-.3,1-.3Z"/>
        </g>
        <g class="st7">
          <path class="st6" d="M555.9,266.6c-.4,0-.7,0-1-.2-.3-.1-.6-.3-.8-.5s-.4-.5-.5-.8c-.1-.3-.2-.6-.2-1s0-.7.2-1c.1-.3.3-.6.6-.8.2-.2.5-.4.8-.5.3-.1.7-.2,1-.2s.7,0,1.1.2.6.3.8.6l-.5.4c-.2-.2-.4-.3-.6-.4-.2,0-.5-.1-.8-.1s-.5,0-.8.1c-.2,0-.4.2-.6.4s-.3.4-.4.6c0,.2-.1.5-.1.8s0,.5.1.8c0,.2.2.4.4.6.2.2.4.3.6.4.2,0,.5.1.8.1s.5,0,.8-.1c.2,0,.4-.2.6-.5l.5.4c-.2.3-.5.4-.8.6-.3.1-.7.2-1.1.2Z"/>
          <path class="st6" d="M560.3,266.6c-.4,0-.7,0-1-.2-.3-.2-.5-.4-.7-.7-.2-.3-.3-.6-.3-1s0-.7.3-1c.2-.3.4-.5.7-.7.3-.2.6-.2,1-.2s.7,0,1,.2c.3.2.5.4.7.7.2.3.3.6.3,1s0,.7-.3,1c-.2.3-.4.5-.7.7-.3.2-.6.2-1,.2ZM560.3,266c.2,0,.5,0,.6-.2.2-.1.3-.3.5-.5.1-.2.2-.4.2-.7s0-.5-.2-.7c-.1-.2-.3-.3-.5-.5s-.4-.2-.6-.2-.5,0-.6.2-.3.3-.5.5c-.1.2-.2.4-.2.7s0,.5.2.7c.1.2.3.4.5.5.2.1.4.2.6.2Z"/>
          <path class="st6" d="M565.2,262.7c.3,0,.6,0,.8.2s.4.3.5.5c.1.2.2.5.2.9v2.2h-.7v-2.1c0-.4,0-.6-.3-.8-.2-.2-.4-.3-.7-.3s-.5,0-.6.1c-.2,0-.3.2-.4.4,0,.2-.1.4-.1.7v1.9h-.7v-3.8h.7v1-.3c0-.2.2-.4.5-.6s.6-.2.9-.2Z"/>
          <path class="st6" d="M567.4,263.3v-.6h2.4v.6h-2.4ZM568.1,266.5v-4.1c0-.4.1-.7.3-.9s.5-.3.9-.3.3,0,.4,0,.2,0,.3.2l-.2.5c0,0-.2,0-.2-.1,0,0-.2,0-.3,0-.2,0-.3,0-.5.2-.1.1-.2.3-.2.5v.8s0,3.3,0,3.3h-.7Z"/>
          <path class="st6" d="M570.6,266.6c-.1,0-.2,0-.3-.1,0,0-.1-.2-.1-.4s0-.3.1-.3c0,0,.2-.1.3-.1s.2,0,.3.1c0,0,.1.2.1.3s0,.3-.1.4c0,0-.2.1-.3.1Z"/>
          <path class="st6" d="M548.8,273.7v-5h1.9c.4,0,.8,0,1.1.2.3.1.5.3.7.6.2.3.2.6.2.9s0,.7-.2.9c-.2.3-.4.5-.7.6-.3.1-.7.2-1.1.2h-1.5l.3-.3v1.8h-.7ZM549.5,272l-.3-.3h1.5c.5,0,.8,0,1-.3s.4-.5.4-.8-.1-.6-.4-.8-.6-.3-1-.3h-1.5l.3-.4v2.9ZM552.1,273.7l-1.3-1.8h.8l1.3,1.8h-.8Z"/>
          <path class="st6" d="M555.4,273.8c-.4,0-.7,0-1-.2-.3-.2-.5-.4-.7-.7-.2-.3-.3-.6-.3-1s0-.7.3-1c.2-.3.4-.5.7-.7.3-.2.6-.2,1-.2s.7,0,1,.2c.3.2.5.4.7.7.2.3.3.6.3,1s0,.7-.3,1c-.2.3-.4.5-.7.7-.3.2-.6.2-1,.2ZM555.4,273.2c.2,0,.5,0,.6-.2.2-.1.3-.3.4-.5.1-.2.2-.4.2-.7s0-.5-.2-.7c-.1-.2-.3-.3-.4-.5s-.4-.2-.6-.2-.5,0-.6.2-.3.3-.5.5c-.1.2-.2.4-.2.7s0,.5.2.7c.1.2.3.4.5.5.2.1.4.2.6.2Z"/>
          <path class="st6" d="M559.9,273.8c-.4,0-.7,0-1-.2-.3-.2-.5-.4-.7-.7-.2-.3-.3-.6-.3-1s0-.7.3-1c.2-.3.4-.5.7-.7.3-.2.6-.2,1-.2s.7,0,1,.2c.3.2.5.4.7.7.2.3.3.6.3,1s0,.7-.3,1c-.2.3-.4.5-.7.7-.3.2-.6.2-1,.2ZM559.9,273.2c.2,0,.5,0,.6-.2.2-.1.3-.3.5-.5.1-.2.2-.4.2-.7s0-.5-.2-.7c-.1-.2-.3-.3-.5-.5s-.4-.2-.6-.2-.5,0-.6.2-.3.3-.5.5c-.1.2-.2.4-.2.7s0,.5.2.7c.1.2.3.4.5.5.2.1.4.2.6.2Z"/>
          <path class="st6" d="M567.5,269.9c.3,0,.6,0,.8.2s.4.3.5.5c.1.2.2.5.2.9v2.2h-.7v-2.1c0-.4,0-.6-.3-.8-.2-.2-.4-.3-.7-.3s-.4,0-.6.1c-.2,0-.3.2-.4.4,0,.2-.1.4-.1.7v1.9h-.7v-2.1c0-.4,0-.6-.3-.8-.2-.2-.4-.3-.7-.3s-.4,0-.6.1c-.2,0-.3.2-.4.4,0,.2-.1.4-.1.7v1.9h-.7v-3.8h.7v1-.3c0-.2.2-.4.4-.6.2-.1.5-.2.9-.2s.7,0,.9.3c.3.2.4.4.5.8h-.3c.1-.4.3-.6.6-.8.3-.2.6-.3,1-.3Z"/>
          <path class="st6" d="M571.8,272.5v-.5l2.5-3.2h.8l-2.5,3.2h-.4c0-.1,4-.1,4-.1v.6h-4.4ZM574.6,273.7v-1.8s0-1.1,0-1.1h.7v2.9h-.7Z"/>
          <path class="st6" d="M549.9,280.9v-4.7l.3.3h-1.4v-.6h1.8v5h-.7Z"/>
          <path class="st6" d="M553.8,281c-.4,0-.8,0-1.1-.3-.3-.2-.5-.5-.7-.8s-.2-.8-.2-1.3,0-1,.3-1.4.5-.7.8-.9c.4-.2.8-.3,1.2-.3s.5,0,.7,0c.2,0,.4.1.6.2l-.3.6c-.1,0-.3-.2-.4-.2-.2,0-.3,0-.5,0-.5,0-.9.2-1.2.5-.3.3-.4.8-.4,1.4s0,.2,0,.4c0,.1,0,.3,0,.4l-.2-.2c0-.2.2-.4.3-.5.2-.1.3-.3.6-.3.2,0,.4-.1.7-.1s.6,0,.9.2c.3.1.5.3.6.5.1.2.2.5.2.8s0,.6-.2.8-.4.4-.6.5c-.3.1-.6.2-.9.2ZM553.8,280.4c.2,0,.4,0,.6-.1s.3-.2.4-.3c0-.1.1-.3.1-.5,0-.3-.1-.5-.3-.7s-.5-.3-.8-.3-.4,0-.6.1c-.2,0-.3.2-.4.3,0,.1-.1.3-.1.5s0,.3.1.5.2.3.4.4.4.1.6.1Z"/>
          <path class="st6" d="M557.7,281c-.3,0-.7,0-1-.2-.3-.1-.6-.3-.8-.4l.3-.6c.2.2.4.3.6.4.3,0,.5.1.8.1s.7,0,.9-.2.3-.4.3-.6,0-.3-.1-.5c0-.1-.2-.2-.5-.3s-.5-.1-.9-.1h-1.1l.3-2.6h2.8v.6h-2.5l.4-.3-.2,2-.4-.3h1c.5,0,.9,0,1.2.2.3.1.5.3.7.5.1.2.2.5.2.8s0,.5-.2.8c-.1.2-.3.4-.6.6-.3.1-.6.2-1.1.2Z"/>
          <path class="st6" d="M563.5,281c-.3,0-.6,0-.9-.1-.3,0-.5-.2-.7-.3l.3-.5c.2.1.4.2.6.3s.5.1.7.1.5,0,.7-.1c.1,0,.2-.2.2-.4s0-.2-.1-.3c0,0-.2-.1-.3-.1s-.3,0-.5,0c-.2,0-.3,0-.5,0s-.3,0-.5-.2c-.1,0-.3-.2-.3-.3,0-.1-.1-.3-.1-.5s0-.4.2-.6c.1-.2.3-.3.5-.4.2,0,.5-.1.8-.1s.5,0,.7,0c.3,0,.5.1.6.3l-.3.5c-.2-.1-.3-.2-.5-.2-.2,0-.4,0-.6,0-.3,0-.5,0-.7.1-.1,0-.2.2-.2.4s0,.2.1.3c0,0,.2.1.3.2s.3,0,.5,0c.2,0,.3,0,.5,0s.3,0,.5.2c.1,0,.3.2.3.3,0,.1.1.3.1.5s0,.4-.2.6c-.1.2-.3.3-.6.4-.2,0-.5.1-.9.1Z"/>
          <path class="st6" d="M567.5,281c-.4,0-.7,0-1-.2-.3-.2-.5-.4-.7-.7-.2-.3-.2-.6-.2-1s0-.7.2-1c.2-.3.4-.5.7-.7.3-.2.6-.2,1-.2s.6,0,.9.2c.3.1.5.4.6.6.1.3.2.6.2,1.1s0,.8-.2,1.1c-.2.3-.4.5-.6.6-.3.1-.5.2-.9.2ZM567.5,280.4c.2,0,.4,0,.6-.2.2-.1.3-.3.5-.5.1-.2.2-.4.2-.7s0-.5-.2-.7c-.1-.2-.3-.3-.5-.5s-.4-.2-.6-.2-.5,0-.6.2-.3.3-.5.5c-.1.2-.2.4-.2.7s0,.5.2.7c.1.2.3.4.5.5.2.1.4.2.6.2ZM568.8,282.3v-3.2c0,0,0-.9,0-.9v-1h.7v5.1h-.7Z"/>
          <path class="st6" d="M570.2,277.8v-.6h2.4v.6h-2.4ZM570.9,280.9v-4.1c0-.4.1-.7.3-.9s.5-.3.9-.3.3,0,.4,0,.2,0,.3.2l-.2.5c0,0-.2,0-.2-.1,0,0-.2,0-.3,0-.2,0-.3,0-.5.2-.1.1-.2.3-.2.5v.8s0,3.3,0,3.3h-.7Z"/>
          <path class="st6" d="M572.7,277.8v-.6h2.4v.6h-2.4ZM574.6,281c-.4,0-.7-.1-.9-.3-.2-.2-.3-.5-.3-.9v-3.4h.7v3.4c0,.2,0,.4.2.5.1.1.2.2.4.2s.4,0,.5-.2l.2.5c-.1,0-.2.2-.4.2-.1,0-.3,0-.4,0Z"/>
        </g>
        <g class="st7">
          <path class="st6" d="M512.3,308.8c-.4,0-.7,0-1-.2-.3-.1-.6-.3-.8-.5-.2-.2-.4-.5-.5-.8-.1-.3-.2-.6-.2-1s0-.7.2-1c.1-.3.3-.6.6-.8s.5-.4.8-.5c.3-.1.7-.2,1-.2s.7,0,1.1.2c.3.1.6.3.8.6l-.5.4c-.2-.2-.4-.3-.6-.4-.2,0-.5-.1-.8-.1s-.5,0-.8.1c-.2,0-.4.2-.6.4s-.3.4-.4.6c0,.2-.1.5-.1.8s0,.5.1.8.2.4.4.6.4.3.6.4c.2,0,.5.1.8.1s.5,0,.8-.1c.2,0,.4-.2.6-.4l.5.4c-.2.3-.5.4-.8.6-.3.1-.7.2-1.1.2Z"/>
          <path class="st6" d="M516.8,308.8c-.4,0-.7,0-1-.2s-.5-.4-.7-.7c-.2-.3-.3-.6-.3-1s0-.7.3-1c.2-.3.4-.5.7-.7s.6-.2,1-.2.7,0,1,.2.5.4.7.7c.2.3.3.6.3,1s0,.7-.3,1c-.2.3-.4.5-.7.7s-.6.2-1,.2ZM516.8,308.2c.2,0,.5,0,.6-.2.2-.1.3-.3.5-.5s.2-.4.2-.7,0-.5-.2-.7-.3-.3-.5-.5c-.2-.1-.4-.2-.6-.2s-.5,0-.6.2c-.2.1-.3.3-.5.5s-.2.4-.2.7,0,.5.2.7.3.4.5.5c.2.1.4.2.6.2Z"/>
          <path class="st6" d="M519.7,308.8v-3.8h.7v1-.3c0-.3.2-.5.5-.6.2-.1.5-.2.9-.2v.7s0,0,0,0h0c-.4,0-.7.1-.9.3-.2.2-.3.5-.3.9v1.9h-.7Z"/>
          <path class="st6" d="M522.6,308.8v-3.8h.7v1-.3c0-.3.2-.5.5-.6.2-.1.5-.2.9-.2v.7s0,0,0,0h0c-.4,0-.7.1-.9.3-.2.2-.3.5-.3.9v1.9h-.7Z"/>
          <path class="st6" d="M525.8,304.3c-.1,0-.2,0-.3-.1,0,0-.1-.2-.1-.3s0-.2.1-.3c0,0,.2-.1.3-.1s.2,0,.3.1c0,0,.1.2.1.3s0,.2-.1.3c0,0-.2.1-.3.1ZM525.5,308.8v-3.8h.7v3.8h-.7Z"/>
          <path class="st6" d="M529,308.8c-.4,0-.7,0-1-.2s-.5-.4-.7-.7c-.2-.3-.2-.6-.2-1s0-.7.2-1c.2-.3.4-.5.7-.7s.6-.2,1-.2.6,0,.9.2c.3.1.5.4.6.6.2.3.2.6.2,1.1s0,.8-.2,1.1c-.1.3-.4.5-.6.6s-.5.2-.9.2ZM529.1,308.2c.2,0,.4,0,.6-.2.2-.1.3-.3.5-.5s.2-.4.2-.7,0-.5-.2-.7-.3-.3-.5-.5c-.2-.1-.4-.2-.6-.2s-.5,0-.6.2c-.2.1-.3.3-.5.5s-.2.4-.2.7,0,.5.2.7.3.4.5.5c.2.1.4.2.6.2ZM530.3,308.8v-1.9s0-.9,0-.9v-2.5h.7v5.3h-.7Z"/>
          <path class="st6" d="M533.9,308.8c-.4,0-.7,0-1-.2s-.5-.4-.7-.7c-.2-.3-.3-.6-.3-1s0-.7.3-1c.2-.3.4-.5.7-.7s.6-.2,1-.2.7,0,1,.2.5.4.7.7c.2.3.3.6.3,1s0,.7-.3,1c-.2.3-.4.5-.7.7s-.6.2-1,.2ZM533.9,308.2c.2,0,.5,0,.6-.2.2-.1.3-.3.5-.5s.2-.4.2-.7,0-.5-.2-.7-.3-.3-.5-.5c-.2-.1-.4-.2-.6-.2s-.5,0-.6.2c-.2.1-.3.3-.5.5s-.2.4-.2.7,0,.5.2.7.3.4.5.5c.2.1.4.2.6.2Z"/>
          <path class="st6" d="M536.8,308.8v-3.8h.7v1-.3c0-.3.2-.5.5-.6.2-.1.5-.2.9-.2v.7s0,0,0,0h0c-.4,0-.7.1-.9.3-.2.2-.3.5-.3.9v1.9h-.7Z"/>
          <path class="st6" d="M542.8,308.8c-.3,0-.7,0-1-.2-.3-.1-.6-.3-.8-.4l.3-.6c.2.2.4.3.6.4.3,0,.5.1.9.1s.7,0,.9-.2c.2-.2.3-.4.3-.6s0-.5-.3-.6c-.2-.2-.5-.2-.9-.2h-.4v-.5l1.5-1.8v.3c0,0-2.6,0-2.6,0v-.6h3.3v.5l-1.5,1.8-.4-.2h.2c.6,0,1,.1,1.3.4.3.3.5.6.5,1s0,.5-.2.8c-.1.2-.3.4-.6.5-.3.1-.6.2-1.1.2Z"/>
          <path class="st6" d="M514.8,316.1c-.3,0-.7,0-1-.2-.3-.1-.6-.3-.8-.4l.3-.6c.2.2.4.3.6.4.3,0,.5.1.8.1s.7,0,.9-.2c.2-.2.3-.4.3-.6s0-.3-.1-.5-.2-.2-.5-.3c-.2,0-.5-.1-.9-.1h-1.1l.3-2.6h2.8v.6h-2.5l.4-.3-.2,2-.4-.3h1c.5,0,.9,0,1.2.2.3.1.5.3.7.5.1.2.2.5.2.8s0,.5-.2.8c-.1.2-.3.4-.6.6s-.6.2-1.1.2Z"/>
          <path class="st6" d="M517.2,316v-.5l2-1.9c.2-.2.3-.3.4-.4,0-.1.1-.3.2-.4,0-.1,0-.2,0-.3,0-.3,0-.5-.3-.6-.2-.1-.4-.2-.8-.2s-.5,0-.7.1c-.2,0-.4.2-.6.4l-.5-.4c.2-.2.4-.4.8-.6.3-.1.7-.2,1.1-.2s.6,0,.9.2c.3.1.5.3.6.5.1.2.2.5.2.7s0,.3,0,.5c0,.2-.1.3-.2.5-.1.2-.3.4-.5.6l-1.8,1.7-.2-.3h3v.6h-3.6Z"/>
          <path class="st6" d="M523.4,316.1c-.4,0-.7,0-1-.3-.3-.2-.5-.5-.7-.9s-.3-.8-.3-1.4,0-1,.3-1.4.4-.7.7-.9c.3-.2.7-.3,1-.3s.7,0,1,.3.5.5.7.9c.2.4.3.8.3,1.4s0,1-.3,1.4c-.2.4-.4.7-.7.9s-.7.3-1,.3ZM523.4,315.4c.3,0,.5,0,.7-.2.2-.1.3-.4.5-.6.1-.3.2-.6.2-1.1s0-.8-.2-1.1c-.1-.3-.3-.5-.5-.6-.2-.1-.4-.2-.7-.2s-.5,0-.7.2c-.2.1-.4.4-.5.6-.1.3-.2.6-.2,1.1s0,.8.2,1.1c.1.3.3.5.5.6.2.1.4.2.7.2Z"/>
          <path class="st6" d="M529.4,316c-.3,0-.6,0-.9-.1-.3,0-.5-.2-.7-.3l.3-.5c.2.1.4.2.6.3.2,0,.5.1.7.1s.5,0,.7-.1c.1,0,.2-.2.2-.4s0-.2-.1-.3-.2-.1-.3-.1c-.1,0-.3,0-.5,0-.2,0-.3,0-.5,0-.2,0-.3,0-.5-.2-.1,0-.3-.2-.3-.3s-.1-.3-.1-.5,0-.4.2-.6.3-.3.5-.4c.2,0,.5-.1.8-.1s.5,0,.7,0c.3,0,.5.1.6.3l-.3.5c-.2-.1-.3-.2-.5-.2s-.4,0-.6,0c-.3,0-.5,0-.7.1-.1,0-.2.2-.2.4s0,.2.1.3c0,0,.2.1.3.2.1,0,.3,0,.5,0s.3,0,.5,0c.2,0,.3,0,.5.2.1,0,.3.2.3.3,0,.1.1.3.1.5s0,.4-.2.6c-.1.2-.3.3-.6.4-.2,0-.5.1-.9.1Z"/>
          <path class="st6" d="M533.4,316c-.4,0-.7,0-1-.2s-.5-.4-.7-.7c-.2-.3-.2-.6-.2-1s0-.7.2-1c.2-.3.4-.5.7-.7s.6-.2,1-.2.6,0,.9.2c.3.1.5.4.6.6.1.3.2.6.2,1.1s0,.8-.2,1.1c-.2.3-.4.5-.6.6-.3.1-.5.2-.9.2ZM533.5,315.4c.2,0,.4,0,.6-.2.2-.1.3-.3.5-.5s.2-.4.2-.7,0-.5-.2-.7-.3-.3-.5-.5c-.2-.1-.4-.2-.6-.2s-.5,0-.6.2c-.2.1-.3.3-.5.5s-.2.4-.2.7,0,.5.2.7.3.4.5.5c.2.1.4.2.6.2ZM534.7,317.4v-3.2c0,0,0-.9,0-.9v-1h.7v5.1h-.7Z"/>
          <path class="st6" d="M536.2,312.8v-.6h2.4v.6h-2.4ZM536.8,316v-4.1c0-.4.1-.7.3-.9.2-.2.5-.3.9-.3s.3,0,.4,0c.1,0,.2,0,.3.2l-.2.5c0,0-.2-.1-.2-.1s-.2,0-.3,0c-.2,0-.3,0-.5.2-.1.1-.2.3-.2.5v.8s0,3.3,0,3.3h-.7Z"/>
          <path class="st6" d="M538.7,312.8v-.6h2.4v.6h-2.4ZM540.5,316c-.4,0-.7-.1-.9-.3-.2-.2-.3-.5-.3-.9v-3.4h.7v3.4c0,.2,0,.4.2.5.1.1.2.2.4.2s.4,0,.5-.2l.2.5c-.1,0-.2.2-.4.2-.1,0-.3,0-.4,0Z"/>
        </g>
        <g class="st7">
          <path class="st6" d="M377.5,466.8c-.4,0-.7,0-1-.2-.3-.1-.6-.3-.8-.5-.2-.2-.4-.5-.5-.8-.1-.3-.2-.6-.2-1s0-.7.2-1c.1-.3.3-.6.6-.8s.5-.4.8-.5c.3-.1.7-.2,1-.2s.7,0,1.1.2c.3.1.6.3.8.6l-.5.4c-.2-.2-.4-.3-.6-.4-.2,0-.5-.1-.8-.1s-.5,0-.8.1c-.2,0-.4.2-.6.4s-.3.4-.4.6c0,.2-.1.5-.1.8s0,.5.1.8.2.4.4.6.4.3.6.4c.2,0,.5.1.8.1s.5,0,.8-.1c.2,0,.4-.2.6-.4l.5.4c-.2.3-.5.4-.8.6-.3.1-.7.2-1.1.2Z"/>
          <path class="st6" d="M382,466.8c-.4,0-.7,0-1-.2s-.5-.4-.7-.7c-.2-.3-.3-.6-.3-1s0-.7.3-1c.2-.3.4-.5.7-.7s.6-.2,1-.2.7,0,1,.2.5.4.7.7c.2.3.3.6.3,1s0,.7-.3,1c-.2.3-.4.5-.7.7s-.6.2-1,.2ZM382,466.2c.2,0,.5,0,.6-.2.2-.1.3-.3.5-.5s.2-.4.2-.7,0-.5-.2-.7-.3-.3-.5-.5c-.2-.1-.4-.2-.6-.2s-.5,0-.6.2c-.2.1-.3.3-.5.5s-.2.4-.2.7,0,.5.2.7.3.4.5.5c.2.1.4.2.6.2Z"/>
          <path class="st6" d="M384.8,466.7v-3.8h.7v1-.3c0-.3.2-.5.5-.6.2-.1.5-.2.9-.2v.7s0,0,0,0h0c-.4,0-.7.1-.9.3-.2.2-.3.5-.3.9v1.9h-.7Z"/>
          <path class="st6" d="M387.8,466.7v-3.8h.7v1-.3c0-.3.2-.5.5-.6.2-.1.5-.2.9-.2v.7s0,0,0,0h0c-.4,0-.7.1-.9.3-.2.2-.3.5-.3.9v1.9h-.7Z"/>
          <path class="st6" d="M391,462.2c-.1,0-.2,0-.3-.1,0,0-.1-.2-.1-.3s0-.2.1-.3c0,0,.2-.1.3-.1s.2,0,.3.1c0,0,.1.2.1.3s0,.2-.1.3c0,0-.2.1-.3.1ZM390.7,466.7v-3.8h.7v3.8h-.7Z"/>
          <path class="st6" d="M394.2,466.8c-.4,0-.7,0-1-.2s-.5-.4-.7-.7c-.2-.3-.2-.6-.2-1s0-.7.2-1c.2-.3.4-.5.7-.7s.6-.2,1-.2.6,0,.9.2c.3.1.5.4.6.6.2.3.2.6.2,1.1s0,.8-.2,1.1c-.1.3-.4.5-.6.6s-.5.2-.9.2ZM394.2,466.2c.2,0,.4,0,.6-.2.2-.1.3-.3.5-.5s.2-.4.2-.7,0-.5-.2-.7-.3-.3-.5-.5c-.2-.1-.4-.2-.6-.2s-.5,0-.6.2c-.2.1-.3.3-.5.5s-.2.4-.2.7,0,.5.2.7.3.4.5.5c.2.1.4.2.6.2ZM395.5,466.7v-1.9s0-.9,0-.9v-2.5h.7v5.3h-.7Z"/>
          <path class="st6" d="M399.1,466.8c-.4,0-.7,0-1-.2s-.5-.4-.7-.7c-.2-.3-.3-.6-.3-1s0-.7.3-1c.2-.3.4-.5.7-.7s.6-.2,1-.2.7,0,1,.2.5.4.7.7c.2.3.3.6.3,1s0,.7-.3,1c-.2.3-.4.5-.7.7s-.6.2-1,.2ZM399.1,466.2c.2,0,.5,0,.6-.2.2-.1.3-.3.5-.5s.2-.4.2-.7,0-.5-.2-.7-.3-.3-.5-.5c-.2-.1-.4-.2-.6-.2s-.5,0-.6.2c-.2.1-.3.3-.5.5s-.2.4-.2.7,0,.5.2.7.3.4.5.5c.2.1.4.2.6.2Z"/>
          <path class="st6" d="M402,466.7v-3.8h.7v1-.3c0-.3.2-.5.5-.6.2-.1.5-.2.9-.2v.7s0,0,0,0h0c-.4,0-.7.1-.9.3-.2.2-.3.5-.3.9v1.9h-.7Z"/>
          <path class="st6" d="M407.3,466.7v-4.7l.3.3h-1.4v-.6h1.8v5h-.7Z"/>
          <path class="st6" d="M379.3,474c-.3,0-.7,0-1-.2-.3-.1-.6-.3-.8-.4l.3-.6c.2.2.4.3.6.4.3,0,.5.1.9.1s.7,0,.9-.2c.2-.2.3-.4.3-.6s0-.5-.3-.6c-.2-.2-.5-.2-.9-.2h-.4v-.5l1.5-1.8v.3c0,0-2.6,0-2.6,0v-.6h3.3v.5l-1.5,1.8-.4-.2h.2c.6,0,1,.1,1.3.4.3.3.5.6.5,1s0,.5-.2.8c-.1.2-.3.4-.6.5-.3.1-.6.2-1.1.2Z"/>
          <path class="st6" d="M383.5,474c-.3,0-.7,0-1-.2-.3-.1-.6-.3-.8-.4l.3-.6c.2.2.4.3.6.4.3,0,.5.1.8.1s.7,0,.9-.2c.2-.2.3-.4.3-.6s0-.3-.1-.5-.2-.2-.5-.3c-.2,0-.5-.1-.9-.1h-1.1l.3-2.6h2.8v.6h-2.5l.4-.3-.2,2-.4-.3h1c.5,0,.9,0,1.2.2.3.1.5.3.7.5.1.2.2.5.2.8s0,.5-.2.8c-.1.2-.3.4-.6.6s-.6.2-1.1.2Z"/>
          <path class="st6" d="M387.9,474c-.4,0-.7,0-1-.2-.3-.1-.5-.3-.7-.5-.2-.2-.2-.5-.2-.8s0-.5.2-.7c.2-.2.4-.4.7-.5.3-.1.6-.2,1.1-.2s.8,0,1.1.2c.3.1.5.3.7.5.2.2.2.5.2.7s0,.6-.2.8c-.2.2-.4.4-.7.5-.3.1-.6.2-1,.2ZM387.9,471.5c-.4,0-.7,0-1-.2-.3-.1-.5-.2-.6-.4-.1-.2-.2-.4-.2-.7s0-.5.2-.7c.1-.2.4-.4.6-.5.3-.1.6-.2.9-.2s.7,0,.9.2c.3.1.5.3.6.5.2.2.2.4.2.7s0,.5-.2.7-.3.3-.6.4c-.3.1-.6.2-1,.2ZM387.9,473.4c.4,0,.7,0,.9-.2.2-.2.3-.4.3-.7s-.1-.5-.3-.6c-.2-.2-.5-.2-.9-.2s-.7,0-.9.2c-.2.2-.3.4-.3.6s.1.5.3.7c.2.2.5.2.9.2ZM387.9,471.1c.3,0,.6,0,.8-.2.2-.1.3-.3.3-.6s-.1-.4-.3-.6c-.2-.1-.5-.2-.8-.2s-.6,0-.8.2c-.2.1-.3.3-.3.6s0,.4.3.6c.2.1.5.2.8.2Z"/>
          <path class="st6" d="M393.8,474c-.3,0-.6,0-.9-.1-.3,0-.5-.2-.7-.3l.3-.5c.2.1.4.2.6.3.2,0,.5.1.7.1s.5,0,.7-.1c.1,0,.2-.2.2-.4s0-.2-.1-.3-.2-.1-.3-.1c-.1,0-.3,0-.5,0-.2,0-.3,0-.5,0-.2,0-.3,0-.5-.2-.1,0-.3-.2-.3-.3s-.1-.3-.1-.5,0-.4.2-.6.3-.3.5-.4c.2,0,.5-.1.8-.1s.5,0,.7,0c.3,0,.5.1.6.3l-.3.5c-.2-.1-.3-.2-.5-.2s-.4,0-.6,0c-.3,0-.5,0-.7.1-.1,0-.2.2-.2.4s0,.2.1.3c0,0,.2.1.3.2.1,0,.3,0,.5,0s.3,0,.5,0c.2,0,.3,0,.5.2.1,0,.3.2.3.3,0,.1.1.3.1.5s0,.4-.2.6c-.1.2-.3.3-.6.4-.2,0-.5.1-.9.1Z"/>
          <path class="st6" d="M397.8,474c-.4,0-.7,0-1-.2s-.5-.4-.7-.7c-.2-.3-.2-.6-.2-1s0-.7.2-1c.2-.3.4-.5.7-.7s.6-.2,1-.2.6,0,.9.2c.3.1.5.4.6.6.1.3.2.6.2,1.1s0,.8-.2,1.1c-.2.3-.4.5-.6.6-.3.1-.5.2-.9.2ZM397.9,473.4c.2,0,.4,0,.6-.2.2-.1.3-.3.5-.5s.2-.4.2-.7,0-.5-.2-.7-.3-.3-.5-.5c-.2-.1-.4-.2-.6-.2s-.5,0-.6.2c-.2.1-.3.3-.5.5s-.2.4-.2.7,0,.5.2.7.3.4.5.5c.2.1.4.2.6.2ZM399.1,475.3v-3.2c0,0,0-.9,0-.9v-1h.7v5.1h-.7Z"/>
          <path class="st6" d="M400.5,470.7v-.6h2.4v.6h-2.4ZM401.2,473.9v-4.1c0-.4.1-.7.3-.9.2-.2.5-.3.9-.3s.3,0,.4,0c.1,0,.2,0,.3.2l-.2.5c0,0-.2-.1-.2-.1s-.2,0-.3,0c-.2,0-.3,0-.5.2-.1.1-.2.3-.2.5v.8s0,3.3,0,3.3h-.7Z"/>
          <path class="st6" d="M403,470.7v-.6h2.4v.6h-2.4ZM404.9,474c-.4,0-.7-.1-.9-.3-.2-.2-.3-.5-.3-.9v-3.4h.7v3.4c0,.2,0,.4.2.5.1.1.2.2.4.2s.4,0,.5-.2l.2.5c-.1,0-.2.2-.4.2-.1,0-.3,0-.4,0Z"/>
        </g>
        <g class="st7">
          <path class="st6" d="M497.3,383.5c0,.4,0,.7-.2,1-.1.3-.3.6-.5.8-.2.2-.5.4-.8.5s-.6.2-1,.2-.7,0-1-.2-.6-.3-.8-.6c-.2-.2-.4-.5-.5-.8-.1-.3-.2-.7-.2-1s0-.7.2-1.1c.1-.3.3-.6.6-.8l.4.5c-.2.2-.3.4-.4.6,0,.2-.1.5-.1.8s0,.5.1.8c0,.2.2.4.4.6.2.2.4.3.6.4.2,0,.5.1.8.1s.5,0,.8-.1c.2,0,.4-.2.6-.4.2-.2.3-.4.4-.6,0-.2.1-.5.1-.8s0-.5-.1-.8c0-.2-.2-.4-.5-.6l.4-.5c.3.2.4.5.6.8.1.3.2.7.2,1.1Z"/>
          <path class="st6" d="M497.2,379.1c0,.4,0,.7-.2,1s-.4.5-.7.7c-.3.2-.6.3-1,.3s-.7,0-1-.3c-.3-.2-.5-.4-.7-.7-.2-.3-.2-.6-.2-1s0-.7.2-1,.4-.5.7-.7c.3-.2.6-.3,1-.3s.7,0,1,.3c.3.2.5.4.7.7s.2.6.2,1ZM496.6,379.1c0-.2,0-.5-.2-.6s-.3-.3-.5-.5c-.2-.1-.4-.2-.7-.2s-.5,0-.7.2c-.2.1-.3.3-.5.5-.1.2-.2.4-.2.6s0,.5.2.6c.1.2.3.3.5.5.2.1.4.2.7.2s.5,0,.7-.2c.2-.1.4-.3.5-.5.1-.2.2-.4.2-.6Z"/>
          <path class="st6" d="M497.2,376.2h-3.8v-.7h1-.3c-.3,0-.5-.2-.6-.5-.1-.2-.2-.5-.2-.9h.7s0,0,0,0h0c0,.4.1.7.3.9.2.2.5.3.9.3h1.9v.7Z"/>
          <path class="st6" d="M497.2,373.3h-3.8v-.7h1-.3c-.3,0-.5-.2-.6-.5-.1-.2-.2-.5-.2-.9h.7s0,0,0,0h0c0,.4.1.7.3.9.2.2.5.3.9.3h1.9v.7Z"/>
          <path class="st6" d="M492.7,370c0,.1,0,.2-.1.3,0,0-.2.1-.3.1s-.2,0-.3-.1c0,0-.1-.2-.1-.3s0-.2.1-.3.2-.1.3-.1.2,0,.3.1c0,0,.1.2.1.3ZM497.2,370.4h-3.8v-.7h3.8v.7Z"/>
          <path class="st6" d="M497.2,365.5h-1.9s-.9,0-.9,0h-2.5v-.7h5.3v.7ZM497.2,366.8c0,.4,0,.7-.2,1s-.4.5-.7.7-.6.2-1,.2-.7,0-1-.2-.5-.4-.7-.7c-.2-.3-.2-.6-.2-1s0-.6.2-.9c.1-.3.4-.5.6-.6.3-.2.6-.2,1.1-.2s.8,0,1.1.2c.3.1.5.4.6.6.1.3.2.5.2.9ZM496.6,366.8c0-.2,0-.4-.2-.6-.1-.2-.3-.3-.5-.5s-.4-.2-.7-.2-.5,0-.7.2-.3.3-.5.5c-.1.2-.2.4-.2.6s0,.5.2.6c.1.2.3.3.5.5s.4.2.7.2.5,0,.7-.2.4-.3.5-.5.2-.4.2-.6Z"/>
          <path class="st6" d="M497.2,361.9c0,.4,0,.7-.2,1s-.4.5-.7.7c-.3.2-.6.3-1,.3s-.7,0-1-.3c-.3-.2-.5-.4-.7-.7-.2-.3-.2-.6-.2-1s0-.7.2-1,.4-.5.7-.7c.3-.2.6-.3,1-.3s.7,0,1,.3c.3.2.5.4.7.7s.2.6.2,1ZM496.6,361.9c0-.2,0-.5-.2-.6s-.3-.3-.5-.5c-.2-.1-.4-.2-.7-.2s-.5,0-.7.2c-.2.1-.3.3-.5.5-.1.2-.2.4-.2.6s0,.5.2.6c.1.2.3.3.5.5.2.1.4.2.7.2s.5,0,.7-.2c.2-.1.4-.3.5-.5.1-.2.2-.4.2-.6Z"/>
          <path class="st6" d="M497.2,359h-3.8v-.7h1-.3c-.3,0-.5-.2-.6-.5-.1-.2-.2-.5-.2-.9h.7s0,0,0,0h0c0,.4.1.7.3.9.2.2.5.3.9.3h1.9v.7Z"/>
          <path class="st6" d="M497.2,354.6h-.5l-1.9-2c-.2-.2-.3-.3-.4-.4s-.3-.1-.4-.2c-.1,0-.2,0-.3,0-.3,0-.5,0-.6.3s-.2.4-.2.8,0,.5.1.7.2.4.4.6l-.4.5c-.2-.2-.4-.4-.6-.8-.1-.3-.2-.7-.2-1.1s0-.6.2-.9c.1-.3.3-.5.5-.6.2-.1.5-.2.7-.2s.3,0,.5,0c.2,0,.3.1.5.2.2.1.4.3.6.5l1.7,1.8-.3.2v-3h.6v3.6Z"/>
          <path class="st6" d="M504.4,380.7h-4.7l.3-.3v1.4h-.6v-1.8h5v.7Z"/>
          <path class="st6" d="M504.4,379h-.5l-1.9-2c-.2-.2-.3-.3-.4-.4s-.3-.1-.4-.2-.2,0-.3,0c-.3,0-.5,0-.6.3-.1.2-.2.4-.2.8s0,.5.1.7c0,.2.2.4.4.6l-.4.5c-.2-.2-.4-.4-.6-.8-.1-.3-.2-.7-.2-1.1s0-.6.2-.9c.1-.3.3-.5.5-.6.2-.1.5-.2.7-.2s.3,0,.5,0,.3.1.5.2.4.3.6.5l1.7,1.8-.3.2v-3h.6v3.6Z"/>
          <path class="st6" d="M504.4,374.9h-.5l-1.9-2c-.2-.2-.3-.3-.4-.4-.1,0-.3-.1-.4-.2s-.2,0-.3,0c-.3,0-.5,0-.6.3-.1.2-.2.4-.2.8s0,.5.1.7c0,.2.2.4.4.6l-.4.5c-.2-.2-.4-.4-.6-.8-.1-.3-.2-.7-.2-1.1s0-.6.2-.9.3-.5.5-.6.5-.2.7-.2.3,0,.5,0c.2,0,.3.1.5.2.2.1.4.3.6.5l1.7,1.8-.3.2v-3h.6v3.6Z"/>
          <path class="st6" d="M504.5,367.5c0,.3,0,.6-.1.9,0,.3-.2.5-.3.7l-.5-.3c.1-.2.2-.4.3-.6,0-.2.1-.5.1-.7s0-.5-.1-.7-.2-.2-.4-.2-.2,0-.3.1c0,0-.1.2-.1.3,0,.1,0,.3,0,.5,0,.2,0,.3,0,.5,0,.2,0,.3-.2.5,0,.1-.2.3-.3.3-.1,0-.3.1-.5.1s-.4,0-.6-.2-.3-.3-.4-.5c0-.2-.1-.5-.1-.8s0-.5,0-.7c0-.3.1-.5.3-.6l.5.3c-.1.2-.2.3-.2.5,0,.2,0,.4,0,.6,0,.3,0,.5.1.7,0,.1.2.2.4.2s.2,0,.3-.1.1-.2.2-.3c0-.1,0-.3,0-.5,0-.2,0-.3,0-.5,0-.2,0-.3.2-.5s.2-.3.3-.3c.1,0,.3-.1.5-.1s.4,0,.6.2c.2.1.3.3.4.6,0,.2.1.5.1.9Z"/>
          <path class="st6" d="M504.5,363.5c0,.4,0,.7-.2,1s-.4.5-.7.7c-.3.2-.6.2-1,.2s-.7,0-1-.2c-.3-.2-.5-.4-.7-.7-.2-.3-.2-.6-.2-1s0-.6.2-.9c.1-.3.4-.5.6-.6.3-.2.6-.2,1.1-.2s.8,0,1.1.2c.3.2.5.4.6.6.1.3.2.5.2.9ZM505.8,362.1h-3.2c0,0-.9,0-.9,0h-1v-.7h5.1v.7ZM503.9,363.4c0-.2,0-.5-.2-.6-.1-.2-.3-.3-.5-.5s-.4-.2-.7-.2-.5,0-.7.2-.3.3-.5.5c-.1.2-.2.4-.2.6s0,.5.2.6c.1.2.3.3.5.5s.4.2.7.2.5,0,.7-.2.4-.3.5-.5.2-.4.2-.6Z"/>
          <path class="st6" d="M504.4,360.1h-4.1c-.4,0-.7-.1-.9-.3-.2-.2-.3-.5-.3-.9s0-.3,0-.4c0-.1,0-.3.2-.3l.5.2c0,0-.1.2-.1.2,0,0,0,.2,0,.3,0,.2,0,.3.2.5.1.1.3.2.5.2h.8s3.3,0,3.3,0v.7ZM501.2,360.7h-.6v-2.4h.6v2.4Z"/>
          <path class="st6" d="M504.5,356.4c0,.4-.1.7-.3.9-.2.2-.5.3-.9.3h-3.4v-.7h3.4c.2,0,.4,0,.5-.2s.2-.2.2-.4,0-.4-.2-.5l.5-.2c0,.1.2.2.2.4,0,.1,0,.3,0,.4ZM501.2,358.2h-.6v-2.4h.6v2.4Z"/>
        </g>
        <g class="st7">
          <path class="st6" d="M660.9,279.8c-.4,0-.7,0-1-.2-.3-.1-.6-.3-.8-.5s-.4-.5-.5-.8c-.1-.3-.2-.6-.2-1s0-.7.2-1c.1-.3.3-.6.6-.8.2-.2.5-.4.8-.5s.7-.2,1-.2.7,0,1.1.2c.3.1.6.3.8.6l-.5.4c-.2-.2-.4-.3-.6-.4-.2,0-.5-.1-.8-.1s-.5,0-.8.1c-.2,0-.4.2-.6.4s-.3.4-.4.6c0,.2-.1.5-.1.8s0,.5.1.8c0,.2.2.4.4.6.2.2.4.3.6.4.2,0,.5.1.8.1s.5,0,.8-.1c.2,0,.4-.2.6-.5l.5.4c-.2.3-.5.4-.8.6-.3.1-.7.2-1.1.2Z"/>
          <path class="st6" d="M665.3,279.7c-.4,0-.7,0-1-.2-.3-.2-.5-.4-.7-.7-.2-.3-.3-.6-.3-1s0-.7.3-1c.2-.3.4-.5.7-.7.3-.2.6-.2,1-.2s.7,0,1,.2c.3.2.5.4.7.7.2.3.3.6.3,1s0,.7-.3,1c-.2.3-.4.5-.7.7-.3.2-.6.2-1,.2ZM665.3,279.1c.2,0,.5,0,.6-.2.2-.1.3-.3.4-.5.1-.2.2-.4.2-.7s0-.5-.2-.7c-.1-.2-.3-.3-.4-.5s-.4-.2-.6-.2-.5,0-.6.2-.3.3-.5.5c-.1.2-.2.4-.2.7s0,.5.2.7c.1.2.3.4.5.5.2.1.4.2.6.2Z"/>
          <path class="st6" d="M670.2,275.9c.3,0,.6,0,.8.2s.4.3.5.5c.1.2.2.5.2.9v2.2h-.7v-2.1c0-.4,0-.6-.3-.8-.2-.2-.4-.3-.7-.3s-.5,0-.6.1c-.2,0-.3.2-.4.4,0,.2-.1.4-.1.7v1.9h-.7v-3.8h.7v1-.3c0-.2.2-.4.5-.6.3-.1.6-.2.9-.2Z"/>
          <path class="st6" d="M672.5,276.5v-.6h2.4v.6h-2.4ZM673.1,279.7v-4.1c0-.4.1-.7.3-.9.2-.2.5-.3.9-.3s.3,0,.4,0c.1,0,.3,0,.3.2l-.2.5c0,0-.2,0-.2-.1,0,0-.2,0-.3,0-.2,0-.3,0-.5.2-.1.1-.2.3-.2.5v.8s0,3.3,0,3.3h-.7Z"/>
          <path class="st6" d="M675.7,279.7c-.1,0-.2,0-.3-.1,0,0-.1-.2-.1-.4s0-.3.1-.3c0,0,.2-.1.3-.1s.2,0,.3.1c0,0,.1.2.1.3s0,.3-.1.4-.2.1-.3.1Z"/>
          <path class="st6" d="M653.8,286.9v-5h1.9c.4,0,.8,0,1.1.2.3.1.5.3.7.6.2.3.2.6.2.9s0,.7-.2.9c-.2.3-.4.5-.7.6-.3.1-.7.2-1.1.2h-1.5l.3-.3v1.8h-.7ZM654.5,285.2l-.3-.3h1.5c.5,0,.8,0,1-.3.2-.2.4-.5.4-.8s-.1-.6-.4-.8c-.2-.2-.6-.3-1-.3h-1.5l.3-.4v2.9ZM657.1,286.9l-1.3-1.8h.8l1.3,1.8h-.8Z"/>
          <path class="st6" d="M660.5,287c-.4,0-.7,0-1-.2-.3-.2-.5-.4-.7-.7-.2-.3-.3-.6-.3-1s0-.7.3-1c.2-.3.4-.5.7-.7.3-.2.6-.2,1-.2s.7,0,1,.2c.3.2.5.4.7.7.2.3.3.6.3,1s0,.7-.3,1c-.2.3-.4.5-.7.7-.3.2-.6.2-1,.2ZM660.5,286.4c.2,0,.5,0,.6-.2.2-.1.3-.3.5-.5.1-.2.2-.4.2-.7s0-.5-.2-.7c-.1-.2-.3-.3-.5-.5s-.4-.2-.6-.2-.5,0-.6.2-.3.3-.5.5c-.1.2-.2.4-.2.7s0,.5.2.7c.1.2.3.4.5.5.2.1.4.2.6.2Z"/>
          <path class="st6" d="M665,287c-.4,0-.7,0-1-.2-.3-.2-.5-.4-.7-.7-.2-.3-.3-.6-.3-1s0-.7.3-1c.2-.3.4-.5.7-.7.3-.2.6-.2,1-.2s.7,0,1,.2c.3.2.5.4.7.7.2.3.3.6.3,1s0,.7-.3,1c-.2.3-.4.5-.7.7-.3.2-.6.2-1,.2ZM665,286.4c.2,0,.5,0,.6-.2.2-.1.3-.3.4-.5.1-.2.2-.4.2-.7s0-.5-.2-.7c-.1-.2-.3-.3-.4-.5s-.4-.2-.6-.2-.5,0-.6.2-.3.3-.5.5c-.1.2-.2.4-.2.7s0,.5.2.7c.1.2.3.4.5.5.2.1.4.2.6.2Z"/>
          <path class="st6" d="M672.6,283.1c.3,0,.6,0,.8.2s.4.3.5.5c.1.2.2.5.2.9v2.2h-.7v-2.1c0-.4,0-.6-.3-.8-.2-.2-.4-.3-.7-.3s-.4,0-.6.1c-.2,0-.3.2-.4.4,0,.2-.1.4-.1.7v1.9h-.7v-2.1c0-.4,0-.6-.3-.8-.2-.2-.4-.3-.7-.3s-.4,0-.6.1c-.2,0-.3.2-.4.4,0,.2-.1.4-.1.7v1.9h-.7v-3.8h.7v1-.3c0-.2.2-.4.4-.6s.5-.2.9-.2.7,0,.9.3c.3.2.4.4.5.8h-.3c.1-.4.3-.6.6-.8.3-.2.6-.3,1-.3Z"/>
          <path class="st6" d="M676.9,285.7v-.5l2.5-3.2h.8l-2.5,3.2h-.4c0-.1,4-.1,4-.1v.6h-4.4ZM679.7,286.9v-1.8s0-1.1,0-1.1h.7v2.9h-.7Z"/>
          <path class="st6" d="M652.6,292.9v-.5l2.5-3.2h.8l-2.5,3.2h-.4c0-.1,4-.1,4-.1v.6h-4.4ZM655.4,294.1v-1.8s0-1.1,0-1.1h.7v2.9h-.7Z"/>
          <path class="st6" d="M659.4,294.2c-.4,0-.7,0-1-.2-.3-.1-.5-.3-.7-.5s-.2-.5-.2-.8,0-.5.2-.7.4-.4.7-.5c.3-.1.6-.2,1.1-.2s.8,0,1.1.2c.3.1.5.3.7.5.2.2.2.5.2.7s0,.6-.2.8c-.2.2-.4.4-.7.5-.3.1-.6.2-1,.2ZM659.4,291.7c-.4,0-.7,0-1-.2-.3-.1-.5-.2-.6-.4s-.2-.4-.2-.7,0-.5.2-.7.4-.4.6-.5c.3-.1.6-.2.9-.2s.7,0,.9.2c.3.1.5.3.6.5.2.2.2.4.2.7s0,.5-.2.7c-.1.2-.3.3-.6.4-.3.1-.6.2-1,.2ZM659.4,293.6c.4,0,.7,0,.9-.2.2-.2.3-.4.3-.7s-.1-.5-.3-.6c-.2-.2-.5-.2-.9-.2s-.7,0-.9.2-.3.4-.3.6.1.5.3.7c.2.2.5.2.9.2ZM659.4,291.3c.3,0,.6,0,.8-.2.2-.1.3-.3.3-.6s-.1-.4-.3-.6-.5-.2-.8-.2-.6,0-.8.2-.3.3-.3.6,0,.4.3.6c.2.1.5.2.8.2Z"/>
          <path class="st6" d="M664,294.2c-.4,0-.7,0-1-.3s-.5-.5-.7-.9-.3-.8-.3-1.4,0-1,.3-1.4.4-.7.7-.9.7-.3,1-.3.7,0,1,.3c.3.2.5.5.7.9s.3.8.3,1.4,0,1-.3,1.4-.4.7-.7.9c-.3.2-.7.3-1,.3ZM664,293.6c.3,0,.5,0,.7-.2.2-.1.3-.4.5-.6.1-.3.2-.6.2-1.1s0-.8-.2-1.1c-.1-.3-.3-.5-.5-.6s-.4-.2-.7-.2-.5,0-.7.2-.4.4-.5.6c-.1.3-.2.6-.2,1.1s0,.8.2,1.1c.1.3.3.5.5.6.2.1.4.2.7.2Z"/>
          <path class="st6" d="M670,294.2c-.3,0-.6,0-.9-.1-.3,0-.5-.2-.7-.3l.3-.5c.2.1.4.2.6.3s.5.1.7.1.5,0,.7-.1c.1,0,.2-.2.2-.4s0-.2-.1-.3c0,0-.2-.1-.3-.1s-.3,0-.5,0c-.2,0-.3,0-.5,0s-.3,0-.5-.2c-.1,0-.3-.2-.3-.3,0-.1-.1-.3-.1-.5s0-.4.2-.6c.1-.2.3-.3.5-.4.2,0,.5-.1.8-.1s.5,0,.7,0c.3,0,.5.1.6.3l-.3.5c-.2-.1-.3-.2-.5-.2-.2,0-.4,0-.6,0-.3,0-.5,0-.7.1-.1,0-.2.2-.2.4s0,.2.1.3c0,0,.2.1.3.2s.3,0,.5,0c.2,0,.3,0,.5,0s.3,0,.5.2c.1,0,.3.2.3.3,0,.1.1.3.1.5s0,.4-.2.6c-.1.2-.3.3-.6.4-.2,0-.5.1-.9.1Z"/>
          <path class="st6" d="M674,294.2c-.4,0-.7,0-1-.2-.3-.2-.5-.4-.7-.7-.2-.3-.2-.6-.2-1s0-.7.2-1c.2-.3.4-.5.7-.7.3-.2.6-.2,1-.2s.6,0,.9.2c.3.1.5.4.6.6.1.3.2.6.2,1.1s0,.8-.2,1.1c-.2.3-.4.5-.6.6-.3.1-.5.2-.9.2ZM674.1,293.6c.2,0,.4,0,.6-.2.2-.1.3-.3.5-.5.1-.2.2-.4.2-.7s0-.5-.2-.7c-.1-.2-.3-.3-.5-.5s-.4-.2-.6-.2-.5,0-.6.2-.3.3-.5.5c-.1.2-.2.4-.2.7s0,.5.2.7c.1.2.3.4.5.5.2.1.4.2.6.2ZM675.3,295.5v-3.2c0,0,0-.9,0-.9v-1h.7v5.1h-.7Z"/>
          <path class="st6" d="M676.8,290.9v-.6h2.4v.6h-2.4ZM677.4,294.1v-4.1c0-.4.1-.7.3-.9s.5-.3.9-.3.3,0,.4,0,.2,0,.3.2l-.2.5c0,0-.2,0-.2-.1,0,0-.2,0-.3,0-.2,0-.3,0-.5.2-.1.1-.2.3-.2.5v.8s0,3.3,0,3.3h-.7Z"/>
          <path class="st6" d="M679.3,290.9v-.6h2.4v.6h-2.4ZM681.1,294.2c-.4,0-.7-.1-.9-.3-.2-.2-.3-.5-.3-.9v-3.4h.7v3.4c0,.2,0,.4.2.5.1.1.2.2.4.2s.4,0,.5-.2l.2.5c-.1,0-.2.2-.4.2-.1,0-.3,0-.4,0Z"/>
        </g>
        <g class="st7">
          <path class="st6" d="M388.4,223.7h2.9v.6h-3.6v-5h3.5v.6h-2.8v3.7ZM388.3,221.5h2.6v.6h-2.6v-.6Z"/>
          <path class="st6" d="M392.4,224.4v-5h.6l3.3,4.1h-.3v-4.1h.7v5h-.6l-3.3-4.1h.3v4.1h-.7Z"/>
          <path class="st6" d="M399.2,224.4v-4.3h-1.7v-.6h4.1v.6h-1.7v4.3h-.7Z"/>
          <path class="st6" d="M402.4,224.4v-5h1.9c.4,0,.8,0,1.1.2s.5.3.7.6c.2.3.2.6.2.9s0,.7-.2.9c-.2.3-.4.5-.7.6-.3.1-.7.2-1.1.2h-1.5l.3-.3v1.8h-.7ZM403.1,222.6l-.3-.3h1.5c.5,0,.8,0,1-.3.2-.2.4-.5.4-.8s-.1-.6-.4-.8c-.2-.2-.6-.3-1-.3h-1.5l.3-.4v2.9ZM405.7,224.4l-1.3-1.8h.8l1.3,1.8h-.8Z"/>
          <path class="st6" d="M408.7,224.4v-1.9l.2.4-2.1-3.5h.8l1.8,3h-.4l1.8-3h.7l-2.1,3.5.2-.4v1.9h-.7Z"/>
          <path class="st6" d="M416.2,224.4c-.4,0-.7,0-1.1-.2-.3-.1-.6-.3-.8-.5-.2-.2-.4-.5-.6-.8-.1-.3-.2-.6-.2-1s0-.7.2-1c.1-.3.3-.6.6-.8.2-.2.5-.4.8-.5.3-.1.7-.2,1.1-.2s.7,0,1,.2c.3.1.6.3.8.5.2.2.4.5.5.8.1.3.2.6.2,1s0,.7-.2,1c-.1.3-.3.6-.5.8-.2.2-.5.4-.8.5-.3.1-.7.2-1,.2ZM416.2,223.8c.3,0,.5,0,.8-.1.2,0,.4-.2.6-.4s.3-.4.4-.6c0-.2.1-.5.1-.8s0-.5-.1-.8c0-.2-.2-.4-.4-.6-.2-.2-.4-.3-.6-.4-.2,0-.5-.1-.8-.1s-.5,0-.8.1c-.2,0-.4.2-.6.4-.2.2-.3.4-.4.6,0,.2-.1.5-.1.8s0,.5.1.8c0,.2.2.4.4.6s.4.3.6.4c.2,0,.5.1.8.1Z"/>
          <path class="st6" d="M420,224.4v-5h.6l3.3,4.1h-.3v-4.1h.7v5h-.6l-3.3-4.1h.3v4.1h-.7Z"/>
          <path class="st6" d="M427.6,224.4v-5h.7v4.3h2.7v.6h-3.4Z"/>
          <path class="st6" d="M434.1,224.4c-.4,0-.7,0-1.1-.2-.3-.1-.6-.3-.8-.5-.2-.2-.4-.5-.6-.8-.1-.3-.2-.6-.2-1s0-.7.2-1c.1-.3.3-.6.6-.8.2-.2.5-.4.8-.5.3-.1.7-.2,1.1-.2s.7,0,1,.2c.3.1.6.3.8.5.2.2.4.5.5.8.1.3.2.6.2,1s0,.7-.2,1c-.1.3-.3.6-.5.8-.2.2-.5.4-.8.5-.3.1-.7.2-1,.2ZM434.1,223.8c.3,0,.5,0,.8-.1.2,0,.4-.2.6-.4s.3-.4.4-.6c0-.2.1-.5.1-.8s0-.5-.1-.8c0-.2-.2-.4-.4-.6-.2-.2-.4-.3-.6-.4-.2,0-.5-.1-.8-.1s-.5,0-.8.1c-.2,0-.4.2-.6.4-.2.2-.3.4-.4.6,0,.2-.1.5-.1.8s0,.5.1.8c0,.2.2.4.4.6s.4.3.6.4c.2,0,.5.1.8.1Z"/>
          <path class="st6" d="M438.9,224.4l-1.7-5h.7l1.5,4.6h-.4l1.6-4.6h.7l1.5,4.6h-.4l1.5-4.6h.7l-1.7,5h-.7l-1.4-4.2h.2l-1.5,4.2h-.8Z"/>
          <path class="st6" d="M446.5,223.7h2.9v.6h-3.6v-5h3.5v.6h-2.8v3.7ZM446.4,221.5h2.6v.6h-2.6v-.6Z"/>
          <path class="st6" d="M450.5,224.4v-5h1.9c.4,0,.8,0,1.1.2s.5.3.7.6c.2.3.2.6.2.9s0,.7-.2.9c-.2.3-.4.5-.7.6-.3.1-.7.2-1.1.2h-1.5l.3-.3v1.8h-.7ZM451.2,222.6l-.3-.3h1.5c.5,0,.8,0,1-.3.2-.2.4-.5.4-.8s-.1-.6-.4-.8c-.2-.2-.6-.3-1-.3h-1.5l.3-.4v2.9ZM453.8,224.4l-1.3-1.8h.8l1.3,1.8h-.8Z"/>
          <path class="st6" d="M457.6,224.4v-5h.7v4.3h2.7v.6h-3.4Z"/>
          <path class="st6" d="M462.5,223.7h2.9v.6h-3.6v-5h3.5v.6h-2.8v3.7ZM462.4,221.5h2.6v.6h-2.6v-.6Z"/>
          <path class="st6" d="M468,224.4l-2.2-5h.8l2,4.6h-.4l2-4.6h.7l-2.2,5h-.7Z"/>
          <path class="st6" d="M472.3,223.7h2.9v.6h-3.6v-5h3.5v.6h-2.8v3.7ZM472.2,221.5h2.6v.6h-2.6v-.6Z"/>
          <path class="st6" d="M476.3,224.4v-5h.7v4.3h2.7v.6h-3.4Z"/>
        </g>
        <g class="st7">
          <path class="st6" d="M397.1,249v-4.7l.3.3h-1.4v-.6h1.8v5h-.7Z"/>
          <path class="st6" d="M400.4,249.1c-.3,0-.7,0-1-.2-.3-.1-.6-.3-.8-.4l.3-.6c.2.2.4.3.6.4s.5.1.9.1.7,0,.9-.2c.2-.2.3-.4.3-.6s0-.5-.3-.6c-.2-.2-.5-.2-.9-.2h-.4v-.5l1.5-1.8v.3c0,0-2.6,0-2.6,0v-.6h3.3v.5l-1.5,1.8-.4-.2h.2c.6,0,1,.1,1.3.4s.5.6.5,1,0,.5-.2.8c-.1.2-.3.4-.6.5-.3.1-.6.2-1.1.2Z"/>
          <path class="st6" d="M403,245.7l.4-1.4v.4s-.2,0-.3-.1-.1-.2-.1-.3,0-.3.1-.4.2-.1.3-.1.2,0,.3.1c0,0,.1.2.1.3s0,0,0,.1c0,0,0,0,0,.2,0,0,0,.1,0,.2l-.3,1h-.4Z"/>
          <path class="st6" d="M408.1,249.1c-.3,0-.7,0-1-.2-.3-.1-.6-.3-.8-.4l.3-.6c.2.2.4.3.6.4s.5.1.8.1.7,0,.9-.2c.2-.2.3-.4.3-.6s0-.3-.1-.5c0-.1-.2-.2-.5-.3-.2,0-.5-.1-.9-.1h-1.1l.3-2.6h2.8v.6h-2.5l.4-.3-.2,2-.4-.3h1c.5,0,.9,0,1.2.2.3.1.5.3.7.5.1.2.2.5.2.8s0,.5-.2.8c-.1.2-.3.4-.6.6-.3.1-.6.2-1.1.2Z"/>
          <path class="st6" d="M410.6,245.7l.4-1.4v.4s-.2,0-.3-.1-.1-.2-.1-.3,0-.3.1-.4.2-.1.3-.1.2,0,.3.1c0,0,.1.2.1.3s0,0,0,.1c0,0,0,0,0,.2,0,0,0,.1,0,.2l-.3,1h-.4ZM411.9,245.7l.4-1.4v.4s-.2,0-.3-.1-.1-.2-.1-.3,0-.3.1-.4.2-.1.3-.1.2,0,.3.1.1.2.1.3,0,0,0,.1c0,0,0,0,0,.2,0,0,0,.1,0,.2l-.3,1h-.4Z"/>
        </g>
        <g class="st7">
          <path class="st6" d="M355.7,227.8l-4.7-2.1.3-.2v2.9l-.3-.4h1.2v.7h-1.5v-3.7h.5l4.5,2v.8Z"/>
          <path class="st6" d="M352.3,224.3l-1.4-.4h.4s0,.2-.1.3-.2.1-.3.1-.3,0-.4-.1-.1-.2-.1-.3,0-.2.1-.3c0,0,.2-.1.3-.1s0,0,.1,0c0,0,0,0,.2,0,0,0,.1,0,.2,0l1,.3v.4Z"/>
          <path class="st6" d="M355.7,219.3l-5,1.7v-.7l4.6-1.5v.4l-4.6-1.6v-.7l4.6-1.5v.4l-4.6-1.5v-.7l5,1.7v.7l-4.2,1.4v-.2l4.2,1.5v.8Z"/>
          <path class="st6" d="M362.9,228.2h-4.7l.3-.3v1.4h-.6v-1.8h5v.7Z"/>
          <path class="st6" d="M362.9,224.4c0,.4,0,.7-.3,1-.2.3-.5.5-.9.7s-.8.3-1.4.3-1,0-1.4-.3-.7-.4-.9-.7c-.2-.3-.3-.7-.3-1s0-.7.3-1,.5-.5.9-.7c.4-.2.8-.3,1.4-.3s1,0,1.4.3c.4.2.7.4.9.7s.3.7.3,1ZM362.3,224.4c0-.3,0-.5-.2-.7s-.4-.3-.6-.5c-.3-.1-.6-.2-1.1-.2s-.8,0-1.1.2-.5.3-.6.5c-.1.2-.2.4-.2.7s0,.5.2.7c.1.2.4.4.6.5s.6.2,1.1.2.8,0,1.1-.2c.3-.1.5-.3.6-.5s.2-.4.2-.7Z"/>
          <path class="st6" d="M359.5,221.7l-1.4-.4h.4s0,.2-.1.3-.2.1-.3.1-.3,0-.4-.1-.1-.2-.1-.3,0-.2.1-.3c0,0,.2-.1.3-.1s0,0,.1,0c0,0,0,0,.2,0,0,0,.1,0,.2,0l1,.3v.4Z"/>
          <path class="st6" d="M357.9,214.2v-.7h5v.7h-5ZM362.9,217.1v.7h-5v-.7h5ZM360.7,214.2v3h-.6v-3h.6Z"/>
        </g>
        <g class="st7">
          <path class="st6" d="M434.3,264.6c0,.4,0,.7-.2,1s-.2.5-.4.6-.4.2-.7.2-.5,0-.7-.2c-.2-.1-.4-.4-.5-.6-.1-.3-.2-.6-.2-.9s0-.7.2-.9c.1-.3.3-.5.5-.6s.4-.2.7-.2.5,0,.7.2.3.3.4.6.2.6.2,1ZM433.9,264.6c0-.3,0-.6-.2-.8s-.3-.3-.6-.3-.4.1-.6.3c-.1.2-.2.5-.2.8s0,.6.2.8c.1.2.3.3.6.3s.4,0,.6-.3.2-.5.2-.8ZM436.8,264.6c0,.4,0,.7-.2,1-.1.3-.3.5-.5.7-.2.2-.5.2-.8.2s-.5,0-.7-.2-.4-.4-.5-.7c-.1-.3-.2-.6-.2-1.1s0-.8.2-1.1c.1-.3.3-.5.5-.7.2-.2.5-.2.7-.2s.6,0,.8.2c.2.2.4.4.5.7.1.3.2.6.2,1ZM436.2,264.6c0-.4,0-.7-.2-.9-.2-.2-.4-.3-.7-.3s-.5.1-.6.3c-.2.2-.2.5-.2.9s0,.7.2.9c.2.2.4.3.6.3s.5-.1.7-.3c.2-.2.2-.5.2-.9Z"/>
          <path class="st6" d="M433.4,261.9l-1.4-.4h.4s0,.2-.1.3-.2.1-.3.1-.3,0-.4-.1-.1-.2-.1-.3,0-.2.1-.3.2-.1.3-.1,0,0,.1,0c0,0,0,0,.2,0,0,0,.1,0,.2,0l1,.3v.4Z"/>
        </g>
        <g class="st7">
          <g>
            <line class="st4" x1="594.1" y1="249.8" x2="536.5" y2="249.8"/>
            <path d="M596.3,249.8c-1.1-.4-2.4-1.1-3.2-1.8l.6,1.8-.6,1.8c.8-.7,2.1-1.4,3.2-1.8Z"/>
            <path d="M534.3,249.8c1.1-.4,2.4-1.1,3.2-1.8l-.6,1.8.6,1.8c-.8-.7-2.1-1.4-3.2-1.8Z"/>
          </g>
        </g>
        <g class="st7">
          <g>
            <line class="st4" x1="587.3" y1="242.1" x2="587.3" y2="294.5"/>
            <path d="M587.3,239.9c-.4,1.1-1.1,2.4-1.8,3.2l1.8-.6,1.8.6c-.7-.8-1.4-2.1-1.8-3.2Z"/>
            <path d="M587.3,296.8c-.4-1.1-1.1-2.4-1.8-3.2l1.8.6,1.8-.6c-.7.8-1.4,2.1-1.8,3.2Z"/>
          </g>
        </g>
        <g class="st7">
          <path class="st6" d="M554.4,247.9v-4.7l.3.3h-1.4v-.6h1.8v5h-.7Z"/>
          <path class="st6" d="M557.7,247.9c-.3,0-.7,0-1-.2s-.6-.3-.8-.4l.3-.6c.2.2.4.3.6.4.3,0,.5.1.9.1s.7,0,.9-.2c.2-.2.3-.4.3-.6s0-.5-.3-.6c-.2-.2-.5-.2-.9-.2h-.4v-.5l1.5-1.8v.3c0,0-2.6,0-2.6,0v-.6h3.3v.5l-1.5,1.8-.4-.2h.2c.6,0,1,.1,1.3.4.3.3.5.6.5,1s0,.5-.2.8c-.1.2-.3.4-.6.5-.3.1-.6.2-1.1.2Z"/>
          <path class="st6" d="M560.3,244.6l.4-1.4v.4s-.2,0-.3-.1c0,0-.1-.2-.1-.3s0-.3.1-.4c0,0,.2-.1.3-.1s.2,0,.3.1.1.2.1.3,0,0,0,.1c0,0,0,0,0,.2,0,0,0,.1,0,.2l-.3,1h-.4Z"/>
          <path class="st6" d="M563.7,246.7v-.5l2.5-3.2h.8l-2.5,3.2h-.4c0-.1,4-.1,4-.1v.6h-4.4ZM566.5,247.9v-1.8s0-1.1,0-1.1h.7v2.9h-.7Z"/>
          <path class="st6" d="M568.6,244.6l.4-1.4v.4s-.2,0-.3-.1c0,0-.1-.2-.1-.3s0-.3.1-.4c0,0,.2-.1.3-.1s.2,0,.3.1c0,0,.1.2.1.3s0,0,0,.1c0,0,0,0,0,.2,0,0,0,.1,0,.2l-.3,1h-.4ZM569.9,244.6l.4-1.4v.4s-.2,0-.3-.1c0,0-.1-.2-.1-.3s0-.3.1-.4c0,0,.2-.1.3-.1s.2,0,.3.1c0,0,.1.2.1.3s0,0,0,.1c0,0,0,0,0,.2,0,0,0,.1,0,.2l-.3,1h-.4Z"/>
        </g>
        <g class="st7">
          <path class="st6" d="M594.4,272h-4.7l.3-.3v1.4h-.6v-1.8h5v.7Z"/>
          <path class="st6" d="M594.4,269.3h-4.7l.3-.3v1.4h-.6v-1.8h5v.7Z"/>
          <path class="st6" d="M591.1,267.5l-1.4-.4h.4s0,.2-.1.3c0,0-.2.1-.3.1s-.3,0-.3-.1c0,0-.1-.2-.1-.3s0-.2.1-.3c0,0,.2-.1.3-.1s0,0,.1,0,0,0,.2,0,.1,0,.2,0l1,.3v.4Z"/>
        </g>
        <g class="st7">
          <g>
            <line class="st4" x1="722" y1="249.8" x2="600" y2="249.8"/>
            <path d="M724.2,249.8c-1.1-.4-2.4-1.1-3.2-1.8l.6,1.8-.6,1.8c.8-.7,2.1-1.4,3.2-1.8Z"/>
            <path d="M597.7,249.8c1.1-.4,2.4-1.1,3.2-1.8l-.6,1.8.6,1.8c-.8-.7-2.1-1.4-3.2-1.8Z"/>
          </g>
        </g>
        <g class="st7">
          <g>
            <line class="st4" x1="715.2" y1="242.1" x2="715.2" y2="318.5"/>
            <path d="M715.2,239.9c-.4,1.1-1.1,2.4-1.8,3.2l1.8-.6,1.8.6c-.7-.8-1.4-2.1-1.8-3.2Z"/>
            <path d="M715.2,320.7c-.4-1.1-1.1-2.4-1.8-3.2l1.8.6,1.8-.6c-.7.8-1.4,2.1-1.8,3.2Z"/>
          </g>
        </g>
        <g class="st7">
          <path class="st6" d="M653.4,247.9v-.5l2-1.9c.2-.2.3-.3.4-.4,0-.1.1-.3.2-.4s0-.2,0-.3c0-.3,0-.5-.3-.6-.2-.1-.4-.2-.8-.2s-.5,0-.7.1c-.2,0-.4.2-.6.4l-.5-.4c.2-.2.4-.4.8-.6.3-.1.7-.2,1.1-.2s.6,0,.9.2.5.3.6.5.2.5.2.7,0,.3,0,.5c0,.2-.1.3-.2.5-.1.2-.3.4-.5.6l-1.8,1.7-.2-.3h3v.6h-3.6Z"/>
          <path class="st6" d="M658.5,247.9l2.1-4.7.2.3h-2.9l.4-.3v1.2h-.7v-1.5h3.7v.5l-2,4.5h-.8Z"/>
          <path class="st6" d="M661.9,244.6l.4-1.4v.4s-.2,0-.3-.1c0,0-.1-.2-.1-.3s0-.3.1-.4c0,0,.2-.1.3-.1s.2,0,.3.1c0,0,.1.2.1.3s0,0,0,.1c0,0,0,0,0,.2,0,0,0,.1,0,.2l-.3,1h-.4Z"/>
          <path class="st6" d="M667.4,247.9c-.4,0-.8,0-1.1-.3s-.5-.5-.7-.8c-.2-.4-.2-.8-.2-1.3s0-1,.3-1.4c.2-.4.5-.7.8-.9s.8-.3,1.2-.3.5,0,.7,0c.2,0,.4.1.6.2l-.3.6c-.1,0-.3-.2-.4-.2-.2,0-.3,0-.5,0-.5,0-.9.2-1.2.5-.3.3-.4.8-.4,1.4s0,.2,0,.4,0,.3,0,.4l-.2-.2c0-.2.2-.4.3-.5.2-.1.3-.3.6-.3.2,0,.4-.1.7-.1s.6,0,.9.2c.3.1.5.3.6.5.1.2.2.5.2.8s0,.6-.2.8c-.2.2-.4.4-.6.5-.3.1-.6.2-.9.2ZM667.4,247.4c.2,0,.4,0,.6-.1.2,0,.3-.2.4-.3,0-.1.1-.3.1-.5,0-.3-.1-.5-.3-.7-.2-.2-.5-.3-.8-.3s-.4,0-.6.1c-.2,0-.3.2-.4.3,0,.1-.1.3-.1.5s0,.3.1.5c0,.1.2.3.4.4.2,0,.4.1.6.1Z"/>
          <path class="st6" d="M669.8,244.6l.4-1.4v.4s-.2,0-.3-.1-.1-.2-.1-.3,0-.3.1-.4.2-.1.3-.1.2,0,.3.1.1.2.1.3,0,0,0,.1c0,0,0,0,0,.2,0,0,0,.1,0,.2l-.3,1h-.4ZM671.1,244.6l.4-1.4v.4s-.2,0-.3-.1c0,0-.1-.2-.1-.3s0-.3.1-.4c0,0,.2-.1.3-.1s.2,0,.3.1.1.2.1.3,0,0,0,.1c0,0,0,0,0,.2,0,0,0,.1,0,.2l-.3,1h-.4Z"/>
        </g>
        <g class="st7">
          <path class="st6" d="M722.3,287.4h-4.7l.3-.3v1.4h-.6v-1.8h5v.7Z"/>
          <path class="st6" d="M722.3,284.8l-4.7-2.1.3-.2v2.9l-.3-.4h1.2v.7h-1.5v-3.7h.5l4.5,2v.8Z"/>
          <path class="st6" d="M719,281.4l-1.4-.4h.4s0,.2-.1.3c0,0-.2.1-.3.1s-.3,0-.4-.1c0,0-.1-.2-.1-.3s0-.2.1-.3c0,0,.2-.1.3-.1s0,0,.1,0c0,0,0,0,.2,0,0,0,.1,0,.2,0l1,.3v.4Z"/>
        </g>
        <g class="st7">
          <path class="st6" d="M316.1,380.5l2.1-4.7.2.3h-2.9l.4-.3v1.2h-.7v-1.5h3.7v.5l-2,4.5h-.8Z"/>
          <path class="st6" d="M319.5,377.1l.4-1.4v.4s-.2,0-.3-.1-.1-.2-.1-.3,0-.3.1-.4c0,0,.2-.1.3-.1s.2,0,.3.1c0,0,.1.2.1.3s0,0,0,.1c0,0,0,0,0,.2,0,0,0,.1,0,.2l-.3,1h-.4Z"/>
        </g>
        <g class="st7">
          <path class="st6" d="M201.1,402.2v-5h.7v4.3h2.7v.6h-3.4Z"/>
          <path class="st6" d="M206.9,402.3c-.4,0-.7,0-1-.2s-.5-.4-.7-.7c-.2-.3-.3-.6-.3-1s0-.7.3-1c.2-.3.4-.5.7-.7.3-.2.6-.2,1-.2s.7,0,1,.2.5.4.7.7c.2.3.3.6.3,1s0,.7-.3,1c-.2.3-.4.5-.7.7s-.6.2-1,.2ZM206.9,401.7c.2,0,.5,0,.6-.2.2-.1.3-.3.5-.5s.2-.4.2-.7,0-.5-.2-.7-.3-.3-.5-.5-.4-.2-.6-.2-.5,0-.6.2-.3.3-.5.5-.2.4-.2.7,0,.5.2.7.3.4.5.5c.2.1.4.2.6.2Z"/>
          <path class="st6" d="M211.3,402.3c-.3,0-.6,0-.8-.2-.2-.1-.4-.3-.6-.5-.1-.2-.2-.5-.2-.9v-2.2h.7v2.1c0,.4,0,.6.3.8s.4.3.7.3.4,0,.6-.1c.2,0,.3-.2.4-.4,0-.2.1-.4.1-.7v-1.9h.7v3.8h-.6v-1,.3c0,.3-.2.4-.4.6-.2.1-.5.2-.8.2Z"/>
          <path class="st6" d="M216.6,398.4c.3,0,.6,0,.8.2s.4.3.5.5c.1.2.2.5.2.9v2.2h-.7v-2.1c0-.4,0-.6-.3-.8-.2-.2-.4-.3-.7-.3s-.5,0-.6.1c-.2,0-.3.2-.4.4s-.1.4-.1.7v1.9h-.7v-3.8h.7v1-.3c0-.2.2-.4.5-.6.3-.1.6-.2.9-.2Z"/>
          <path class="st6" d="M220.9,402.1c-.4,0-.7,0-1-.2-.3-.2-.5-.4-.7-.6-.2-.3-.3-.6-.3-1s0-.7.3-1c.2-.3.4-.5.7-.6s.6-.2,1-.2.6,0,.9.2.5.3.6.6c.2.3.2.6.2,1s0,.7-.2,1c-.2.3-.4.5-.6.6-.3.1-.6.2-.9.2ZM221,403.7c-.3,0-.7,0-1-.1-.3,0-.6-.2-.8-.4l.3-.5c.2.2.4.3.6.4.3,0,.5.1.8.1.4,0,.8-.1,1-.3s.3-.5.3-1v-1.5c0,0,0-.8,0-.8v-1h.6v3.2c0,.7-.2,1.1-.5,1.5-.3.3-.8.5-1.5.5ZM221,401.5c.3,0,.5,0,.7-.2.2-.1.3-.2.5-.4.1-.2.2-.4.2-.6s0-.5-.2-.6-.3-.3-.5-.4c-.2-.1-.4-.2-.7-.2s-.5,0-.7.2c-.2.1-.3.2-.5.4-.1.2-.2.4-.2.6s0,.5.2.6c.1.2.3.3.5.4.2.1.4.2.7.2Z"/>
          <path class="st6" d="M225.9,402.3c-.4,0-.8,0-1.1-.2s-.5-.4-.7-.7c-.2-.3-.3-.6-.3-1s0-.7.2-1c.2-.3.4-.5.7-.7s.6-.2,1-.2.7,0,1,.2c.3.2.5.4.7.7.2.3.2.6.2,1s0,0,0,0c0,0,0,0,0,.1h-3.2v-.5h2.8l-.3.2c0-.2,0-.5-.1-.6s-.2-.3-.4-.4c-.2-.1-.4-.2-.6-.2s-.4,0-.6.2c-.2.1-.3.3-.4.4s-.2.4-.2.7h0c0,.4,0,.6.2.8.1.2.3.3.5.5.2.1.4.2.7.2s.4,0,.6-.1c.2,0,.3-.2.5-.3l.4.4c-.2.2-.4.3-.6.5-.3.1-.5.2-.8.2Z"/>
          <path class="st6" d="M199.4,410.8c-.3,0-.7,0-1-.2-.3-.1-.6-.3-.8-.4l.3-.6c.2.2.4.3.6.4.3,0,.5.1.9.1s.7,0,.9-.2c.2-.2.3-.4.3-.6s0-.5-.3-.6c-.2-.2-.5-.2-.9-.2h-.4v-.5l1.5-1.8v.3c0,0-2.6,0-2.6,0v-.6h3.3v.5l-1.5,1.8-.4-.2h.2c.6,0,1,.1,1.3.4.3.3.5.6.5,1s0,.5-.2.8c-.1.2-.3.4-.6.5-.3.1-.6.2-1.1.2Z"/>
          <path class="st6" d="M203.5,405.7c.4,0,.8,0,1.1.3s.5.5.7.8c.2.4.2.8.2,1.3s0,1-.3,1.4-.5.7-.8.9c-.3.2-.8.3-1.2.3s-.5,0-.7,0-.4-.1-.6-.2l.3-.6c.1,0,.3.1.4.2.2,0,.3,0,.5,0,.5,0,.9-.2,1.2-.5.3-.3.4-.8.4-1.4s0-.2,0-.4c0-.1,0-.3,0-.4l.2.2c0,.2-.2.4-.3.5-.2.1-.3.3-.6.3s-.4.1-.7.1-.6,0-.9-.2c-.3-.1-.5-.3-.6-.5-.1-.2-.2-.5-.2-.8s0-.6.2-.8c.2-.2.4-.4.6-.5.3-.1.6-.2.9-.2ZM203.6,406.3c-.2,0-.4,0-.6.1-.2,0-.3.2-.4.3s-.1.3-.1.5c0,.3.1.5.3.7s.5.3.8.3.4,0,.6-.1c.2,0,.3-.2.4-.3s.1-.3.1-.5,0-.3-.1-.5c0-.1-.2-.3-.4-.3-.2,0-.4-.1-.7-.1Z"/>
          <path class="st6" d="M207.9,405.7c.4,0,.8,0,1.1.3s.5.5.7.8c.2.4.2.8.2,1.3s0,1-.3,1.4-.5.7-.8.9c-.3.2-.8.3-1.2.3s-.5,0-.7,0-.4-.1-.6-.2l.3-.6c.1,0,.3.1.4.2.2,0,.3,0,.5,0,.5,0,.9-.2,1.2-.5.3-.3.4-.8.4-1.4s0-.2,0-.4c0-.1,0-.3,0-.4l.2.2c0,.2-.2.4-.3.5-.2.1-.3.3-.6.3s-.4.1-.7.1-.6,0-.9-.2c-.3-.1-.5-.3-.6-.5-.1-.2-.2-.5-.2-.8s0-.6.2-.8c.2-.2.4-.4.6-.5.3-.1.6-.2.9-.2ZM207.9,406.3c-.2,0-.4,0-.6.1-.2,0-.3.2-.4.3s-.1.3-.1.5c0,.3.1.5.3.7s.5.3.8.3.4,0,.6-.1c.2,0,.3-.2.4-.3s.1-.3.1-.5,0-.3-.1-.5c0-.1-.2-.3-.4-.3-.2,0-.4-.1-.7-.1Z"/>
          <path class="st6" d="M212.7,410.8c-.4,0-.7,0-1-.3-.3-.2-.5-.5-.7-.9s-.3-.8-.3-1.4,0-1,.3-1.4.4-.7.7-.9c.3-.2.7-.3,1-.3s.7,0,1,.3.5.5.7.9c.2.4.3.8.3,1.4s0,1-.3,1.4c-.2.4-.4.7-.7.9s-.7.3-1,.3ZM212.7,410.2c.3,0,.5,0,.7-.2.2-.1.3-.4.5-.6s.2-.6.2-1.1,0-.8-.2-1.1c-.1-.3-.3-.5-.5-.6s-.4-.2-.7-.2-.5,0-.7.2-.4.4-.5.6c-.1.3-.2.6-.2,1.1s0,.8.2,1.1.3.5.5.6c.2.1.4.2.7.2Z"/>
          <path class="st6" d="M218.7,410.8c-.3,0-.6,0-.9-.1-.3,0-.5-.2-.7-.3l.3-.5c.2.1.4.2.6.3.2,0,.5.1.7.1s.5,0,.7-.1c.1,0,.2-.2.2-.4s0-.2-.1-.3c0,0-.2-.1-.3-.1-.1,0-.3,0-.5,0-.2,0-.3,0-.5,0-.2,0-.3,0-.5-.2-.1,0-.3-.2-.3-.3,0-.1-.1-.3-.1-.5s0-.4.2-.6.3-.3.5-.4c.2,0,.5-.1.8-.1s.5,0,.7,0c.3,0,.5.1.6.3l-.3.5c-.2-.1-.3-.2-.5-.2-.2,0-.4,0-.6,0-.3,0-.5,0-.7.1-.1,0-.2.2-.2.4s0,.2.1.3c0,0,.2.1.3.2.1,0,.3,0,.5,0,.2,0,.3,0,.5,0,.2,0,.3,0,.5.2.1,0,.3.2.3.3,0,.1.1.3.1.5s0,.4-.2.6c-.1.2-.3.3-.6.4-.2,0-.5.1-.9.1Z"/>
          <path class="st6" d="M222.7,410.8c-.4,0-.7,0-1-.2s-.5-.4-.7-.7c-.2-.3-.2-.6-.2-1s0-.7.2-1c.2-.3.4-.5.7-.7.3-.2.6-.2,1-.2s.6,0,.9.2.5.4.6.6c.1.3.2.6.2,1.1s0,.8-.2,1.1c-.2.3-.4.5-.6.6-.3.1-.5.2-.9.2ZM222.8,410.2c.2,0,.4,0,.6-.2.2-.1.3-.3.5-.5s.2-.4.2-.7,0-.5-.2-.7-.3-.3-.5-.5-.4-.2-.6-.2-.5,0-.6.2-.3.3-.5.5-.2.4-.2.7,0,.5.2.7.3.4.5.5c.2.1.4.2.6.2ZM224,412.1v-3.2c0,0,0-.9,0-.9v-1h.7v5.1h-.7Z"/>
          <path class="st6" d="M225.5,407.6v-.6h2.4v.6h-2.4ZM226.1,410.7v-4.1c0-.4.1-.7.3-.9.2-.2.5-.3.9-.3s.3,0,.4,0c.1,0,.2,0,.3.2l-.2.5c0,0-.2,0-.2-.1,0,0-.2,0-.3,0-.2,0-.3,0-.5.2-.1.1-.2.3-.2.5v.8s0,3.3,0,3.3h-.7Z"/>
          <path class="st6" d="M228,407.6v-.6h2.4v.6h-2.4ZM229.8,410.8c-.4,0-.7-.1-.9-.3-.2-.2-.3-.5-.3-.9v-3.4h.7v3.4c0,.2,0,.4.2.5.1.1.2.2.4.2s.4,0,.5-.2l.2.5c-.1,0-.2.2-.4.2-.1,0-.3,0-.4,0Z"/>
        </g>
        <rect class="st9" x="301.2" y="388.7" width="33.2" height="16.5"/>
        <rect class="st9" x="79.4" y="441.4" width="36.7" height="39.2"/>
        <polygon class="st9" points="453.3 321.7 453.3 335.9 418.8 335.9 418.8 412.4 337.5 412.4 337.5 444.3 370.3 444.3 370.3 451 418.8 451 487.8 451 487.8 338.6 487.8 335.9 487.8 321.7 453.3 321.7"/>
        <polygon class="st9" points="724.8 432.4 724.8 323.2 537.8 323.2 531.2 323.2 511 323.2 511 451 537.8 451 537.8 444.1 590.9 444.1 590.9 486.3 725.6 486.3 725.6 432.4 724.8 432.4"/>
        <polygon class="st9" points="486.1 240.7 478.9 240.7 439.5 240.7 439.5 280.6 478.9 280.6 478.9 298.7 532.7 298.7 532.7 240.7 486.1 240.7"/>
        <polygon class="st9" points="452.8 473.9 452.8 480.6 65.6 480.6 65.6 486.7 452.8 486.7 455 486.7 590.9 486.7 590.9 473.9 452.8 473.9"/>
      </g>
      <g class="st7">
        <path class="st6" d="M346.3,388.7h-4.1v-1.6c0-.4,0-.7.2-.9.1-.3.3-.5.5-.6.2-.1.5-.2.8-.2s.6,0,.8.2c.2.1.4.3.5.6.1.3.2.6.2.9v1.3l-.3-.3h1.5v.6ZM344.9,388.1l-.3.3v-1.3c0-.4,0-.7-.2-.9s-.4-.3-.7-.3-.5,0-.7.3-.2.5-.2.9v1.3l-.3-.3h2.4ZM346.3,385.9l-1.5,1v-.6l1.5-1.1v.6Z"/>
        <path class="st6" d="M346.4,383.1c0,.3,0,.6-.2.9s-.3.5-.6.6c-.2.1-.5.2-.8.2s-.6,0-.8-.2-.4-.3-.6-.6c-.1-.2-.2-.5-.2-.8s0-.6.2-.8c.1-.2.3-.4.6-.5.2-.1.5-.2.8-.2s0,0,0,0c0,0,0,0,0,0v2.7h-.4v-2.4.2c0,0-.2,0-.4.1s-.3.2-.4.4c0,.2-.1.3-.1.5s0,.4.1.5c0,.2.2.3.4.4s.3.1.5.1h0c.2,0,.4,0,.6-.1.2,0,.3-.2.4-.4,0-.2.1-.4.1-.6s0-.4,0-.5c0-.2-.2-.3-.3-.4l.4-.3c.2.1.3.3.4.5,0,.2.1.4.1.7Z"/>
        <path class="st6" d="M346.4,379.9c0,.3,0,.5-.1.7,0,.2-.2.4-.3.6l-.4-.2c0-.1.2-.3.2-.5,0-.2,0-.4,0-.6s0-.5-.1-.6-.2-.2-.3-.2-.2,0-.2.1c0,0,0,.2-.1.3,0,.1,0,.2,0,.4,0,.1,0,.3,0,.4,0,.1,0,.3-.1.4,0,.1-.1.2-.3.3-.1,0-.3.1-.4.1s-.4,0-.5-.2-.3-.3-.3-.5c0-.2-.1-.4-.1-.7s0-.4,0-.6c0-.2.1-.4.2-.5l.4.2c0,.1-.2.3-.2.4,0,.2,0,.3,0,.5,0,.2,0,.4.1.6,0,.1.2.2.3.2s.2,0,.2-.1.1-.2.1-.3c0-.1,0-.2,0-.4,0-.1,0-.3,0-.4,0-.1,0-.3.1-.4s.1-.2.2-.3c.1,0,.2-.1.4-.1s.4,0,.5.2c.1.1.2.3.3.5,0,.2.1.4.1.7Z"/>
        <path class="st6" d="M346.4,376.8c0,.3,0,.6-.3.7s-.4.3-.7.3h-2.9v-.6h2.8c.2,0,.3,0,.4-.1,0,0,.1-.2.1-.4s0-.3-.1-.4l.4-.2c0,0,.1.2.2.3,0,.1,0,.2,0,.4ZM343.7,378.3h-.5v-2h.5v2Z"/>
        <path class="st6" d="M346.3,375.4h-3.1v-.5h.8-.2c-.2,0-.4-.2-.5-.4-.1-.2-.2-.5-.2-.8h.5s0,0,0,0h0c0,.4,0,.6.3.8.2.2.4.3.8.3h1.6v.6Z"/>
        <path class="st6" d="M346.4,371.7c0,.3,0,.6-.2.8s-.3.4-.6.6c-.2.1-.5.2-.8.2s-.6,0-.8-.2c-.2-.1-.4-.3-.6-.6-.1-.2-.2-.5-.2-.8s0-.6.2-.8.3-.4.6-.6c.2-.1.5-.2.8-.2s.6,0,.8.2c.2.1.4.3.6.6s.2.5.2.8ZM345.9,371.7c0-.2,0-.4-.1-.5s-.2-.3-.4-.4c-.2,0-.4-.1-.6-.1s-.4,0-.6.1c-.2,0-.3.2-.4.4,0,.2-.1.3-.1.5s0,.4.1.5c0,.2.2.3.4.4.2,0,.4.1.6.1s.4,0,.6-.1c.2,0,.3-.2.4-.4,0-.2.1-.3.1-.5Z"/>
        <path class="st6" d="M346.4,368c0,.3,0,.6-.2.8s-.3.4-.6.6c-.2.1-.5.2-.8.2s-.6,0-.8-.2c-.2-.1-.4-.3-.6-.6-.1-.2-.2-.5-.2-.8s0-.6.2-.8.3-.4.6-.6c.2-.1.5-.2.8-.2s.6,0,.8.2c.2.1.4.3.6.6s.2.5.2.8ZM345.9,368c0-.2,0-.4-.1-.5s-.2-.3-.4-.4c-.2,0-.4-.1-.6-.1s-.4,0-.6.1c-.2,0-.3.2-.4.4,0,.2-.1.3-.1.5s0,.4.1.5c0,.2.2.3.4.4.2,0,.4.1.6.1s.4,0,.6-.1c.2,0,.3-.2.4-.4,0-.2.1-.3.1-.5Z"/>
        <path class="st6" d="M343.2,361.6c0-.3,0-.5.1-.7,0-.2.2-.3.4-.5.2-.1.5-.2.8-.2h1.8v.6h-1.7c-.3,0-.5,0-.7.2-.2.1-.2.3-.2.6s0,.4.1.5c0,.1.2.3.3.3.2,0,.3.1.6.1h1.6v.6h-1.7c-.3,0-.5,0-.7.2-.2.1-.2.3-.2.6s0,.3.1.5c0,.1.2.3.3.3.2,0,.3.1.6.1h1.6v.6h-3.1v-.5h.8-.2c-.2,0-.4-.2-.5-.4-.1-.2-.2-.4-.2-.7s0-.6.2-.8c.1-.2.4-.4.7-.4v.2c-.3,0-.5-.3-.7-.5-.1-.2-.2-.5-.2-.8Z"/>
        <path class="st6" d="M346.3,357.3h-3.9l.3-.3v1.2h-.5v-1.5h4.1v.6Z"/>
      </g>
      <g class="st7">
        <path class="st6" d="M411.3,389.3h-4.1v-1.6c0-.4,0-.7.2-.9.1-.3.3-.5.5-.6.2-.1.5-.2.8-.2s.6,0,.8.2c.2.1.4.3.5.6.1.3.2.6.2.9v1.3l-.3-.3h1.5v.6ZM409.8,388.7l-.3.3v-1.3c0-.4,0-.7-.2-.9-.2-.2-.4-.3-.7-.3s-.5,0-.7.3c-.2.2-.2.5-.2.9v1.3l-.3-.3h2.4ZM411.3,386.5l-1.5,1v-.6l1.5-1.1v.6Z"/>
        <path class="st6" d="M411.3,383.7c0,.3,0,.6-.2.9-.1.3-.3.5-.6.6-.2.1-.5.2-.8.2s-.6,0-.8-.2c-.2-.1-.4-.3-.6-.6s-.2-.5-.2-.8,0-.6.2-.8c.1-.2.3-.4.6-.5.2-.1.5-.2.8-.2s0,0,0,0c0,0,0,0,0,0v2.7h-.4v-2.4.2c0,0-.2,0-.4.1-.2,0-.3.2-.4.4,0,.2-.1.3-.1.5s0,.4.1.5c0,.2.2.3.4.4.2,0,.3.1.5.1h0c.2,0,.4,0,.6-.1.2,0,.3-.2.4-.4,0-.2.1-.4.1-.6s0-.4,0-.5c0-.2-.2-.3-.3-.4l.4-.3c.2.1.3.3.4.5,0,.2.1.4.1.7Z"/>
        <path class="st6" d="M411.3,380.5c0,.3,0,.5-.1.7,0,.2-.2.4-.3.6l-.4-.2c0-.1.2-.3.2-.5,0-.2,0-.4,0-.6s0-.5-.1-.6c0-.1-.2-.2-.3-.2s-.2,0-.2.1c0,0,0,.2-.1.3,0,.1,0,.2,0,.4s0,.3,0,.4c0,.1,0,.3-.1.4,0,.1-.1.2-.3.3-.1,0-.3.1-.4.1s-.4,0-.5-.2c-.1-.1-.3-.3-.3-.5,0-.2-.1-.4-.1-.7s0-.4,0-.6c0-.2.1-.4.2-.5l.4.2c0,.1-.2.3-.2.4,0,.2,0,.3,0,.5,0,.2,0,.4.1.6,0,.1.2.2.3.2s.2,0,.2-.1c0,0,.1-.2.1-.3,0-.1,0-.2,0-.4,0-.1,0-.3,0-.4,0-.1,0-.3.1-.4,0-.1.1-.2.2-.3.1,0,.2-.1.4-.1s.4,0,.5.2c.1.1.2.3.3.5,0,.2.1.4.1.7Z"/>
        <path class="st6" d="M411.3,377.4c0,.3,0,.6-.3.7-.2.2-.4.3-.7.3h-2.9v-.6h2.8c.2,0,.3,0,.4-.1,0,0,.1-.2.1-.4s0-.3-.1-.4l.4-.2c0,0,.1.2.2.3s0,.2,0,.4ZM408.6,378.9h-.5v-2h.5v2Z"/>
        <path class="st6" d="M411.3,376.1h-3.1v-.5h.8-.2c-.2,0-.4-.2-.5-.4-.1-.2-.2-.5-.2-.8h.5s0,0,0,0h0c0,.4,0,.6.3.8s.4.3.8.3h1.6v.6Z"/>
        <path class="st6" d="M411.3,372.3c0,.3,0,.6-.2.8-.1.2-.3.4-.6.6-.2.1-.5.2-.8.2s-.6,0-.8-.2c-.2-.1-.4-.3-.6-.6-.1-.2-.2-.5-.2-.8s0-.6.2-.8c.1-.2.3-.4.6-.6.2-.1.5-.2.8-.2s.6,0,.8.2c.2.1.4.3.6.6.1.2.2.5.2.8ZM410.8,372.3c0-.2,0-.4-.1-.5,0-.2-.2-.3-.4-.4s-.4-.1-.6-.1-.4,0-.6.1-.3.2-.4.4c0,.2-.1.3-.1.5s0,.4.1.5.2.3.4.4.4.1.6.1.4,0,.6-.1.3-.2.4-.4c0-.2.1-.3.1-.5Z"/>
        <path class="st6" d="M411.3,368.6c0,.3,0,.6-.2.8-.1.2-.3.4-.6.6-.2.1-.5.2-.8.2s-.6,0-.8-.2c-.2-.1-.4-.3-.6-.6-.1-.2-.2-.5-.2-.8s0-.6.2-.8c.1-.2.3-.4.6-.6.2-.1.5-.2.8-.2s.6,0,.8.2c.2.1.4.3.6.6.1.2.2.5.2.8ZM410.8,368.6c0-.2,0-.4-.1-.5,0-.2-.2-.3-.4-.4s-.4-.1-.6-.1-.4,0-.6.1-.3.2-.4.4c0,.2-.1.3-.1.5s0,.4.1.5.2.3.4.4.4.1.6.1.4,0,.6-.1.3-.2.4-.4c0-.2.1-.3.1-.5Z"/>
        <path class="st6" d="M408.1,362.2c0-.3,0-.5.1-.7,0-.2.2-.3.4-.5.2-.1.5-.2.8-.2h1.8v.6h-1.7c-.3,0-.5,0-.7.2-.2.1-.2.3-.2.6s0,.4.1.5c0,.1.2.2.3.3s.3.1.6.1h1.6v.6h-1.7c-.3,0-.5,0-.7.2-.2.1-.2.3-.2.6s0,.3.1.5c0,.1.2.3.3.3s.3.1.6.1h1.6v.6h-3.1v-.5h.8-.2c-.2,0-.4-.2-.5-.4-.1-.2-.2-.4-.2-.7s0-.6.2-.8c.1-.2.4-.4.7-.4v.2c-.3,0-.5-.3-.7-.5-.1-.2-.2-.5-.2-.8Z"/>
        <path class="st6" d="M411.3,358.7h-.4l-1.6-1.7c-.1-.1-.3-.3-.4-.3-.1,0-.2-.1-.3-.1,0,0-.2,0-.3,0-.2,0-.4,0-.5.2-.1.2-.2.4-.2.7s0,.4.1.6c0,.2.2.3.3.5l-.3.4c-.2-.2-.4-.4-.5-.6-.1-.3-.2-.6-.2-.9s0-.5.1-.7c0-.2.2-.4.4-.5.2-.1.4-.2.6-.2s.3,0,.4,0,.3.1.4.2c.1,0,.3.2.5.4l1.4,1.5h-.2c0,.1,0-2.4,0-2.4h.5v3Z"/>
      </g>
    </g>
  </g>
</svg>